<svg id="Layer_1" data-name="Layer 1" xmlns="http://www.w3.org/2000/svg" viewBox="0 0 350.68 350.68"><defs><style>.cls-1{fill:#fff;}.cls-2{fill:#f7f6fb;}.cls-3{fill:#f1f6fc;}</style></defs><title>bg</title><path class="cls-1" d="M77.4,0H350.68a0,0,0,0,1,0,0V273.29a77.4,77.4,0,0,1-77.4,77.4H0a0,0,0,0,1,0,0V77.4A77.4,77.4,0,0,1,77.4,0Z"/><path class="cls-2" d="M131.67,246.61V479.73L404.27,214l-238,1.2" transform="translate(-102.29 -190.44)"/><path class="cls-3" d="M131.67,246.61c0-17.37,15.45-31.43,34.55-31.43" transform="translate(-102.29 -190.44)"/><path class="cls-2" d="M424.3,478l-1.25-233.12L151.87,512l238-2.46" transform="translate(-102.29 -190.44)"/><path class="cls-2" d="M424.3,478c.09,17.37-15.29,31.51-34.39,31.62" transform="translate(-102.29 -190.44)"/></svg>