<?xml version="1.0" standalone="no"?>
<!DOCTYPE svg PUBLIC "-//W3C//DTD SVG 20010904//EN"
 "http://www.w3.org/TR/2001/REC-SVG-20010904/DTD/svg10.dtd">
<svg version="1.0" xmlns="http://www.w3.org/2000/svg"
 width="5963.000000pt" height="5963.000000pt" viewBox="0 0 5963.000000 5963.000000"
 preserveAspectRatio="xMidYMid meet">
<metadata>
Created by potrace 1.11, written by Peter Selinger 2001-2013
</metadata>
<g transform="translate(0.000000,5963.000000) scale(0.100000,-0.100000)"
fill="#000000" stroke="none">
<path d="M29569 59626 c-2 -2 -47 -6 -99 -10 -52 -3 -115 -8 -140 -11 -72 -9
-259 -36 -278 -40 -9 -2 -64 -13 -122 -25 -927 -185 -1815 -729 -2373 -1454
-43 -55 -87 -111 -97 -122 -11 -12 -20 -24 -20 -27 0 -4 -20 -34 -44 -69 -218
-314 -408 -737 -505 -1123 -28 -112 -34 -142 -46 -205 -3 -14 -7 -36 -9 -50
-3 -14 -8 -43 -11 -65 -3 -22 -10 -67 -15 -100 -24 -151 -33 -535 -17 -743 13
-173 55 -422 98 -582 11 -41 22 -84 24 -94 11 -48 94 -290 120 -351 116 -268
165 -363 294 -577 37 -61 159 -239 188 -273 5 -5 39 -48 76 -95 89 -111 201
-233 312 -341 137 -133 159 -152 375 -323 48 -37 200 -141 295 -201 354 -222
769 -398 1175 -499 80 -20 156 -38 170 -40 14 -3 25 -5 25 -6 0 -1 14 -4 30
-6 17 -3 53 -9 80 -14 28 -5 64 -12 80 -14 79 -12 122 -19 145 -21 35 -3 154
-15 225 -21 33 -3 62 -8 65 -11 6 -5 6 -7 15 -688 3 -275 8 -596 9 -712 l3
-213 -76 0 c-163 -1 -549 -13 -776 -25 -231 -12 -429 -24 -475 -30 -19 -2 -80
-7 -135 -10 -55 -3 -111 -7 -125 -10 -14 -2 -61 -6 -105 -9 -44 -4 -96 -8
-115 -11 -19 -2 -62 -7 -95 -10 -33 -3 -78 -8 -100 -10 -22 -3 -61 -7 -87 -10
-105 -11 -145 -16 -179 -21 -20 -3 -51 -7 -70 -9 -81 -8 -155 -17 -169 -20 -8
-2 -40 -7 -70 -10 -30 -3 -66 -8 -80 -10 -32 -5 -101 -15 -137 -20 -40 -5
-233 -34 -263 -40 -14 -2 -83 -13 -154 -25 -71 -11 -131 -22 -135 -24 -3 -2
-30 -7 -60 -11 -30 -4 -63 -9 -75 -11 -95 -18 -236 -44 -256 -48 -51 -9 -231
-46 -272 -56 -24 -5 -119 -26 -213 -45 -93 -20 -195 -42 -225 -50 -30 -8 -68
-16 -85 -19 -40 -8 -503 -125 -690 -175 -711 -192 -1472 -445 -2150 -716 -104
-42 -194 -77 -200 -79 -5 -1 -27 -10 -49 -19 -21 -9 -40 -17 -41 -17 -5 0
-429 -182 -469 -201 -22 -10 -46 -19 -53 -19 -7 0 -13 -4 -13 -10 0 -5 -7 -10
-16 -10 -9 0 -28 -7 -42 -15 -15 -8 -76 -37 -137 -64 -305 -137 -948 -456
-1170 -580 -27 -16 -81 -45 -120 -66 -125 -67 -247 -136 -379 -213 -72 -41
-144 -82 -160 -92 -67 -38 -258 -153 -391 -235 -77 -48 -160 -99 -183 -114
-24 -14 -94 -59 -154 -98 -61 -40 -112 -73 -114 -73 -4 0 -307 -204 -454 -305
-120 -83 -381 -269 -470 -334 -41 -31 -84 -63 -96 -71 -22 -15 -175 -129 -204
-153 -9 -7 -54 -41 -100 -77 -47 -35 -184 -143 -305 -240 -196 -155 -249 -199
-289 -235 -6 -5 -51 -44 -101 -85 -49 -41 -124 -103 -165 -139 -74 -63 -92
-79 -222 -194 -37 -32 -81 -71 -100 -87 -18 -16 -36 -30 -39 -30 -3 0 -91 93
-195 207 -104 114 -198 217 -209 229 -22 24 -129 141 -295 324 -125 137 -103
113 -220 240 -108 117 -122 133 -169 186 -19 22 -60 66 -90 99 -31 33 -94 102
-141 154 -47 52 -90 99 -95 105 -6 6 -39 43 -74 81 -96 104 -159 173 -221 240
-30 33 -93 102 -140 154 -47 52 -96 106 -110 121 -14 15 -63 69 -110 120 -47
52 -107 118 -135 149 -27 30 -76 82 -107 116 -31 33 -67 72 -78 85 -12 14 -58
65 -103 114 -45 49 -86 94 -92 100 -45 49 -202 223 -210 232 -5 6 -48 52 -95
104 -47 51 -98 107 -114 124 -23 25 -166 182 -201 220 -5 6 -53 58 -105 116
-52 58 -118 130 -146 160 -85 92 -106 115 -179 195 -38 43 -83 92 -99 109 -15
17 -65 71 -110 120 -44 49 -86 94 -91 100 -6 6 -53 58 -105 116 -52 58 -106
117 -120 131 -14 14 -59 64 -100 109 -41 46 -84 93 -95 105 -11 11 -60 65
-110 120 -49 55 -99 109 -110 120 -11 12 -60 66 -109 120 -50 55 -95 105 -100
110 -48 46 -48 48 -4 95 121 131 284 341 381 491 211 325 393 738 471 1069 2
8 9 35 16 59 25 92 44 200 75 411 4 24 8 72 21 220 6 70 6 391 0 480 -7 113
-44 396 -61 470 -3 14 -8 36 -11 50 -7 39 -35 152 -45 185 -93 318 -124 399
-243 645 -95 197 -127 253 -243 428 -278 421 -628 768 -1057 1051 -59 39 -109
71 -111 71 -1 0 -45 24 -96 53 -271 153 -557 268 -864 347 -130 33 -177 44
-302 66 -13 2 -35 6 -50 9 -16 3 -50 8 -78 11 -27 3 -61 8 -75 10 -184 30
-715 24 -920 -11 -14 -2 -47 -7 -75 -11 -27 -3 -57 -8 -65 -9 -236 -48 -343
-76 -519 -135 -648 -214 -1190 -586 -1661 -1136 -241 -281 -477 -690 -616
-1069 -75 -202 -150 -488 -178 -677 -3 -21 -9 -55 -12 -75 -3 -21 -7 -49 -9
-63 -2 -14 -7 -61 -11 -105 -3 -44 -8 -96 -10 -115 -4 -51 -4 -429 0 -470 2
-19 7 -71 11 -115 26 -316 137 -771 246 -1012 10 -24 19 -45 19 -49 0 -9 48
-111 115 -244 80 -161 174 -316 279 -465 214 -300 501 -595 794 -813 42 -31
79 -60 80 -64 2 -5 8 -8 13 -8 5 0 37 -20 72 -43 148 -104 407 -243 601 -326
147 -62 465 -166 571 -187 11 -2 61 -13 110 -24 77 -16 189 -35 345 -55 178
-23 713 -23 800 0 8 2 38 6 65 9 70 7 119 15 205 31 41 8 86 17 100 19 164 31
512 142 669 213 239 108 373 179 531 281 99 64 292 202 301 214 3 5 39 -28 80
-73 41 -45 81 -90 90 -98 8 -9 62 -68 120 -131 57 -63 106 -117 109 -120 3 -3
52 -57 110 -120 141 -157 279 -307 315 -345 17 -18 48 -52 69 -76 52 -58 196
-217 267 -293 58 -63 129 -141 164 -180 32 -37 198 -218 220 -241 11 -12 83
-91 160 -176 77 -85 146 -161 155 -169 8 -8 58 -62 110 -120 52 -58 111 -123
132 -145 38 -41 47 -51 172 -188 39 -44 82 -91 96 -106 24 -26 82 -89 316
-346 135 -149 114 -125 214 -235 47 -51 94 -103 105 -115 11 -11 40 -43 65
-71 25 -27 92 -101 150 -164 58 -63 125 -137 150 -165 57 -63 130 -143 201
-220 30 -33 73 -80 95 -104 21 -24 53 -58 69 -75 17 -18 63 -70 104 -115 41
-45 90 -99 110 -120 20 -21 52 -56 71 -77 102 -114 148 -165 199 -219 31 -34
94 -103 141 -154 47 -52 96 -106 110 -121 25 -27 247 -271 326 -358 l41 -45
-387 -386 c-372 -372 -433 -435 -640 -661 -52 -57 -102 -111 -110 -119 -42
-45 -333 -376 -447 -511 -313 -369 -649 -797 -924 -1175 -191 -263 -392 -547
-434 -616 -5 -9 -49 -74 -96 -145 -116 -174 -225 -342 -284 -439 -27 -44 -52
-82 -55 -85 -7 -7 -186 -304 -225 -375 -17 -30 -36 -60 -43 -67 -7 -7 -12 -16
-12 -21 0 -5 -8 -21 -18 -35 -11 -15 -32 -52 -49 -82 -16 -30 -51 -90 -76
-133 -26 -43 -47 -81 -47 -84 0 -2 -17 -35 -39 -71 -21 -37 -54 -96 -73 -132
-20 -36 -47 -85 -61 -110 -224 -404 -591 -1169 -814 -1695 -30 -71 -61 -143
-68 -160 -57 -133 -95 -228 -95 -239 0 -7 -3 -16 -7 -20 -4 -4 -15 -26 -24
-49 -230 -590 -382 -1023 -549 -1567 -46 -149 -120 -399 -125 -420 -5 -25 -94
-353 -104 -385 -10 -31 -40 -155 -47 -188 -2 -10 -6 -27 -9 -37 -3 -10 -8 -27
-10 -37 -2 -10 -11 -46 -20 -80 -9 -35 -18 -71 -20 -80 -2 -10 -15 -67 -29
-128 -55 -235 -163 -750 -190 -908 -3 -15 -10 -54 -16 -87 -6 -33 -13 -70 -15
-82 -2 -13 -7 -36 -10 -53 -10 -59 -34 -201 -39 -235 -3 -19 -12 -78 -20 -130
-9 -52 -18 -115 -21 -140 -3 -25 -7 -52 -10 -60 -2 -8 -7 -37 -10 -65 -3 -27
-7 -63 -10 -80 -11 -68 -17 -112 -20 -145 -2 -19 -6 -55 -9 -80 -12 -79 -23
-173 -41 -337 -3 -24 -7 -60 -9 -80 -3 -21 -7 -67 -11 -103 -3 -36 -8 -83 -10
-105 -6 -55 -13 -137 -20 -215 -3 -36 -7 -92 -10 -125 -5 -55 -10 -117 -20
-265 -2 -30 -6 -107 -10 -170 -4 -63 -8 -146 -11 -185 -10 -191 -22 -588 -24
-826 l-1 -165 -372 -3 c-1136 -8 -1367 -8 -1368 -2 0 3 -2 13 -3 21 -2 8 -6
49 -10 90 -4 41 -9 91 -12 110 -24 164 -57 335 -85 440 -12 41 -22 83 -24 93
-9 41 -80 249 -122 357 -134 340 -350 702 -592 992 -130 154 -348 371 -490
484 -13 10 -28 24 -35 29 -34 31 -206 155 -214 155 -6 0 -12 4 -14 9 -6 17
-200 135 -373 226 -305 162 -762 314 -1080 360 -23 3 -51 7 -64 10 -13 2 -49
7 -80 11 -31 3 -69 8 -86 10 -171 22 -593 22 -750 -1 -16 -2 -55 -7 -85 -10
-57 -7 -65 -8 -140 -19 -101 -16 -291 -60 -422 -97 -143 -41 -375 -124 -392
-140 -6 -5 -17 -9 -25 -9 -23 0 -330 -157 -451 -230 -381 -230 -727 -539
-1004 -894 -150 -192 -273 -387 -388 -618 -92 -186 -222 -523 -244 -632 -2
-10 -8 -33 -13 -50 -6 -17 -13 -42 -15 -56 -3 -14 -14 -63 -24 -110 -11 -47
-23 -107 -27 -135 -5 -27 -9 -57 -11 -65 -3 -15 -12 -82 -19 -135 -14 -104
-28 -329 -28 -450 0 -64 12 -301 18 -350 2 -16 6 -55 10 -85 10 -92 53 -330
74 -415 38 -151 43 -170 48 -185 3 -8 7 -19 8 -25 10 -38 74 -219 112 -315 51
-128 186 -397 252 -505 53 -85 153 -238 161 -245 3 -3 24 -30 45 -60 150 -207
380 -448 605 -633 41 -34 80 -65 85 -70 185 -153 577 -382 835 -487 211 -86
487 -170 690 -210 30 -5 66 -13 80 -15 14 -3 59 -10 100 -16 41 -5 85 -12 98
-14 77 -13 227 -20 437 -20 253 0 329 4 515 30 152 22 141 20 372 70 103 23
392 117 493 160 17 8 64 28 105 46 595 254 1168 730 1541 1279 159 233 285
467 379 704 66 168 140 403 165 526 2 8 8 33 13 55 6 22 13 56 16 75 5 33 8
46 21 118 3 15 8 47 11 72 3 25 7 56 9 70 3 14 8 59 11 100 3 41 10 79 15 84
5 5 221 10 501 12 271 1 657 3 858 4 201 1 370 2 375 1 6 -1 10 -35 11 -79 1
-92 13 -464 18 -542 2 -30 7 -111 10 -180 4 -69 9 -143 11 -165 3 -22 7 -78
10 -125 3 -47 7 -110 10 -140 2 -30 7 -91 10 -135 3 -44 8 -91 10 -105 2 -14
7 -61 10 -104 4 -43 8 -86 10 -95 1 -9 6 -52 10 -95 4 -43 8 -86 10 -95 1 -9
6 -47 9 -86 4 -38 9 -81 11 -95 2 -14 6 -46 9 -72 3 -26 8 -62 11 -80 2 -18 7
-54 10 -80 5 -44 7 -63 20 -155 3 -21 10 -69 16 -108 5 -38 11 -81 14 -95 2
-14 7 -45 10 -70 5 -40 47 -294 61 -375 3 -16 10 -55 15 -85 6 -30 12 -71 15
-90 2 -19 7 -42 9 -50 2 -8 7 -31 10 -50 3 -19 15 -82 27 -140 11 -58 22 -116
24 -130 3 -14 14 -68 25 -120 11 -52 24 -115 29 -140 5 -25 11 -54 14 -65 11
-47 38 -172 42 -195 3 -14 12 -52 21 -85 8 -33 17 -71 20 -85 2 -14 29 -124
59 -245 31 -121 57 -227 59 -235 1 -8 9 -35 16 -60 7 -25 13 -49 15 -55 1 -5
23 -86 49 -180 26 -93 51 -183 55 -200 36 -137 293 -947 320 -1010 5 -11 29
-78 53 -150 25 -71 57 -161 72 -200 14 -38 30 -81 35 -95 8 -28 111 -297 131
-345 6 -16 13 -34 15 -40 3 -12 111 -279 129 -320 7 -16 50 -118 96 -225 45
-107 97 -226 114 -265 18 -38 46 -102 63 -141 28 -62 80 -175 184 -394 50
-104 297 -599 333 -665 18 -33 59 -109 91 -170 62 -117 104 -194 127 -235 8
-14 28 -51 46 -82 17 -32 72 -128 122 -215 50 -87 103 -178 117 -202 33 -59
218 -362 317 -521 174 -279 675 -1020 722 -1068 7 -8 18 -22 24 -33 5 -11 56
-82 113 -157 56 -75 105 -142 109 -149 4 -7 -48 -61 -135 -139 -79 -71 -145
-131 -148 -134 -3 -3 -50 -46 -105 -95 -55 -49 -105 -94 -111 -100 -6 -5 -44
-39 -84 -75 -40 -36 -78 -69 -84 -75 -6 -5 -54 -48 -106 -95 -52 -47 -97 -87
-100 -90 -3 -3 -70 -64 -150 -135 -80 -71 -147 -132 -150 -135 -3 -3 -45 -41
-94 -85 -50 -44 -97 -87 -106 -95 -9 -8 -54 -49 -100 -90 -46 -41 -94 -84
-107 -96 -12 -12 -57 -52 -100 -90 -42 -38 -81 -73 -87 -79 -6 -5 -49 -44 -95
-85 -47 -41 -97 -86 -111 -100 -29 -27 -169 -153 -203 -183 -12 -10 -35 -31
-52 -46 -16 -15 -75 -67 -130 -116 -55 -50 -107 -97 -115 -105 -19 -17 -54
-49 -190 -170 -52 -46 -104 -93 -116 -105 -12 -11 -36 -33 -55 -50 -47 -41
-433 -388 -439 -394 -3 -3 -45 -42 -95 -85 -49 -44 -95 -85 -100 -90 -6 -6
-30 -29 -55 -51 -86 -75 -214 -190 -244 -219 -17 -15 -62 -56 -100 -90 -38
-33 -80 -70 -92 -81 -116 -106 -191 -173 -208 -188 -12 -10 -55 -49 -96 -86
-41 -37 -124 -112 -185 -167 -60 -54 -112 -101 -115 -104 -3 -3 -70 -64 -150
-135 -80 -72 -150 -134 -156 -140 -6 -5 -49 -44 -95 -85 -113 -102 -288 -258
-379 -341 -41 -37 -84 -76 -96 -86 -41 -35 -177 -158 -203 -183 -14 -14 -56
-51 -92 -82 -36 -32 -83 -74 -104 -94 l-38 -35 -41 39 c-38 37 -68 64 -151
137 -56 48 -294 225 -304 225 -5 0 -11 4 -13 8 -7 18 -234 152 -393 232 -342
172 -726 297 -1065 345 -24 4 -47 8 -50 10 -3 2 -41 6 -85 10 -44 4 -82 9 -85
10 -8 5 -276 18 -365 18 -96 -1 -312 -11 -375 -19 -185 -22 -363 -54 -505 -90
-33 -8 -71 -17 -85 -20 -14 -2 -81 -23 -150 -45 -673 -220 -1246 -607 -1700
-1149 -245 -293 -449 -638 -593 -1005 -69 -176 -129 -372 -162 -525 -17 -78
-35 -174 -41 -215 -5 -27 -9 -52 -9 -55 -8 -36 -19 -132 -31 -275 -8 -88 -8
-495 0 -555 3 -25 8 -70 11 -100 9 -87 35 -262 45 -300 5 -19 11 -52 14 -72
10 -66 66 -268 112 -408 205 -612 586 -1179 1078 -1604 130 -112 364 -283 487
-355 183 -109 371 -203 529 -266 52 -20 104 -41 115 -46 28 -11 236 -78 260
-84 11 -2 65 -15 119 -30 107 -27 334 -70 431 -80 33 -4 71 -8 85 -11 40 -6
278 -17 380 -17 92 0 324 11 358 17 9 2 44 7 77 10 79 9 175 24 205 31 3 1 25
5 50 9 25 4 81 16 125 27 44 11 89 21 100 24 91 20 389 120 485 163 150 66
356 171 465 237 112 67 280 178 295 195 3 3 32 25 65 50 274 207 625 577 781
825 10 17 21 32 24 35 3 3 37 55 75 115 130 208 276 520 360 770 33 98 111
394 120 460 2 11 10 65 19 120 22 145 25 164 33 256 15 165 7 657 -11 755 -2
10 -7 42 -10 69 -38 283 -140 662 -243 895 -13 30 -28 64 -33 75 -92 217 -258
503 -411 707 l-58 77 33 28 c18 15 73 64 122 108 48 44 115 104 148 134 34 30
72 65 86 78 14 12 37 33 51 45 42 38 168 151 203 183 18 17 66 59 106 95 40
36 83 74 94 85 12 11 66 60 121 109 55 49 138 123 185 166 47 42 105 94 130
116 24 21 51 46 60 54 24 22 182 166 206 187 49 43 180 160 199 178 12 11 62
56 111 100 49 44 94 85 100 90 6 6 43 39 84 75 40 36 89 80 109 98 19 19 64
59 100 90 35 31 74 66 85 77 12 11 59 54 106 95 47 41 94 84 106 95 11 11 56
52 99 90 44 39 86 77 95 85 9 8 76 69 150 135 74 66 142 127 150 135 9 8 79
71 155 139 77 69 157 141 179 160 60 55 79 73 127 115 40 35 154 139 264 238
22 20 65 58 95 85 141 126 290 260 336 302 27 25 88 80 134 121 46 41 94 84
106 95 12 11 54 49 94 85 40 36 88 79 105 95 18 17 66 59 106 95 40 36 83 74
95 85 12 11 55 49 95 85 39 36 77 70 83 75 6 6 56 51 111 100 55 50 105 94
111 100 6 5 49 44 94 85 46 41 92 83 104 93 24 21 151 135 241 217 134 121
179 160 186 158 3 -2 66 -77 140 -168 135 -168 226 -279 258 -315 10 -11 73
-85 141 -165 68 -80 126 -147 129 -150 3 -3 40 -43 81 -90 41 -47 77 -87 80
-90 3 -3 46 -50 95 -105 50 -55 101 -112 115 -126 14 -15 79 -84 145 -155 164
-175 667 -678 849 -849 166 -155 161 -151 237 -219 30 -27 79 -72 109 -100 59
-55 193 -173 249 -222 19 -16 53 -45 75 -65 23 -20 104 -89 181 -153 156 -131
149 -126 260 -216 44 -36 86 -71 93 -78 8 -7 30 -25 50 -40 21 -15 39 -29 42
-33 8 -9 358 -280 445 -345 44 -32 82 -61 85 -64 32 -33 840 -603 957 -675 9
-5 62 -40 117 -76 921 -602 1943 -1155 2969 -1608 76 -34 140 -61 142 -61 2 0
28 -11 57 -24 29 -13 94 -41 143 -61 50 -21 104 -43 120 -50 54 -24 310 -127
320 -129 6 -2 24 -9 40 -15 57 -24 531 -199 660 -244 265 -93 788 -263 833
-272 11 -2 42 -11 68 -20 56 -19 235 -71 309 -90 28 -7 93 -25 145 -40 128
-37 631 -166 700 -180 8 -2 94 -21 190 -43 96 -22 192 -43 214 -46 21 -4 42
-8 46 -11 4 -3 25 -7 46 -10 22 -4 47 -8 56 -11 10 -3 30 -8 45 -10 15 -3 59
-12 98 -20 38 -9 84 -18 100 -21 17 -2 111 -20 210 -38 99 -19 196 -37 215
-40 19 -3 46 -7 60 -10 14 -3 39 -7 55 -9 17 -3 71 -12 120 -20 50 -8 113 -18
140 -22 28 -3 59 -8 70 -10 18 -4 35 -6 130 -19 17 -2 47 -6 68 -9 60 -9 105
-16 217 -31 99 -13 132 -17 248 -30 26 -3 61 -8 77 -10 17 -2 57 -6 90 -10 33
-3 74 -8 90 -10 17 -2 64 -7 106 -10 42 -3 85 -7 95 -9 11 -2 57 -7 104 -10
47 -4 103 -9 125 -11 50 -5 143 -12 260 -20 50 -3 113 -8 140 -10 57 -5 239
-15 364 -20 47 -2 150 -6 230 -10 119 -5 303 -10 552 -15 l27 0 -4 -822 c-2
-452 -5 -822 -7 -824 -1 -1 -43 -5 -92 -9 -50 -3 -101 -8 -115 -10 -14 -2 -52
-6 -85 -10 -33 -3 -67 -8 -75 -10 -8 -2 -37 -6 -65 -10 -65 -8 -291 -53 -332
-66 -17 -5 -44 -12 -60 -15 -47 -8 -251 -71 -368 -113 -338 -121 -600 -254
-905 -456 -222 -148 -400 -294 -596 -490 -527 -527 -864 -1141 -1013 -1845
-11 -52 -23 -113 -26 -135 -3 -23 -7 -50 -9 -61 -2 -12 -7 -45 -11 -75 -3 -30
-8 -70 -11 -89 -15 -119 -21 -475 -10 -610 12 -134 25 -246 31 -270 3 -8 7
-35 10 -60 3 -25 13 -79 21 -120 9 -41 17 -82 19 -90 3 -15 31 -119 59 -222
26 -96 105 -307 164 -438 149 -330 348 -641 586 -915 69 -80 276 -289 352
-355 28 -25 66 -58 84 -74 102 -89 492 -366 516 -366 4 0 15 -6 23 -14 58 -49
435 -231 646 -311 160 -61 486 -157 605 -178 88 -17 148 -28 170 -32 42 -9
162 -26 210 -30 25 -3 55 -6 68 -9 118 -25 752 -26 902 -2 14 3 50 7 81 11 31
3 65 7 75 9 11 2 39 7 64 10 25 3 55 8 66 10 12 2 38 7 58 10 19 3 55 10 78
15 24 6 54 12 68 15 14 2 45 9 70 15 25 7 56 14 70 17 26 6 53 14 215 64 205
64 397 141 600 241 130 64 158 79 283 154 46 28 91 55 100 60 37 22 280 193
292 205 3 3 38 32 79 64 173 138 403 364 536 527 18 21 87 107 108 134 182
230 377 577 500 890 73 186 159 480 171 581 1 17 6 35 9 40 3 5 10 45 16 89 6
44 13 91 15 105 19 121 29 276 30 455 0 137 -10 351 -19 407 -2 13 -6 46 -10
73 -73 586 -317 1180 -690 1680 -79 106 -96 127 -194 239 -156 181 -376 384
-586 543 -123 93 -365 253 -382 253 -4 0 -14 6 -22 14 -9 7 -61 37 -116 66
-55 29 -104 55 -110 58 -5 4 -12 7 -15 7 -3 1 -41 18 -85 39 -224 107 -604
239 -810 282 -79 16 -131 27 -140 28 -5 2 -35 8 -65 14 -55 11 -98 18 -175 28
-22 3 -51 7 -65 10 -14 2 -54 6 -90 10 -36 3 -81 7 -100 9 -19 2 -49 4 -67 4
l-32 1 2 828 2 827 130 1 c112 2 206 5 570 19 60 2 299 16 365 20 19 2 80 6
135 10 55 4 116 8 135 10 19 2 73 6 120 10 139 11 277 24 320 30 14 2 61 7
105 10 44 3 91 8 105 10 14 3 50 7 80 10 30 3 66 7 80 10 14 2 54 7 90 11 36
3 74 8 85 10 19 4 46 7 145 19 25 3 107 14 183 26 76 11 150 22 165 23 15 2
45 6 67 10 22 4 67 11 100 16 33 6 74 12 90 15 17 3 46 8 65 11 79 13 246 43
265 47 11 2 43 8 70 12 28 5 52 9 55 10 3 1 25 5 50 9 25 5 52 10 60 11 8 2
94 19 190 39 229 46 410 85 418 90 4 2 23 7 42 10 19 3 44 8 55 11 11 2 58 13
105 24 619 142 1410 373 2100 615 102 35 230 81 285 102 55 20 118 43 140 51
55 20 296 113 320 124 11 4 92 37 180 73 292 117 622 262 1045 457 119 55 698
345 845 424 161 85 508 278 620 343 86 50 112 65 180 104 76 43 209 123 255
153 19 12 107 67 195 121 325 199 829 536 1100 734 62 45 212 154 244 178 212
152 740 566 946 740 11 9 63 53 115 97 542 455 1151 1028 1657 1561 160 168
163 172 288 309 44 49 103 113 130 143 28 30 62 69 77 86 14 17 37 43 50 57
116 132 341 397 462 544 81 99 153 187 160 196 7 8 70 89 140 180 71 90 135
173 145 184 80 98 534 727 656 910 22 33 44 64 48 70 15 18 253 380 260 395 4
8 34 56 67 105 32 50 85 133 117 185 31 52 76 124 98 160 22 36 46 74 52 85 7
11 38 64 70 118 32 54 63 106 68 115 6 9 37 64 70 122 33 57 65 112 70 121 6
9 25 45 44 80 18 35 40 72 49 82 8 9 12 17 8 17 -4 0 1 12 12 27 10 16 26 42
34 58 8 17 33 64 56 105 98 180 184 347 342 668 94 188 170 344 170 346 0 3
25 56 55 120 30 64 100 220 156 348 56 128 107 247 114 263 8 17 30 71 50 120
21 50 43 104 50 120 33 78 184 465 195 500 7 22 16 45 20 50 4 6 10 19 13 30
3 11 19 58 37 105 156 417 476 1413 507 1579 2 14 6 28 9 33 8 12 152 572 184
713 7 28 13 57 15 65 20 83 67 291 79 350 3 14 30 149 61 300 31 151 58 291
61 310 2 19 11 67 19 105 8 39 19 102 25 140 6 39 13 81 16 95 2 14 7 41 10
60 2 19 9 58 14 85 5 28 12 70 15 95 2 25 7 56 9 70 10 55 26 168 31 210 3 25
7 52 9 60 3 8 7 42 11 75 3 33 8 71 10 85 11 70 17 118 20 150 3 39 14 131 20
170 2 14 6 54 10 90 3 36 7 81 10 100 3 19 7 64 10 100 3 36 10 101 15 145 5
44 12 121 15 170 3 50 8 108 10 130 4 38 8 90 20 285 3 47 8 114 10 150 4 57
10 171 20 395 1 33 3 89 4 125 l1 65 128 -2 c162 -2 1187 -14 1439 -17 105 -1
194 -4 197 -6 2 -3 7 -32 11 -65 3 -33 10 -85 15 -115 6 -30 12 -73 16 -95 3
-22 12 -67 19 -100 8 -33 17 -73 19 -90 3 -16 13 -55 21 -85 9 -30 18 -64 20
-75 31 -138 157 -458 259 -660 67 -132 205 -369 238 -410 5 -5 39 -51 76 -102
434 -592 1043 -1044 1732 -1288 138 -49 370 -114 455 -129 17 -2 55 -10 85
-16 30 -6 71 -13 90 -16 19 -2 42 -6 50 -9 13 -3 60 -9 170 -20 210 -22 630
-22 745 -1 11 2 47 7 80 10 114 13 330 53 435 80 536 139 1006 374 1415 705
117 96 137 113 280 256 171 169 263 277 403 474 143 198 297 472 380 672 48
117 55 133 58 144 2 6 15 41 29 78 55 148 134 456 161 627 11 74 12 83 19 140
4 30 8 66 10 78 23 142 23 639 1 758 -2 10 -7 50 -11 89 -4 38 -8 72 -10 75
-2 4 -6 26 -9 51 -7 55 -20 124 -41 214 -9 39 -18 77 -20 85 -20 98 -87 306
-150 465 -118 298 -282 589 -486 860 -70 93 -77 101 -187 225 -329 371 -796
713 -1237 905 -22 10 -59 26 -82 37 -24 11 -49 21 -55 22 -15 3 -45 14 -73 27
-113 50 -540 163 -695 184 -25 3 -61 8 -80 11 -162 23 -269 29 -530 29 -140
-1 -284 -4 -320 -9 -36 -4 -80 -9 -99 -11 -58 -7 -114 -16 -173 -26 -32 -6
-70 -12 -85 -15 -16 -2 -39 -7 -53 -10 -49 -12 -65 -15 -90 -20 -51 -10 -238
-64 -325 -94 -49 -17 -97 -33 -105 -35 -8 -2 -44 -15 -80 -30 -348 -141 -720
-361 -970 -573 -30 -26 -66 -56 -80 -67 -47 -38 -327 -320 -387 -390 -267
-313 -519 -741 -642 -1095 -13 -36 -27 -74 -32 -85 -21 -49 -96 -316 -115
-410 -2 -11 -6 -31 -10 -45 -3 -14 -7 -38 -10 -55 -3 -16 -9 -55 -14 -85 -9
-51 -15 -93 -25 -165 -7 -57 -16 -156 -20 -220 -2 -35 -5 -68 -8 -72 -3 -5
-90 -8 -194 -7 -410 5 -1314 16 -1420 17 -61 1 -114 4 -116 7 -3 3 -8 190 -12
415 -3 226 -8 439 -10 475 -2 36 -6 135 -10 220 -3 85 -8 180 -10 210 -2 30
-7 98 -10 150 -13 206 -15 237 -20 280 -2 25 -7 81 -10 125 -3 44 -7 91 -10
105 -2 14 -6 66 -10 115 -3 50 -8 97 -10 105 -2 8 -7 51 -10 94 -4 43 -8 86
-10 95 -1 9 -6 50 -10 91 -4 41 -9 83 -10 92 -2 9 -6 43 -10 75 -3 32 -8 74
-11 93 -3 19 -7 49 -9 65 -10 82 -17 132 -21 155 -2 14 -6 45 -10 70 -3 25 -7
56 -10 70 -2 14 -7 45 -9 70 -3 25 -8 56 -10 70 -3 14 -8 42 -11 64 -3 21 -7
47 -9 56 -2 10 -7 40 -11 67 -3 26 -8 57 -10 68 -6 27 -13 73 -19 110 -2 17
-9 57 -15 90 -19 104 -32 179 -35 200 -2 11 -11 56 -20 100 -9 44 -20 103 -25
130 -12 65 -18 94 -36 180 -9 38 -18 81 -20 95 -3 14 -14 66 -25 115 -11 50
-22 101 -25 115 -8 42 -93 399 -120 505 -13 55 -26 107 -28 115 -23 93 -99
374 -156 570 -39 135 -72 252 -75 260 -3 14 -22 75 -100 320 -72 231 -200 602
-280 820 -30 81 -55 150 -55 154 0 3 -8 25 -19 49 -10 23 -69 169 -130 324
-115 290 -263 644 -332 791 -21 46 -39 85 -39 87 0 4 -19 45 -143 310 -61 131
-347 703 -415 830 -63 119 -140 261 -165 305 -11 19 -33 60 -50 90 -188 348
-526 901 -817 1339 -85 129 -159 241 -165 250 -5 8 -13 20 -18 25 -4 6 -67 97
-140 201 -73 105 -148 212 -167 238 -42 57 -116 158 -127 172 -5 6 -48 64 -97
130 -296 398 -723 920 -1091 1334 -49 55 -228 252 -260 287 -11 11 -72 77
-136 145 -64 68 -156 164 -204 213 l-86 90 2862 2862 2862 2862 101 -82 c413
-336 887 -574 1405 -707 122 -31 354 -74 456 -84 33 -4 67 -8 75 -10 27 -7
272 -18 380 -17 103 0 328 11 359 17 9 1 43 6 76 9 33 4 71 9 85 11 30 5 70
12 125 20 197 31 540 132 765 227 162 68 410 196 477 245 17 12 35 23 38 23
15 0 291 195 371 262 200 168 422 389 525 523 13 17 26 32 29 35 13 10 129
168 187 255 188 278 376 675 460 970 3 10 40 145 48 175 3 8 18 80 35 160 29
142 33 168 46 280 3 30 7 66 9 79 21 129 21 638 1 748 -2 10 -7 45 -10 78 -7
57 -9 75 -21 148 -3 17 -8 46 -11 62 -4 24 -54 245 -69 305 -9 34 -56 181 -83
260 -124 353 -309 692 -546 1000 -80 104 -91 117 -195 234 -288 323 -678 616
-1093 823 -354 175 -789 305 -1168 348 -30 3 -66 8 -80 10 -133 20 -619 21
-727 1 -10 -2 -49 -7 -88 -10 -38 -4 -77 -9 -85 -11 -8 -2 -33 -6 -55 -10 -77
-11 -97 -15 -170 -29 -24 -5 -184 -44 -205 -51 -8 -2 -53 -15 -100 -29 -116
-34 -263 -86 -275 -97 -5 -5 -15 -9 -22 -9 -40 0 -377 -168 -558 -277 -540
-328 -1025 -844 -1316 -1401 -28 -53 -54 -101 -58 -107 -4 -5 -31 -66 -60
-135 -29 -69 -57 -134 -62 -145 -46 -107 -157 -472 -149 -487 1 -2 -3 -15 -8
-29 -6 -14 -13 -41 -16 -60 -3 -19 -8 -45 -11 -59 -15 -74 -31 -180 -39 -255
-3 -22 -7 -60 -10 -85 -22 -181 -22 -550 0 -720 2 -19 7 -60 10 -90 14 -146
68 -404 128 -609 64 -218 196 -530 305 -721 24 -41 52 -91 63 -110 21 -35 115
-178 158 -240 14 -19 68 -89 121 -156 l97 -121 -2863 -2863 -2863 -2863 -107
104 c-148 142 -330 313 -391 366 -12 10 -61 54 -110 99 -49 45 -107 96 -129
115 -54 46 -206 178 -227 198 -9 9 -23 21 -30 26 -7 6 -53 44 -103 86 -925
779 -1951 1498 -3005 2106 -125 72 -158 90 -247 139 -37 20 -72 40 -78 44 -5
4 -59 33 -120 65 -60 32 -114 61 -120 65 -18 13 -256 136 -510 263 -226 113
-324 161 -495 240 -30 14 -95 44 -145 67 -149 69 -408 182 -605 264 -102 42
-194 81 -205 86 -191 90 -1292 484 -1625 582 -30 9 -86 26 -125 38 -38 12 -99
30 -135 40 -36 11 -112 33 -170 50 -104 30 -391 109 -420 115 -8 2 -64 17
-125 33 -108 29 -336 86 -385 96 -14 2 -102 23 -196 45 -94 22 -184 43 -200
45 -16 3 -60 13 -99 21 -59 13 -123 26 -250 51 -11 2 -31 6 -45 9 -44 9 -194
38 -215 41 -11 2 -56 10 -100 18 -44 8 -96 17 -115 21 -19 3 -57 10 -85 15
-54 10 -68 12 -225 36 -58 8 -114 17 -125 19 -76 12 -94 15 -130 20 -22 3
-101 14 -175 25 -74 10 -162 22 -195 25 -33 3 -71 8 -85 10 -14 3 -47 7 -75
10 -27 3 -63 8 -80 10 -16 2 -57 7 -90 10 -33 3 -73 8 -90 10 -16 2 -61 6
-100 10 -38 3 -83 8 -100 10 -16 2 -66 7 -110 10 -44 4 -96 8 -115 10 -19 2
-75 7 -125 10 -49 4 -103 8 -120 10 -16 2 -82 6 -145 10 -63 4 -140 9 -170 11
-153 10 -454 23 -720 30 -118 3 -217 7 -219 9 -4 5 -6 98 -16 900 -3 270 -7
541 -8 603 -2 70 1 112 8 113 58 4 214 19 245 24 14 2 48 6 75 10 101 12 119
15 195 30 14 3 39 8 55 11 17 3 59 12 95 20 36 9 74 17 85 20 11 2 61 15 110
29 50 14 100 28 112 31 25 5 240 79 288 99 351 144 576 262 820 426 296 200
529 406 796 704 85 96 349 459 349 481 0 3 8 18 19 32 23 34 73 124 128 232
37 71 66 138 153 345 36 86 130 395 144 475 2 14 11 59 19 100 14 68 26 138
42 255 27 187 27 775 0 858 -2 7 -6 35 -9 62 -32 270 -141 657 -264 930 -104
233 -245 479 -380 664 -504 693 -1191 1189 -2026 1462 -81 27 -158 51 -170 54
-11 2 -46 11 -77 19 -72 20 -276 63 -359 77 -36 5 -76 12 -90 14 -28 5 -80 11
-160 20 -30 3 -71 8 -90 11 -39 5 -616 15 -621 10z"/>
<path d="M44442 15132 l-172 -177 249 -245 c137 -135 480 -473 763 -751 282
-279 596 -589 698 -689 102 -100 421 -415 710 -700 289 -284 608 -599 710
-700 102 -100 387 -381 633 -624 246 -242 553 -544 681 -671 598 -588 1273
-1254 1312 -1294 l44 -44 -48 -56 c-27 -31 -62 -74 -78 -96 -16 -22 -31 -42
-35 -45 -14 -13 -144 -207 -203 -305 -230 -379 -414 -880 -471 -1280 -3 -22
-8 -51 -10 -65 -3 -14 -7 -45 -10 -70 -3 -25 -8 -61 -10 -80 -23 -183 -24
-625 -1 -760 2 -14 7 -52 10 -85 3 -33 8 -69 10 -80 2 -11 7 -40 10 -65 23
-151 108 -484 156 -610 12 -30 28 -75 37 -100 8 -25 23 -63 33 -85 10 -22 28
-62 40 -90 413 -938 1227 -1672 2214 -1996 65 -22 128 -41 140 -44 11 -2 57
-14 101 -25 84 -22 242 -55 310 -65 22 -3 54 -8 70 -10 31 -6 77 -10 210 -23
161 -14 583 -7 730 12 17 3 50 7 75 10 25 3 59 8 75 11 17 3 46 8 65 11 66 11
85 15 175 35 96 21 262 68 335 94 25 9 52 18 60 20 46 9 275 107 414 176 496
247 894 569 1251 1013 22 28 47 60 55 72 8 12 48 68 88 125 41 57 90 133 110
167 20 35 44 76 53 90 131 220 316 675 363 897 2 6 8 28 14 50 6 22 20 87 31
145 27 143 30 157 36 220 4 30 8 62 10 70 20 76 27 588 12 750 -5 47 -10 101
-12 120 -2 19 -8 67 -15 105 -15 96 -18 112 -30 175 -6 30 -13 66 -16 80 -8
40 -75 293 -84 315 -4 11 -16 43 -25 70 -155 459 -428 923 -750 1274 -380 415
-826 728 -1335 936 -181 74 -419 148 -595 186 -33 7 -62 13 -65 14 -3 0 -27 5
-55 10 -27 4 -57 10 -65 11 -8 2 -37 6 -64 9 -27 4 -58 9 -70 11 -76 15 -289
27 -461 27 -144 0 -383 -11 -394 -17 -3 -2 -37 -7 -74 -11 -37 -3 -76 -8 -86
-10 -10 -2 -34 -6 -52 -9 -19 -3 -70 -12 -114 -21 -44 -9 -91 -18 -105 -21
-14 -3 -43 -10 -65 -16 -22 -5 -47 -12 -55 -14 -159 -37 -597 -200 -634 -235
-6 -5 -15 -9 -21 -9 -10 0 -79 -36 -230 -119 -37 -20 -58 -34 -205 -129 -63
-42 -117 -78 -120 -82 -3 -3 -21 -17 -40 -30 -19 -13 -81 -62 -138 -108 -57
-46 -106 -81 -109 -78 -27 27 -1056 1041 -1193 1176 -96 95 -416 410 -710 700
-294 290 -609 601 -700 690 -91 89 -389 383 -663 654 -274 270 -589 580 -700
690 -111 109 -431 424 -710 700 -280 275 -590 581 -690 679 -100 98 -236 232
-303 298 -66 65 -123 119 -125 119 -2 0 -82 -80 -177 -178z"/>
</g>
</svg>
