<?xml version="1.0" encoding="utf-8"?>
<!-- Generator: Adobe Illustrator 23.0.2, SVG Export Plug-In . SVG Version: 6.00 Build 0)  -->
<svg version="1.1" id="Layer_1" xmlns="http://www.w3.org/2000/svg" xmlns:xlink="http://www.w3.org/1999/xlink" x="0px" y="0px"
	 viewBox="0 0 238.2 251.2" style="enable-background:new 0 0 238.2 251.2;" xml:space="preserve">
<style type="text/css">
	.st0{fill:#E2F0F2;}
	.st1{fill:#34525D;}
	.st2{fill:#C0D1D4;}
	.st3{fill:#FBD799;}
	.st4{fill:#412F18;}
	.st5{fill:#2F4B56;}
	.st6{fill:#E4C38A;}
	.st7{fill:#425B64;}
	.st8{fill:#FEFEFE;}
	.st9{fill:#EAC688;}
</style>
<title>1</title>
<path class="st0" d="M73.4,226c-10.2,2.6-14.9-5.2-19.8-11.3C40.9,198.8,30,181.6,21,163.3c-6.7-13.6-7.9-27.4,2.4-40.1
	c6.9-8.5,9.2-18.5,10.6-28.9c1.4-9.8,2.5-19.7,5.5-29.2s9.8-16,18.1-21c11.1-6.6,23.5-9.5,35.8-13c12.6-3.6,25.4-6.4,38.5-6.7
	c15.6-0.4,30.4,3.2,43.2,13.2c14.7,11.6,24.6,26.6,33.3,42.7c5.6,10.5,11.1,21,16,31.9c7.8,17.5,4.4,33-5.2,48.5
	c-5.7,9.2-9.8,19.4-6.1,30.6c0.9,2.8,2.5,5.4,3.6,8.1c4.4,10.6,0.6,17.6-10.6,19.6c-11.8,2-23.8,2.3-35.7,2.1
	c2-15.1,0.5-30.4-4.3-44.8c-3.9-11.7-10.8-20.4-22.9-24.5c-7.1-2.4-14-5.2-21-7.9c-0.1-1.9,1-2.4,2.7-2.8c8.5-2,10.7-8.3,5.1-15.3
	c-1-1.2-1.5-2-0.7-3.3c4.8-7.9,5.2-16.6,4.9-25.4c1.8-0.2,1.9-1.5,1.8-2.9c-0.3-4.9-1.1-9.6-3.5-13.9c-2.1-4.1-6.3-6.7-10.9-6.9
	c-2.8-0.2-5.6-0.8-8.2-1.8C99.3,66.7,88.8,72,84,86.1c-1.2,4-2,8.1-2.6,12.2c-0.3,1.5-0.1,2.7,1.7,2.9c0.4,3.6,0.3,7.3,1.4,10.7
	c1.8,6.1,3,12.9,9.5,16.3l0,0c-0.5,2,1.2,2.7,2.2,3.9c-0.4,4-0.8,7.9-1.2,11.9c-7.8,2.1-15.5,4.9-22.8,8.3
	c-7.2,3.3-11.9,8.8-13.1,16.8c-1.3,4.2-1.3,8.8,0,13c0.7,7,3.3,13.6,7.5,19.2c3.2,4.3,6,8.6,6.3,14.1l0.2,3.7L73.4,226z"/>
<path class="st1" d="M73.4,226l-0.2-6.9c1.7-0.9,0.1-3.2,1.6-4.3c8.2,9.7,19.7,10,26.5,1.9c3.6-4.3,6.8-9.3,8-15.1
	c0.5-2.3,2.5-4.5,0.5-7c-1.3,4.3-3,8.4-5.2,12.3c-6.1,11.6-19.9,16.4-29.1,5.3c-0.6-0.7-0.8-2.2-2.6-1.8v5
	c-0.3-5.5-3.1-9.8-6.3-14.1c-4.2-5.6-6.8-12.2-7.5-19.2c1.5-4.2,1.5-8.8,0-13c1.2-8.1,5.9-13.5,13.1-16.9c7.4-3.4,15-6.2,22.9-8.3
	c3.2,4.7,8.5,1.1,12.4,3c5.7,2.8,10.5,1.1,14.8-3c7,2.6,13.9,5.5,21,7.9c12.1,4.1,19,12.8,22.9,24.5c4.8,14.4,6.2,29.7,4.3,44.8
	c-0.1,4.1-2,5.7-6.2,5.2c-3.6-0.3-7.3-0.3-10.9,0c-3.2,0.2-5-1-5.3-4.2c-0.4-2.4-0.1-5-2-7c0.4-1.3,0.4-2.6,0-3.9
	c0.1-0.9,0.1-1.8-0.8-2.1c-1.5-0.5-0.9,0.9-1,1.4c-0.4,5.2-0.8,10.4-1.2,15.6L73.4,226z"/>
<path class="st2" d="M143.1,226.1c0.4-5.2,0.8-10.4,1.2-15.6c0-0.6-0.5-1.9,1-1.4c0.9,0.3,0.9,1.2,0.8,2.1c-1.1,0.9-1.2,2.5-0.3,3.6
	c0.1,0.1,0.2,0.2,0.3,0.3c1.9,2,1.6,4.6,2,7C143.3,219.7,145.1,225.3,143.1,226.1z"/>
<path class="st3" d="M122.2,143.9c-4.3,4-9.1,5.7-14.8,3c-3.9-1.9-9.1,1.8-12.4-3c0.4-4,0.8-7.9,1.2-11.9c1.4-2.5-0.9-2.9-2.2-3.9
	l0,0c0.2-1.9-1.2-3.1-2.1-4.3c-3.9-4.9-4.8-10.7-5.9-16.5c-0.6-3.4,0.5-4.2,3.7-4.4c3.6-0.2,7.4-0.7,10.5-2.3
	c3.6-1.9,9.3-1.5,9.8-7.6l1.4-2c1.4,2.1-0.7,3.7,0,5.6c4.2-0.9,7.2-3.5,9.5-7.5c3.3,5.2,8.1,6.8,13.2,8c0.3,8.9-0.1,17.6-4.9,25.4
	c-0.8,1.4-0.3,2.1,0.7,3.3c5.6,6.9,3.4,13.3-5.1,15.3C123.2,141.5,122.1,142,122.2,143.9z M106.1,133.1c1.3-1.2,2.3-2.4,1.4-4.6
	C105.7,129.9,106.2,131.6,106.1,133.1c-0.4,0.4-1.3,0.6-0.4,1.3L106.1,133.1z M112.1,125.1c3.3,0.2,5.4-2.2,8.7-3.9
	C116.5,120.9,113.8,122.1,112.1,125.1c-0.8,0.1-1.6,0.1-1.6,1.2c0,0.2,0.2,0.3,0.3,0.3C112,126.7,112,125.9,112.1,125.1z
	 M98.8,132.5c-0.1,0.3-0.4,0.6-0.3,0.8s0.5,0.3,0.8,0.4c0.1-0.3,0.4-0.6,0.3-0.8S99.1,132.6,98.8,132.5L98.8,132.5z"/>
<path class="st4" d="M134.2,97.1c-5.1-1.1-9.9-2.7-13.2-8c-2.3,4.1-5.3,6.6-9.5,7.5c-0.8-1.9,1.3-3.5,0-5.6l-1.4,2.1
	c-7.9,6.5-17.4,7.2-27,8.1c-1.9-0.2-2-1.4-1.7-2.9c0.6-4.1,1.4-8.2,2.6-12.2c4.8-14.1,15.3-19.4,29.4-14.5c2.6,1,5.4,1.6,8.2,1.8
	c4.6,0.2,8.8,2.8,10.9,6.9c2.5,4.3,3.3,9,3.5,13.9C136.1,95.6,136.1,96.9,134.2,97.1z"/>
<path class="st5" d="M73,215.3v-5c1.7-0.4,2,1.1,2.6,1.8c9.2,11.1,23,6.4,29.1-5.3c2.2-3.9,4-8,5.2-12.3c2,2.6,0,4.8-0.5,7
	c-1.2,5.8-4.4,10.7-8,15.1c-6.8,8.1-18.3,7.9-26.5-1.9c-1.6,1,0.1,3.3-1.6,4.3L73,215.3z"/>
<path class="st6" d="M83.1,101.2c9.5-0.8,19.1-1.6,27-8.1c-0.5,6-6.2,5.7-9.8,7.6c-3.1,1.6-7,2.1-10.5,2.3c-3.3,0.2-4.4,1-3.7,4.4
	c1.1,5.9,1.9,11.7,5.9,16.5c1,1.2,2.4,2.4,2.1,4.3c-6.5-3.5-7.7-10.2-9.5-16.3C83.4,108.5,83.5,104.8,83.1,101.2z"/>
<path class="st7" d="M59.1,169.1c1.5,4.2,1.5,8.8,0,13C57.8,177.9,57.8,173.3,59.1,169.1z"/>
<path class="st6" d="M94,128.2c1.3,1,3.6,1.4,2.2,3.9C95.2,130.9,93.4,130.2,94,128.2z"/>
<path class="st8" d="M146,215.1c-1.1-0.9-1.2-2.5-0.3-3.6c0.1-0.1,0.2-0.2,0.3-0.3C146.4,212.5,146.4,213.8,146,215.1z"/>
<path class="st9" d="M112.1,125.1c1.8-3,4.5-4.2,8.8-3.9C117.5,122.9,115.4,125.3,112.1,125.1L112.1,125.1z"/>
<path class="st9" d="M106.1,133.1c0.1-1.5-0.4-3.2,1.4-4.6C108.4,130.7,107.3,131.9,106.1,133.1L106.1,133.1z"/>
<path class="st9" d="M112.1,125.1c-0.1,0.7-0.1,1.6-1.2,1.5c-0.2,0-0.3-0.2-0.3-0.3C110.5,125.2,111.3,125.2,112.1,125.1
	L112.1,125.1z"/>
<path class="st6" d="M98.8,132.5c0.3,0.1,0.7,0.2,0.8,0.4s-0.2,0.5-0.3,0.8c-0.3-0.1-0.7-0.2-0.8-0.4S98.7,132.8,98.8,132.5z"/>
<path class="st6" d="M106.1,133.1l-0.4,1.3C104.8,133.7,105.7,133.5,106.1,133.1L106.1,133.1z"/>
</svg>
