<svg id="Layer_1" data-name="Layer 1" xmlns="http://www.w3.org/2000/svg" viewBox="0 0 227.46 118.33">
  <defs>
    <style>
      .cls-1 {
        fill: #56a9e7;
      }

      .cls-2 {
        fill: #a1e3fc;
      }

      .cls-3 {
        fill: #a2e3fc;
      }

      .cls-4 {
        fill: #ce3b40;
      }

      .cls-5 {
        fill: #b3ebfb;
      }

      .cls-6 {
        fill: #a2e3fb;
      }

      .cls-7 {
        fill: #b5ecfa;
      }

      .cls-8 {
        fill: #5db5f0;
      }

      .cls-9 {
        fill: #a2e1f8;
      }

      .cls-10 {
        fill: #4fa2e3;
      }

      .cls-11 {
        fill: #d7e7e4;
      }

      .cls-12 {
        fill: #90d5f2;
      }

      .cls-13 {
        fill: #d94849;
      }

      .cls-14 {
        fill: #4ea1e1;
      }

      .cls-15 {
        fill: #b9e9fc;
      }

      .cls-16 {
        fill: #cd3c41;
      }

      .cls-17 {
        fill: #b6ecf9;
      }

      .cls-18 {
        fill: #bb6e91;
      }

      .cls-19 {
        fill: #e25143;
      }

      .cls-20 {
        fill: #beced1;
      }

      .cls-21 {
        fill: #c34245;
      }

      .cls-22 {
        fill: #76c6f2;
      }

      .cls-23 {
        fill: #cc3e42;
      }

      .cls-24 {
        fill: #7ccdf8;
      }

      .cls-25 {
        fill: #b6ecfa;
      }

      .cls-26 {
        fill: #a3e4fa;
      }

      .cls-27 {
        fill: #d8f9f8;
      }

      .cls-28 {
        fill: #b1c5cc;
      }

      .cls-29 {
        fill: #d1f4f7;
      }

      .cls-30 {
        fill: #b05e83;
      }

      .cls-31 {
        fill: #ce3e45;
      }

      .cls-32 {
        fill: #bd3c3b;
      }

      .cls-33 {
        fill: #a04a72;
      }

      .cls-34 {
        fill: #bfafc0;
      }

      .cls-35 {
        fill: #ae6f8c;
      }

      .cls-36 {
        fill: #a5597d;
      }

      .cls-37 {
        fill: #b5ebfa;
      }

      .cls-38 {
        fill: #b4ebfa;
      }

      .cls-39 {
        fill: #d34446;
      }

      .cls-40 {
        fill: #b16187;
      }

      .cls-41 {
        fill: #af5e83;
      }

      .cls-42 {
        fill: #a16e93;
      }

      .cls-43 {
        fill: #b72e33;
      }

      .cls-44 {
        fill: #b1b4b8;
      }

      .cls-45 {
        fill: #a25b84;
      }

      .cls-46 {
        fill: #d1dbdd;
      }

      .cls-47 {
        fill: #a67092;
      }

      .cls-48 {
        fill: #b22930;
      }

      .cls-49 {
        fill: #f9fcfb;
      }

      .cls-50 {
        fill: #b0262b;
      }

      .cls-51 {
        fill: #5aafec;
      }

      .cls-52 {
        fill: #c9484a;
      }

      .cls-53 {
        fill: #b2a2aa;
      }

      .cls-54 {
        fill: #b26086;
      }

      .cls-55 {
        fill: #b22328;
      }
    </style>
  </defs>
  <title>clean</title>
  <g>
    <path class="cls-1" d="M180,377.89l12.11,2.78c.17.29.41.65.31.92-2.58,7-2.23,14-.36,21L180,403.89Z" transform="translate(-180 -361.55)"/>
    <path class="cls-2" d="M314.56,424.92c-2.62-.84-2.32-3.88-4.3-5.5-4.55,4-9.65,6.14-15.76,3.27-5.34-2.51-7.86-6.67-6.25-12.58,1.12-4.12-.15-6.68-2.82-9.27-2.14-2.08-4.12-4.35-6.3-6.39-2-1.84-3.43-3.3-1.64-6.42,1-1.69-.2-4.55,2.61-5.59l-2-.91,0-.63c4.74.52,9.47,1.06,14.21,1.55,3.29.34,5.75.76,8.86-2.64,3.3-3.61,9.73-6.93,14.16-6.25s8.28-.19,12.45-.59c7.59-.72,11,2.43,12,9.89.08.59-.32,1.87.33,1.66,6-2,8.08,6.16,14.85,4.84,8.88-1.74,15.68,9.64,12,18.44-1.19,2.84-2.23,4.62,1.82,6.11,3.82,1.41,4.05,4.84,2.3,8.33-2,1.66-3.83,1.61-5.51-.57C362,417,357.67,416,352.51,419a3.69,3.69,0,0,1-4.2-.36c-1.58-3.13-5-3.12-7.64-4.5-.61-.56-1-1.34-1.63-1.88-1-.83-2.14-1.28-2.93.08-.67,1.15.35,1.78,1.24,2.29.71.4,1.51.7,1.89,1.52-1.39,3-3.54,5.05-7,5-2.72,0-4.41,1.78-6.41,3.09-.47.13-1.13.29-1.4,0-3.27-3.66-6.06-3.07-8.6.83C315.56,425.44,314.94,425.32,314.56,424.92Z" transform="translate(-180 -361.55)"/>
    <path class="cls-3" d="M371,423.71c8.62,1.08,11.63,7.29,6.86,14.37a6.7,6.7,0,0,0-1.33,5.4c.68,4.3-1.72,7.33-6,8.41-2.58.65-3.81,2.06-4.55,4.6-2.07,7.11-9.1,12.13-16.89,12.41-10.48.38-16.09-2.7-19.21-10.77-.79-2.06-1.59-3.19-4.15-3.28-7-.27-9.68-3.75-8.56-10.85.25-1.59.62-2.28-1.25-3.39-5.3-3.16-5.47-6.77-1.13-11.81,3.16.83,5.84,2.8,8.93,3.8a5.58,5.58,0,0,1,1.9,4.37c0,8.09,3.52,11.68,11.52,12a6,6,0,0,1,4,2.9,4.28,4.28,0,0,0,5.78,1.93c2.45-.94,4.73-.94,6.34,1.55a.51.51,0,0,1-.5.52c.54.22.46-.53.88-.57,8.65-.9,10.44-3.1,9.62-12.07-.23-2.44,1.48-4.35,1.48-6.69.13-1.89.89-3.66,1-5.56-.5-2.71,3.42-4,2.32-7.06C367.86,423.49,369.88,423,371,423.71Z" transform="translate(-180 -361.55)"/>
    <path class="cls-4" d="M223.85,404.45c-3.8-4.13-8.3-4.3-13.45-2.92-3.62,1-7.48,1-11.24,1.46-2.63.86-4.28-.64-5.09-2.7a21.31,21.31,0,0,1,.52-17.79c.66-1.33,1.57-2.68,3.47-1.64,3.43.58,6.86,1.19,10.3,1.71,4.89.75,9.48,1.05,14.4-1.35,6.19-3,12.92-2,19.23.83,3.56,1.5,5.1,5,7.59,7.59a2.35,2.35,0,0,1,.14,3.2c-1.6,2.17-3.78,2.44-6.21,1.82-2.41-.44-3.76-3.84-6.83-2.42C232.33,396.25,228.94,401.25,223.85,404.45Z" transform="translate(-180 -361.55)"/>
    <path class="cls-5" d="M389,437c2.19-7.63.72-13.69-7.26-17-.59-.25-1.34-.42-1.05-1.33,1.56-4.83-3.35-7.52-3.84-11.66,2-2.15,4.23-2,6.08,0a6.62,6.62,0,0,0,6.23,2.22,3.93,3.93,0,0,1,3.29.94c3.19,3.53,7.88,6.26,9.25,10.72,1.3,4.23.25,9.12-2.14,13.29-2.15-.72-2.46.88-2.88,2.34a4.36,4.36,0,0,1-3.63,2.46C391.34,439,389.81,438.71,389,437Z" transform="translate(-180 -361.55)"/>
    <path class="cls-6" d="M399.23,433.89c.89-1,1.78-2.18.93-3.54-1.41-2.25-.66-4.06.75-5.89a3.3,3.3,0,0,0,.76-1.76c.05-2.85-10.64-12.78-13.54-12.22-1.95.37-3.34.07-4.35-1.38-1.81-2.58-4.18-2.84-6.93-2.11-1.11-.17-2.85.13-3-1.18-.14-1.57,1.64-1.77,2.86-1.86s3.17-.36,3.85.35c3.75,3.95,8.32,2.58,12.78,2.56,7.5,0,11.61,5,10.41,12.37-.1.63-.67,1.65-.47,1.82,4.39,3.59,1.06,9,3.28,13.41,2.85,5.73-1.55,9.9-10.51,11.32a1.94,1.94,0,0,1-.59-1.16c.26-2.71-2.82-4-2.85-6.57a3.69,3.69,0,0,0,3.45-2.38C397,434.88,397.81,433.82,399.23,433.89Z" transform="translate(-180 -361.55)"/>
    <path class="cls-7" d="M311.77,457.86c3.5,4.91-1.62,7.5-3.3,10.73-1.43,2.76-4.66.85-7.26.9-10.06.16-8.49-8.36-11-13.55a5.52,5.52,0,0,1,3.18-7.48c3.2-1.31,6.56-1.28,8.71,2.3,1.89.94,1,3.28,2.28,4.51a9.39,9.39,0,0,0,3.07,2C308.81,457.88,310.38,457.24,311.77,457.86Z" transform="translate(-180 -361.55)"/>
    <path class="cls-8" d="M234.11,467c-3,4.44-6.69,5.85-11.77,3.19-3-1.59-6.58-2.15-9.41-4.29,2.07-1.91,2.72-4.28,2.73-7.08a39.57,39.57,0,0,1,1.76-11.66,2.77,2.77,0,0,1,3.54-.89c4.52,2.21,9.72,3.09,13.5,6.78,1.58,3.71-.52,6.61-2.2,9.57-1,1.7-2,3.34-3,5.05C231,468,232.05,464,234.11,467Z" transform="translate(-180 -361.55)"/>
    <path class="cls-9" d="M375.84,373c2.33,5.58-2.32,9.92-2.75,15-.1,1.16-1.78,1.89-3.27,1.78-2-.14-1.58-1.68-1.78-2.95-1-6.34-6.34-9.34-12.45-6.71a5.55,5.55,0,0,1-6.42-.92c-1.77-1.53-1.53-3.74-.86-5.57.87-2.37,3.28-4.18,5.45-3.53,4.61,1.39,6.5-1.88,9.13-4.12,2.41,1.69.56,4.34,1.45,6.37,2.77,2.31,5.51,4.75,8.87.85A2.74,2.74,0,0,1,375.84,373Z" transform="translate(-180 -361.55)"/>
    <path class="cls-10" d="M218.12,446.62c.18,5.39-1.72,10.63-1.12,16,.35,3.22-1.79,3.32-4.07,3.26a23.77,23.77,0,0,1-2.74-1c-7.87-4.17-8.41-5.28-6.33-14,.74-3.14,1.13-6.43,3.1-9.17A12.66,12.66,0,0,1,218.12,446.62Z" transform="translate(-180 -361.55)"/>
    <path class="cls-11" d="M232,375.81c-3.44-1-2.17-2.77-.07-3.24,10-2.26,20-3.43,29.14,3a17.8,17.8,0,0,0,4.82,2.49c1.27.41,2.61,1.14,2.4,2.74-.24,1.85-1.7,2.22-3.36,2.15s-3.33,0-5,0c-1.84,1.34-4.23,2.07-5.08,4.53a4.77,4.77,0,0,1-3.25,1.15c-4.08-1-7.21-2.71-6.31-7.8a4.28,4.28,0,0,0-3.22-5C238.84,374.74,235.38,374,232,375.81Z" transform="translate(-180 -361.55)"/>
    <path class="cls-12" d="M207.91,437.88q4.58-11,9.14-21.91c3-2,5.49-.65,7.93,1.15,1.08,4.77-1.46,8.45-3.66,12.24-1.57,1.86.15,3.65.13,5.48-1.41,3.3-.52,8-5.62,9-2.4-.08-4.3-1.53-6.38-2.42C208,440.81,207.05,439.65,207.91,437.88Z" transform="translate(-180 -361.55)"/>
    <path class="cls-13" d="M371,423.71c-2.69.64-2.73.67-1.36,2.56.56.76,1.22,1.33-.42,1.2-2.81-.23-1.27,2.42-2.26,3.39-.67,1.21-.83,2.89-2.71,3-3.71,0-6.9-2.1-10.55-2.49-1.71-.19-2.68-2-2.9-3.68A19.39,19.39,0,0,0,348.3,421c-1.35-1.07-3-2.14-.25-3.5,1.6.49,2.6,1.64,4.78-.26,3.37-2.95,10.55-1.46,13.34,2.67,1.52,2.23,2.95,2.27,4.93,2.32C371.08,422.73,371.05,423.22,371,423.71Z" transform="translate(-180 -361.55)"/>
    <path class="cls-6" d="M292.41,439.79c-2.69-3-6.37-.63-9.82-.85a6.61,6.61,0,0,1-6.3-4.8c-.88-3.05-.85-6.3,1.24-9.05.9-1.18,1.79-1.31,2.5.36,1.52,3.58,4.55,4.37,8.12,4.51,4.1.16,6.4,5.2,11.05,4.34.56-.1.55,1.09.12,1.62C297.63,437.94,296.14,440.33,292.41,439.79Z" transform="translate(-180 -361.55)"/>
    <path class="cls-14" d="M223.85,404.45a88.39,88.39,0,0,1,12.25-13.4c2.77-.48,4.43,1.36,6.19,3-7.29,3.78-9.46,11.36-13.13,17.81-1.13,2-1.64,4.48-4.53,4.77-2.06-1.36-6.3-.09-5.63-4.7Z" transform="translate(-180 -361.55)"/>
    <path class="cls-15" d="M247,427.9c2.24,4.69-.46,9.06-1.21,13.45a40,40,0,0,1-4.83,13.47c-2.89.73-4.36-1-5.54-3.22,1.92-8.45,4-16.84,6.62-25.13C244.1,425.48,245.79,425.8,247,427.9Z" transform="translate(-180 -361.55)"/>
    <path class="cls-16" d="M251.1,396.75c5.13.68,3.85,4,3.16,7.3-.86,4.15-6.4,9.35-10.35,9.36-2.42-.45-2.75-2-2.21-4.09.73-2.77.45-5.57.3-8.38-.12-3.49,1.71-5.12,5-5.34C248.51,395.57,250,395.6,251.1,396.75Z" transform="translate(-180 -361.55)"/>
    <path class="cls-17" d="M382.36,457.32c1.9,1,3.26,2.38,2.16,4.05-1.4,2.13-1.54,4.28-1.59,6.61a2.65,2.65,0,0,1-2.84,2.83c-2.11,0-3.83.37-5.09,2.32a1.92,1.92,0,0,1-2.71.27,2.19,2.19,0,0,1-1-3,14.41,14.41,0,0,0,1.78-7.64c0-.32.06-.8.27-.93C376.25,460,380.12,460.23,382.36,457.32Z" transform="translate(-180 -361.55)"/>
    <path class="cls-18" d="M392.65,438.05c1.07,2.28,5,3.17,3.3,6.79-3,.22-3.2,1.8-1.93,4.06,1,2.8-1.64,3.16-2.94,3.41-4.1.78-9.06-2.67-9.08-6.52,0-1.48,1.89-3.27,3.33-4.37,1.64-1.25,2.39-3,3.67-4.47Z" transform="translate(-180 -361.55)"/>
    <path class="cls-19" d="M198.06,380.86c-6.53,5.3-5.84,19,1.1,22.13-2.46,1.59-4.85,1.77-7.1-.41-4.59-7.32-3.82-14.62.05-21.91C194.14,379.31,196.12,379.63,198.06,380.86Z" transform="translate(-180 -361.55)"/>
    <path class="cls-20" d="M251.1,396.75l-4-.36c-1.56-.51-3.59-.08-4.34-2.19l.42-.51c1,.12,2,.29,2.94.32a3.07,3.07,0,0,0,3.19-1.85c.53-1.31-.63-2.05-1.35-2.91-2-2.38-3.95-4.8-5.92-7.2,2-2.87.94-4.34-2.13-5.4-2.6-.9-5.21-.64-7.82-.84-.08-.47-.35-1.27-.2-1.36,2.8-1.62,11.72-.27,14,2,.93.91,1.52,2.1,1.08,3.12-2.42,5.51,1.65,6.79,5.27,8.43.17,3.11,2,5.44,3.74,7.8C254.37,396.34,252.44,395.08,251.1,396.75Z" transform="translate(-180 -361.55)"/>
    <path class="cls-21" d="M322.93,432.69c-3.21-.23-6.45-.42-8.11-3.89-.09-1.29-.17-2.58-.26-3.88,2.38-5.31,5.79-5.68,10.65-1.15C328.49,426.75,327.84,429.32,322.93,432.69Z" transform="translate(-180 -361.55)"/>
    <path class="cls-22" d="M243.35,401.64c-.16,2.69.71,5.47-.81,8.06-1,1.69,0,2.81,1.37,3.71-3,4.59,2.15,7.53,2.32,11.49-3.53,1.86-5.7-.29-7.79-2.67-2.64-5.27-3.32-10.36,1.38-15C241.43,405.67,239.72,402,243.35,401.64Z" transform="translate(-180 -361.55)"/>
    <path class="cls-23" d="M375.84,373l-1.85.67c-.76-.44-.54-1.42-1.09-2-2.75,4.27-6.18,2.52-9.57,1.08-1.81-2.15,1.61-4.64-.44-6.77,1.32.86,3.3.1,3.46-.47.79-2.78,3.57-1.8,4.34-1.54,2.26.74,3.71,2.89,4.45,5.26A32.9,32.9,0,0,1,375.84,373Z" transform="translate(-180 -361.55)"/>
    <path class="cls-24" d="M234.11,467c-3.05-1-3.85,4.78-7.33,2.37,2.41-5.21,7.31-9.3,7.33-15.67,2.94-.68,4.9.53,6.12,3.17C238.33,460.35,237,464.17,234.11,467Z" transform="translate(-180 -361.55)"/>
    <path class="cls-25" d="M350.52,366.88c-3.87,1.41-7.63,2.46-11.61,2-1.36-.16-3.3.66-3.72-1.41a4.44,4.44,0,0,1,2.33-5.06c2.26-1.05,5.21-1.49,6.89.69S348.27,365.79,350.52,366.88Z" transform="translate(-180 -361.55)"/>
    <path class="cls-26" d="M350.81,479.89c-2.86-.17-4.6-1.35-4.73-3.86s2.08-2,3.62-2.11c2.12-.17,4.25.14,6.39-.53,1.19-.37,3-2.84,3.85.09a3.92,3.92,0,0,1-2.75,5.12C355,479.3,352.53,478.54,350.81,479.89Z" transform="translate(-180 -361.55)"/>
    <path class="cls-27" d="M240.23,456.89a16.35,16.35,0,0,0-6.12-3.17,100.53,100.53,0,0,0-16-7.09L207,441.71c.17-1.31-.39-2.81.95-3.83,1.11,4.15,5.23,3.58,8,5.1A53.48,53.48,0,0,1,236,451.84l5,3C240.71,455.51,240.47,456.2,240.23,456.89Z" transform="translate(-180 -361.55)"/>
    <path class="cls-28" d="M254.88,387.11c-1-4.63,2.35-4.08,5.1-4.22,0,2,0,4,0,6,1.48,2.68,1.81,5.92,3.94,8.3-3.37,4.37-4.83-.43-7.08-1.47C255.15,393.09,253.17,390.52,254.88,387.11Z" transform="translate(-180 -361.55)"/>
    <path class="cls-29" d="M238.84,422.06c2.31,1.34,4.57,2.82,7.39,2.83,1,.82.71,1.95.75,3a8.23,8.23,0,0,0-5-1c-6-2.36-12.31-4.11-17.05-8.89-2.49-1.22-5-2.41-7.9-2,.81-1.28.58-3.06,1.95-4.07.7,3.19,3.66,3.1,5.89,4.07A25.4,25.4,0,0,1,238.84,422.06Z" transform="translate(-180 -361.55)"/>
    <path class="cls-30" d="M307,458.17c-1.57,0-2.41-1-3.22-2.16-.81-2.67-.46-4.92,2.27-6.31a1.24,1.24,0,0,0,.89,0c3.53-.88,4.21,1.92,5.32,4.15l-.15,1C311.46,457.7,309.56,458.48,307,458.17Z" transform="translate(-180 -361.55)"/>
    <path class="cls-31" d="M263.93,397.2c-5.12-1-3.89-4.94-3.94-8.3C266.87,391.37,267.73,393.17,263.93,397.2Z" transform="translate(-180 -361.55)"/>
    <path class="cls-32" d="M254.88,387.11c.66,2.87,1.31,5.74,2,8.62-.3,0-.61,0-.92,0-4.29-1.14-6.16-3.44-3.74-7.8Z" transform="translate(-180 -361.55)"/>
    <path class="cls-33" d="M394,448.9c-.68-.4-2.76,2.75-2.16-.83.31-1.86.79-3.69,1.2-5.55,1.85-.23,1.61,2,2.89,2.32,0,.32.08.63.14.94C395.93,447.17,395.56,448.42,394,448.9Z" transform="translate(-180 -361.55)"/>
    <path class="cls-34" d="M306,449.7c-1.31,1.9-2.55,3.84-2.27,6.31-2.81-1-.38-3.73-1.67-5.25C303.59,451.16,304.09,447.81,306,449.7Z" transform="translate(-180 -361.55)"/>
    <path class="cls-34" d="M312.22,453.88c-1.76-1.4-2.57-4-5.33-4.15,1.21-3.38,3-.25,4.15,0C313,450.06,313,452.11,312.22,453.88Z" transform="translate(-180 -361.55)"/>
    <path class="cls-34" d="M307,458.17c2.2-.31,3.68-1.75,5.11-3.27,1.63,1.16,0,2-.3,3C310.21,458.66,308.66,459.61,307,458.17Z" transform="translate(-180 -361.55)"/>
    <path class="cls-35" d="M381.62,379.11c-.89-.19-1.55-.76-1.5-1.63a1.67,1.67,0,0,1,2-1.64,1.57,1.57,0,0,1,1.51,1.61A1.72,1.72,0,0,1,381.62,379.11Z" transform="translate(-180 -361.55)"/>
    <path class="cls-36" d="M372,411.39c-.17.87-.61,1.53-1.57,1.56a1.58,1.58,0,1,1,0-3.14C371.42,409.87,371.84,410.5,372,411.39Z" transform="translate(-180 -361.55)"/>
    <path class="cls-37" d="M322.93,432.69c1.49-2.79,5.55-4.92,2.28-8.92,1.66-2.65,3.73-4.59,7.18-3.87s4.09-3.19,6.62-4c-.64-1.59.37-1.95,1.6-2.15,2.71.78,6.68-.95,7.44,3.74-1.9,2.87,1.22,1.63,1.94,2.36.06.16.2.33.16.47-1.87,7.55.12,11.52,7.75,15,1.08.49,2.25-2,3.93-.9.52,0,.14,1.14,1,.68,2-1.12,2.15,1.22,3.23,1.81-.64,3.34-1.52,6.31-.67,10.14,1.16,5.23-5.11,10.37-12.21,8.77l-.11-.1c-2-1.1-3.74-2.08-6.32-.48s-5.07.09-6.69-2.44c1.1-3.21,4.67-1.54,6.49-3.31,4.08-1.65,3.24-4.43,1.7-7.36-2.81-2.15-5.65-3-8.6-.28a2.81,2.81,0,0,1-1.08.47c-1.23,2,.25,4.36-.69,6.43a3.79,3.79,0,0,1-.8,1.1c-7.92.78-13.63-4.84-12.52-12.75C324.82,435,323.34,434.19,322.93,432.69Z" transform="translate(-180 -361.55)"/>
    <path class="cls-38" d="M337,402.83c-2.73,4.24-5.42,8.51-8.23,12.69a3.87,3.87,0,0,1-4,1.34c-5.39-.88-11.09,2.33-16.33-1.46-.86-.62-2.89.66-4.25.39-3.55-.69-6.74-2.13-8.06-6,1.12-1,1.72-2.78,3.67-2.7,7.4-1.63,9.17-5.22,5.72-11.58-1-3.06-5-1.74-6.25-4.36.15-.62.2-1.75.45-1.79,4.93-.93,8-4.6,11.6-7.54a5.16,5.16,0,0,1,6.56,0c3.86,3,8.21,5.86,11,9.75,2.09,2.95,4.64,4.93,7.18,7.16C336.82,400,336.75,401.47,337,402.83Z" transform="translate(-180 -361.55)"/>
    <path class="cls-39" d="M300,407.8c-2.08-.84-1.77,2.93-3.89,2-.24-1.09,1.38-1.95-.22-3.38-3.48-3.11-3.5-7.11-1-10.66.65-.92,3.25-.91,1.81-3.24-.36-.58.11-.88,1.52-.05.72.43.72.43,1-1.31,2.52.65,5.08,1.19,7.53,2.05.51.17-.26,1.08-.77,1.49A41.72,41.72,0,0,1,300,407.8Z" transform="translate(-180 -361.55)"/>
    <path class="cls-40" d="M358.53,398.46a6,6,0,0,1-5.48,5.53c-2.77.34-6.09-2.58-5.89-4.9.22-2.59,1.21-7.11,5.85-6.44C356,393.09,358.91,394.37,358.53,398.46Z" transform="translate(-180 -361.55)"/>
    <path class="cls-41" d="M340.61,413.77c-.54.71-1.07,1.43-1.6,2.15-2.41.11-4.82.08-4.9-3.2a2.65,2.65,0,0,1,2.76-2.82C339.68,409.65,340.65,411.23,340.61,413.77Z" transform="translate(-180 -361.55)"/>
    <path class="cls-42" d="M337,402.83c-2.1-.9-2.46-2.23-1-4C339.19,399.42,339.69,400.72,337,402.83Z" transform="translate(-180 -361.55)"/>
    <path class="cls-43" d="M338,442a.71.71,0,0,1,.7-.21c2.58,3.58,6.31,2.63,9.84,2.53a4.12,4.12,0,0,1-1.59,5.39c-1.53,2.75-4.95,1.36-6.93,3.15.46-2.45-2.13-1.82-3-2.95l0-1C339.1,446.81,336.49,444.1,338,442Z" transform="translate(-180 -361.55)"/>
    <path class="cls-44" d="M366,436.94c-1.28-.78-3.09-.44-4-1.91-.67-2.18,1.61-1.25,2.2-2.11,1.58.2,1.61-1.7,2.79-2.06C367.57,433,365.75,434.82,366,436.94Z" transform="translate(-180 -361.55)"/>
    <path class="cls-45" d="M353.14,455.85c.41,1.35.79,2.75-1.2,3.06a1.43,1.43,0,0,1-1.76-1.35c0-2,1.52-1.8,2.86-1.81Z" transform="translate(-180 -361.55)"/>
    <path class="cls-46" d="M242,393.93l-5.91-2.88c3.84-3.08,4.57,2.09,7,2.65l-.19.21C242.64,394.3,242.33,394.3,242,393.93Z" transform="translate(-180 -361.55)"/>
    <path class="cls-47" d="M399.23,433.89a2.94,2.94,0,0,1-3.13,1.78c-.15-1.26-.8-2.74.79-3.46S398.9,432.68,399.23,433.89Z" transform="translate(-180 -361.55)"/>
    <path class="cls-48" d="M363.33,372.79c1.12-.19.91-3.25,1.81-1.85,4,6.21,5.9.53,8.85-1.26v4C369.83,377.57,367.53,377.38,363.33,372.79Z" transform="translate(-180 -361.55)"/>
    <path class="cls-3" d="M225,418c5.52,3.28,12.07,4.59,17.05,8.89-.19,8.76-3.45,16.78-6,25-7-2.32-13.44-5.72-20.05-8.86,4.45-1.44,2.45-6.51,5.05-9,5.25-1,2.75,3.41,3.83,6,2.17-3.38,5.28-3.6,9.62-3-3.25-3-5.31-5.53-3.77-9.52-3.48,2.49-6.68,5.42-10.62,1.49C223.22,426,223.17,421.57,225,418Z" transform="translate(-180 -361.55)"/>
    <path class="cls-49" d="M220,428.92c3.06,0,7,2.86,8.22-2.87.36-1.7,1.93-.33,2.94-.15,1.68.31,1.71,1.4,1,2.57-1.82,3-1.23,4.88,2.29,5.87,1.3.37,1.53,1.56.83,2.86-.61,1.13-1.4,2.13-2.7,1.44-2.85-1.53-4.82-1.25-6.08,2a2,2,0,0,1-3,.89c-1.59-.78-1.55-2-.74-3.31,1.44-2.32.74-3.68-1.83-4.27C218.64,432.68,218.8,430.9,220,428.92Z" transform="translate(-180 -361.55)"/>
    <path class="cls-50" d="M364.19,432.92c-.11,1.35-1.74,1.12-2.2,2.11-2.75-.62-3.25,1.18-3.06,4.89-1.54-2.82-1.49-4.65-3.93-5.12-4.81-.93-6.91-4.48-6.3-9.37.35-2.86-3-.6-3.33-3,2.38.64,4.22.1,4.62-2.55-.19,2.72,3.33,4.58,1.74,7.79-.25.49,1.61,2.9,2.26,2.81C357.8,429.92,360.65,432.83,364.19,432.92Z" transform="translate(-180 -361.55)"/>
    <path class="cls-51" d="M242,393.93c.31,0,.62,0,.93,0l4.11,2.48c-3,.5-5.49,1.37-3.7,5.25-2,6.68-8.4,12.42-4.51,20.42l-14-6.09c3.74-2.51,3.44-7.39,6.22-10.54a22.47,22.47,0,0,0,3.75-6.43C236.21,395.67,238.25,393.7,242,393.93Z" transform="translate(-180 -361.55)"/>
    <path class="cls-52" d="M348,443.84c-4.31,3.73-6.94,3.14-9.34-2.08.17-1.93,2.27-2.09,3.13-3.4,1.21,3.36,6.7-1.76,6.95,3.51A1.87,1.87,0,0,1,348,443.84Z" transform="translate(-180 -361.55)"/>
    <path class="cls-53" d="M348,443.84c.1-.71-.35-1.63.74-2C352,446,351.24,449,347,449.68,347.7,447.8,348.75,446,348,443.84Z" transform="translate(-180 -361.55)"/>
    <path class="cls-52" d="M338,442c-.56,2.26,2.51,5-1,6.89-.87-2.44.52-5.12-.89-7.54-.3-.52.46-.76.91-.45A5.7,5.7,0,0,1,338,442Z" transform="translate(-180 -361.55)"/>
    <path class="cls-54" d="M318.75,388.41c2.06.56,4.51,1.62,4.37,4.59-.12,2.65-2.23,4.21-4.8,4.15-2.77-.07-4.43-1.6-4.49-4.71S315.75,388.57,318.75,388.41Z" transform="translate(-180 -361.55)"/>
    <path class="cls-55" d="M300,407.8c-1.53-2.79.32-3.84,2.48-4.37,1.84-.45,2.77-1.22,1.78-2.14-2.39-2.24,2.11-4.26-.19-6.18l1.95-.38a7.08,7.08,0,0,1,2.19,8.37C306.79,406.32,304.18,408.81,300,407.8Z" transform="translate(-180 -361.55)"/>
  </g>
</svg>
