<svg id="Layer_1" data-name="Layer 1" xmlns="http://www.w3.org/2000/svg" viewBox="0 0 369.82 192.45">
  <defs>
    <style>
      .cls-1 {
        fill: #56a9e7;
      }

      .cls-2 {
        fill: #a1e3fc;
      }

      .cls-3 {
        fill: #a2e3fc;
      }

      .cls-4 {
        fill: #ce3b40;
      }

      .cls-5 {
        fill: #b3ebfb;
      }

      .cls-6 {
        fill: #a2e3fb;
      }

      .cls-7 {
        fill: #b5ecfa;
      }

      .cls-8 {
        fill: #5db5f0;
      }

      .cls-9 {
        fill: #a2e1f8;
      }

      .cls-10 {
        fill: #4fa2e3;
      }

      .cls-11 {
        fill: #d7e7e4;
      }

      .cls-12 {
        fill: #90d5f2;
      }

      .cls-13 {
        fill: #d94849;
      }

      .cls-14 {
        fill: #4ea1e1;
      }

      .cls-15 {
        fill: #b9e9fc;
      }

      .cls-16 {
        fill: #cd3c41;
      }

      .cls-17 {
        fill: #b6ecf9;
      }

      .cls-18 {
        fill: #bb6e91;
      }

      .cls-19 {
        fill: #e25143;
      }

      .cls-20 {
        fill: #beced1;
      }

      .cls-21 {
        fill: #c34245;
      }

      .cls-22 {
        fill: #76c6f2;
      }

      .cls-23 {
        fill: #cc3e42;
      }

      .cls-24 {
        fill: #7ccdf8;
      }

      .cls-25 {
        fill: #b6ecfa;
      }

      .cls-26 {
        fill: #a3e4fa;
      }

      .cls-27 {
        fill: #d8f9f8;
      }

      .cls-28 {
        fill: #b1c5cc;
      }

      .cls-29 {
        fill: #d1f4f7;
      }

      .cls-30 {
        fill: #b05e83;
      }

      .cls-31 {
        fill: #ce3e45;
      }

      .cls-32 {
        fill: #bd3c3b;
      }

      .cls-33 {
        fill: #a04a72;
      }

      .cls-34 {
        fill: #bfafc0;
      }

      .cls-35 {
        fill: #ae6f8c;
      }

      .cls-36 {
        fill: #a5597d;
      }

      .cls-37 {
        fill: #b5ebfa;
      }

      .cls-38 {
        fill: #b4ebfa;
      }

      .cls-39 {
        fill: #d34446;
      }

      .cls-40 {
        fill: #b16187;
      }

      .cls-41 {
        fill: #af5e83;
      }

      .cls-42 {
        fill: #a16e93;
      }

      .cls-43 {
        fill: #b72e33;
      }

      .cls-44 {
        fill: #b1b4b8;
      }

      .cls-45 {
        fill: #a25b84;
      }

      .cls-46 {
        fill: #d1dbdd;
      }

      .cls-47 {
        fill: #a67092;
      }

      .cls-48 {
        fill: #b22930;
      }

      .cls-49 {
        fill: #f9fcfb;
      }

      .cls-50 {
        fill: #b0262b;
      }

      .cls-51 {
        fill: #5aafec;
      }

      .cls-52 {
        fill: #c9484a;
      }

      .cls-53 {
        fill: #b2a2aa;
      }

      .cls-54 {
        fill: #b26086;
      }

      .cls-55 {
        fill: #b22328;
      }
    </style>
  </defs>
  <title>clean1</title>
  <g>
    <path class="cls-1" d="M-142.4-47.53-122.7-43c.27.48.66,1.06.5,1.5-4.2,11.38-3.63,22.77-.59,34.15L-142.4-5.25Z" transform="translate(142.4 74.11)"/>
    <path class="cls-2" d="M76.42,29c-4.26-1.36-3.78-6.31-7-8.94C62,26.51,53.73,30,43.8,25.33,35.11,21.24,31,14.48,33.63,4.87c1.82-6.7-.24-10.86-4.58-15.08-3.48-3.38-6.7-7.07-10.25-10.39-3.25-3-5.58-5.36-2.66-10.44,1.62-2.74-.33-7.4,4.24-9.09l-3.25-1.48v-1c7.7.84,15.4,1.72,23.1,2.52,5.35.55,9.35,1.24,14.41-4.29,5.37-5.87,15.82-11.27,23-10.17s13.46-.31,20.24-1c12.35-1.17,17.89,4,19.52,16.09.13,1-.52,3,.53,2.7,9.76-3.26,13.14,10,24.15,7.87,14.44-2.83,25.5,15.67,19.52,30-1.94,4.62-3.63,7.51,3,9.94,6.22,2.29,6.59,7.87,3.74,13.54-3.25,2.7-6.22,2.62-9-.92-5.8-7.6-12.84-9.22-21.23-4.35a6,6,0,0,1-6.83-.58c-2.57-5.09-8.13-5.07-12.43-7.32-1-.91-1.62-2.18-2.65-3.06-1.62-1.35-3.48-2.08-4.76.13-1.09,1.87.57,2.9,2,3.73,1.15.65,2.45,1.14,3.07,2.47-2.26,4.88-5.76,8.21-11.38,8.13-4.43,0-7.18,2.9-10.43,5-.76.21-1.84.47-2.27,0-5.32-6-9.86-5-14,1.35C78,29.8,77,29.6,76.42,29Z" transform="translate(142.4 74.11)"/>
    <path class="cls-3" d="M168.19,27c14,1.76,18.92,11.86,11.16,23.37a10.88,10.88,0,0,0-2.16,8.78c1.1,7-2.8,11.92-9.76,13.68-4.19,1.06-6.19,3.35-7.4,7.48-3.36,11.56-14.8,19.72-27.46,20.18-17,.62-26.17-4.39-31.24-17.51-1.29-3.35-2.59-5.19-6.75-5.34C83.2,77.18,78.84,71.52,80.66,60c.41-2.59,1-3.71-2-5.51-8.62-5.14-8.9-11-1.84-19.21,5.14,1.35,9.5,4.55,14.52,6.18a9.06,9.06,0,0,1,3.09,7.11c0,13.15,5.72,19,18.73,19.51a9.72,9.72,0,0,1,6.51,4.72A7,7,0,0,0,129,76l.09,0c4-1.52,7.69-1.52,10.31,2.52a.84.84,0,0,1-.82.85h0c.88.36.75-.86,1.44-.93,14.06-1.46,17-5,15.64-19.62-.38-4,2.41-7.08,2.41-10.88.21-3.08,1.44-6,1.62-9-.81-4.41,5.56-6.51,3.77-11.48C163.09,26.63,166.37,25.83,168.19,27Z" transform="translate(142.4 74.11)"/>
    <path class="cls-4" d="M-71.09-4.34c-6.18-6.71-13.5-7-21.87-4.74-5.89,1.62-12.17,1.62-18.28,2.37-4.28,1.4-7-1-8.28-4.39A34.65,34.65,0,0,1-118.67-40c1.07-2.16,2.55-4.36,5.64-2.67,5.58,1,11.16,1.94,16.75,2.78,8,1.22,15.42,1.71,23.42-2.19,10.06-4.88,21-3.25,31.27,1.35,5.79,2.44,8.29,8.13,12.34,12.34a3.82,3.82,0,0,1,.23,5.2c-2.6,3.53-6.15,4-10.1,3C-43-21-45.24-26.5-50.23-24.19-57.3-17.67-62.81-9.54-71.09-4.34Z" transform="translate(142.4 74.11)"/>
    <path class="cls-5" d="M197.47,48.6C201,36.19,198.64,26.33,185.66,21c-1-.41-2.18-.68-1.71-2.16,2.54-7.86-5.45-12.23-6.24-19,3.25-3.5,6.88-3.26,9.88,0a10.8,10.8,0,0,0,10.14,3.61A6.38,6.38,0,0,1,203.08,5c5.18,5.74,12.81,10.18,15,17.43,2.11,6.88.4,14.83-3.48,21.61-3.5-1.17-4,1.43-4.69,3.8a7.06,7.06,0,0,1-5.9,4C201.27,51.85,198.78,51.38,197.47,48.6Z" transform="translate(142.4 74.11)"/>
    <path class="cls-6" d="M214.1,43.54c1.45-1.63,2.9-3.55,1.51-5.76-2.29-3.66-1.07-6.6,1.22-9.58a5.32,5.32,0,0,0,1.24-2.86c.08-4.63-17.3-20.78-22-19.87-3.17.6-5.43.11-7.07-2.24C186-1,182.18-1.39,177.71-.21c-1.81-.27-4.64.22-4.88-1.91-.23-2.56,2.67-2.88,4.65-3s5.16-.58,6.26.57c6.1,6.42,13.53,4.2,20.78,4.16,12.2,0,18.88,8.13,16.93,20.12-.16,1-1.09,2.68-.76,3,7.14,5.84,1.72,14.63,5.33,21.8,4.63,9.32-2.52,16.1-17.09,18.41A3.11,3.11,0,0,1,208,61c.42-4.41-4.59-6.51-4.63-10.69A6,6,0,0,0,209,46.43C210.47,45.15,211.79,43.42,214.1,43.54Z" transform="translate(142.4 74.11)"/>
    <path class="cls-7" d="M71.88,82.52c5.69,8-2.64,12.19-5.37,17.44-2.32,4.49-7.58,1.39-11.8,1.47-16.36.26-13.81-13.6-17.89-22a9,9,0,0,1,4.47-11.88c.23-.1.46-.2.7-.28,5.2-2.13,10.67-2.08,14.16,3.74,3.08,1.53,1.63,5.33,3.71,7.33a15.29,15.29,0,0,0,5,3.26C67.07,82.55,69.62,81.51,71.88,82.52Z" transform="translate(142.4 74.11)"/>
    <path class="cls-8" d="M-54.41,97.38c-4.88,7.22-10.88,9.51-19.14,5.19-4.87-2.59-10.7-3.5-15.3-7,3.37-3.11,4.42-7,4.44-11.51a64.45,64.45,0,0,1,2.86-19,4.51,4.51,0,0,1,5.76-1.45c7.35,3.59,15.81,5,22,11,2.57,6-.84,10.75-3.58,15.57C-59,93-60.67,95.69-62.29,98.47-59.46,99-57.76,92.5-54.41,97.38Z" transform="translate(142.4 74.11)"/>
    <path class="cls-9" d="M176.07-55.48c3.78,9.08-3.78,16.13-4.48,24.39-.16,1.89-2.89,3.08-5.31,2.9-3.26-.23-2.57-2.73-2.9-4.8-1.62-10.31-10.31-15.19-20.24-10.91a9,9,0,0,1-10.44-1.5c-2.88-2.48-2.49-6.08-1.4-9.05,1.41-3.86,5.33-6.8,8.86-5.74,7.5,2.26,10.57-3.06,14.85-6.7,3.92,2.75.91,7,2.35,10.36,4.51,3.75,9,7.72,14.43,1.38A4.47,4.47,0,0,1,176.07-55.48Z" transform="translate(142.4 74.11)"/>
    <path class="cls-10" d="M-80.41,64.24c.29,8.76-2.8,17.28-1.82,26,.57,5.23-2.91,5.4-6.62,5.3a38.81,38.81,0,0,1-4.45-1.63c-12.8-6.78-13.68-8.58-10.3-22.76,1.21-5.11,1.84-10.46,5-14.92A20.61,20.61,0,0,1-80.41,64.24Z" transform="translate(142.4 74.11)"/>
    <path class="cls-11" d="M-57.84-50.91c-5.59-1.62-3.53-4.5-.11-5.27,16.26-3.67,32.52-5.57,47.38,4.88a29,29,0,0,0,7.84,4c2.07.67,4.25,1.85,3.9,4.46-.39,3-2.76,3.61-5.46,3.49s-5.41,0-8.13,0c-3,2.18-6.88,3.37-8.26,7.37A7.75,7.75,0,0,1-26-30.06c-6.63-1.63-11.72-4.41-10.26-12.69a7,7,0,0,0-5.23-8.13C-46.72-52.65-52.34-53.85-57.84-50.91Z" transform="translate(142.4 74.11)"/>
    <path class="cls-12" d="M-97,50q7.44-17.89,14.86-35.63c4.88-3.25,8.93-1.06,12.9,1.87,1.75,7.75-2.38,13.74-6,19.9-2.55,3,.25,5.94.22,8.91-2.3,5.37-.85,13-9.14,14.64-3.91-.13-7-2.49-10.38-3.94C-96.87,54.79-98.41,52.9-97,50Z" transform="translate(142.4 74.11)"/>
    <path class="cls-13" d="M168.19,27c-4.37,1-4.43,1.09-2.21,4.17.91,1.23,2,2.16-.68,2-4.57-.38-2.06,3.93-3.67,5.51-1.09,2-1.35,4.7-4.41,4.88-6,0-11.22-3.42-17.16-4.05-2.78-.31-4.36-3.25-4.71-6a31.44,31.44,0,0,0-4.07-10.88c-2.19-1.74-4.88-3.48-.4-5.69,2.6.79,4.22,2.66,7.77-.43,5.48-4.79,17.15-2.37,21.69,4.34,2.47,3.63,4.8,3.7,8,3.78C168.33,25.39,168.28,26.19,168.19,27Z" transform="translate(142.4 74.11)"/>
    <path class="cls-6" d="M40.4,53.13c-4.38-4.88-10.36-1-16-1.38a10.76,10.76,0,0,1-10.25-7.81c-1.43-5-1.38-10.24,2-14.71,1.46-1.92,2.91-2.13,4.07.58,2.47,5.82,7.39,7.11,13.2,7.34,6.67.26,10.41,8.45,18,7.05.91-.16.89,1.78.19,2.64C48.89,50.12,46.46,54,40.4,53.13Z" transform="translate(142.4 74.11)"/>
    <path class="cls-14" d="M-71.09-4.34A143.87,143.87,0,0,1-51.17-26.13c4.5-.78,7.2,2.22,10.07,4.88C-53-15.1-56.49-2.77-62.46,7.71-64.29,11-65.12,15-69.82,15.47c-3.35-2.21-10.25-.15-9.16-7.64Z" transform="translate(142.4 74.11)"/>
    <path class="cls-15" d="M-33.45,33.8c3.65,7.62-.74,14.73-2,21.87a64.92,64.92,0,0,1-7.86,21.9c-4.7,1.19-7.09-1.62-9-5.23C-49.15,58.6-45.77,45-41.51,31.47-38.16,29.86-35.41,30.38-33.45,33.8Z" transform="translate(142.4 74.11)"/>
    <path class="cls-16" d="M-26.78-16.86c8.34,1.11,6.26,6.51,5.14,11.87C-23,1.76-32,10.22-38.47,10.23-42.41,9.5-42.94,7-42.06,3.58c1.18-4.5.73-9,.48-13.62-.19-5.68,2.78-8.33,8.13-8.69C-31-18.78-28.57-18.73-26.78-16.86Z" transform="translate(142.4 74.11)"/>
    <path class="cls-17" d="M186.67,81.64c3.09,1.62,5.3,3.87,3.51,6.58-2.28,3.47-2.5,7-2.59,10.75a4.31,4.31,0,0,1-4,4.61,4.26,4.26,0,0,1-.62,0c-3.43,0-6.23.61-8.28,3.78a3.13,3.13,0,0,1-4.39.45h0A3.58,3.58,0,0,1,168.6,103a.83.83,0,0,1,.07-.13,23.54,23.54,0,0,0,2.89-12.43c0-.52.1-1.3.44-1.51C176.73,86,183,86.37,186.67,81.64Z" transform="translate(142.4 74.11)"/>
    <path class="cls-18" d="M203.4,50.3c1.74,3.71,8.13,5.16,5.37,11-4.88.36-5.21,2.93-3.14,6.61,1.62,4.55-2.67,5.13-4.78,5.54-6.67,1.27-14.74-4.34-14.77-10.6,0-2.41,3.08-5.32,5.42-7.11,2.66-2,3.88-4.88,6-7.27Z" transform="translate(142.4 74.11)"/>
    <path class="cls-19" d="M-113-42.7c-10.62,8.62-9.5,30.9,1.79,36-4,2.59-7.89,2.88-11.55-.67-7.46-11.9-6.21-23.77.09-35.63C-119.4-45.22-116.18-44.7-113-42.7Z" transform="translate(142.4 74.11)"/>
    <path class="cls-20" d="M-26.78-16.86l-6.5-.58c-2.54-.83-5.84-.13-7.06-3.56l.68-.83c1.63.19,3.25.47,4.78.52a5,5,0,0,0,5.19-3c.86-2.13-1-3.33-2.19-4.73-3.26-3.87-6.43-7.81-9.63-11.71,3.25-4.67,1.53-7.06-3.47-8.78-4.22-1.47-8.47-1-12.71-1.37-.13-.76-.57-2.06-.33-2.21,4.56-2.63,19.06-.44,22.77,3.25,1.51,1.48,2.47,3.42,1.76,5.08-3.94,9,2.68,11,8.57,13.7.27,5.06,3.25,8.85,6.08,12.69C-21.46-17.52-24.6-19.57-26.78-16.86Z" transform="translate(142.4 74.11)"/>
    <path class="cls-21" d="M90,41.59c-5.22-.38-10.49-.69-13.19-6.33-.15-2.1-.28-4.19-.42-6.31,3.87-8.63,9.41-9.24,17.31-1.87C99.07,31.93,98,36.11,90,41.59Z" transform="translate(142.4 74.11)"/>
    <path class="cls-22" d="M-39.38-8.91C-39.64-4.53-38.23,0-40.7,4.2c-1.62,2.75,0,4.57,2.23,6C-43.35,17.7-35,22.48-34.7,28.92c-5.74,3-9.27-.47-12.67-4.34C-51.66,16-52.76,7.73-45.12.18-42.5-2.35-45.28-8.32-39.38-8.91Z" transform="translate(142.4 74.11)"/>
    <path class="cls-23" d="M176.07-55.48l-3,1.09c-1.24-.71-.88-2.31-1.78-3.25-4.47,6.94-10,4.1-15.56,1.76-2.94-3.5,2.62-7.55-.71-11,2.14,1.4,5.36.16,5.62-.77,1.29-4.52,5.81-2.92,7.06-2.5,3.68,1.2,6,4.7,7.24,8.55A53.32,53.32,0,0,1,176.07-55.48Z" transform="translate(142.4 74.11)"/>
    <path class="cls-24" d="M-54.41,97.38c-5-1.63-6.26,7.77-11.92,3.85,3.92-8.47,11.89-15.12,11.92-25.48,4.78-1.1,8,.86,10,5.16C-47.54,86.57-49.71,92.78-54.41,97.38Z" transform="translate(142.4 74.11)"/>
    <path class="cls-25" d="M134.89-65.43c-6.29,2.29-12.41,4-18.88,3.25-2.21-.26-5.36,1.08-6.05-2.29a7.22,7.22,0,0,1,3.79-8.23c3.68-1.71,8.47-2.42,11.21,1.12S131.23-67.2,134.89-65.43Z" transform="translate(142.4 74.11)"/>
    <path class="cls-26" d="M135.36,118.34c-4.65-.28-7.48-2.2-7.69-6.28s3.38-3.25,5.89-3.43c3.45-.27,6.91.23,10.39-.86,1.93-.6,4.88-4.62,6.26.15a6.37,6.37,0,0,1-3.87,8.14l-.6.18C142.18,117.38,138.16,116.14,135.36,118.34Z" transform="translate(142.4 74.11)"/>
    <path class="cls-27" d="M-44.45,80.94a26.71,26.71,0,0,0-10-5.16,163.64,163.64,0,0,0-26-11.53l-18.07-8c.28-2.13-.64-4.57,1.54-6.22,1.81,6.74,8.51,5.82,13,8.29A86.87,86.87,0,0,1-51.33,72.73l8.13,4.88C-43.67,78.69-44.06,79.82-44.45,80.94Z" transform="translate(142.4 74.11)"/>
    <path class="cls-28" d="M-20.63-32.53c-1.63-7.53,3.82-6.64,8.29-6.87v9.76C-9.93-25.28-9.4-20-5.93-16.14c-5.48,7.1-7.86-.7-11.51-2.39C-20.19-22.81-23.41-27-20.63-32.53Z" transform="translate(142.4 74.11)"/>
    <path class="cls-29" d="M-46.72,24.3c3.76,2.18,7.44,4.59,12,4.6,1.63,1.34,1.16,3.17,1.22,4.88a13.4,13.4,0,0,0-8.13-1.63c-9.76-3.83-20-6.68-27.72-14.45-4-2-8.14-3.92-12.85-3.25,1.32-2.09.94-5,3.17-6.62,1.14,5.19,6,5,9.58,6.62A41.24,41.24,0,0,1-46.72,24.3Z" transform="translate(142.4 74.11)"/>
    <path class="cls-30" d="M64.12,83c-2.55,0-3.92-1.63-5.23-3.51-1.32-4.34-.75-8,3.69-10.26a2,2,0,0,0,1.44,0c5.74-1.43,6.85,3.12,8.66,6.75l-.25,1.62C71.37,82.26,68.29,83.52,64.12,83Z" transform="translate(142.4 74.11)"/>
    <path class="cls-31" d="M-5.92-16.13c-8.32-1.62-6.32-8-6.4-13.49C-1.13-25.61.26-22.68-5.92-16.13Z" transform="translate(142.4 74.11)"/>
    <path class="cls-32" d="M-20.63-32.53c1.07,4.66,2.13,9.33,3.25,14h-1.5c-7-1.85-10-5.59-6.08-12.68Z" transform="translate(142.4 74.11)"/>
    <path class="cls-33" d="M205.6,68c-1.11-.65-4.49,4.47-3.52-1.35.51-3,1.29-6,2-9,3-.37,2.61,3.25,4.69,3.77a7.85,7.85,0,0,0,.23,1.53C208.73,65.13,208.13,67.17,205.6,68Z" transform="translate(142.4 74.11)"/>
    <path class="cls-34" d="M62.5,69.25c-2.13,3.09-4.15,6.24-3.7,10.26-4.56-1.63-.61-6.07-2.71-8.54C58.58,71.62,59.39,66.17,62.5,69.25Z" transform="translate(142.4 74.11)"/>
    <path class="cls-34" d="M72.61,76c-2.86-2.27-4.18-6.5-8.67-6.74,2-5.5,4.88-.41,6.75,0C73.88,69.83,73.88,73.17,72.61,76Z" transform="translate(142.4 74.11)"/>
    <path class="cls-34" d="M64.12,83c3.58-.5,6-2.85,8.31-5.32,2.65,1.89,0,3.26-.49,4.88C69.34,83.82,66.82,85.36,64.12,83Z" transform="translate(142.4 74.11)"/>
    <path class="cls-35" d="M185.46-45.54c-1.44-.31-2.52-1.24-2.43-2.65a2.71,2.71,0,0,1,2.71-2.72,2.47,2.47,0,0,1,.54,0,2.55,2.55,0,0,1,2.45,2.62,2.8,2.8,0,0,1-2.85,2.74Z" transform="translate(142.4 74.11)"/>
    <path class="cls-36" d="M169.82,7c-.28,1.41-1,2.49-2.55,2.54a2.57,2.57,0,0,1-.58-5.11,2.81,2.81,0,0,1,.58,0C168.88,4.48,169.56,5.5,169.82,7Z" transform="translate(142.4 74.11)"/>
    <path class="cls-37" d="M90,41.59c2.42-4.54,9-8,3.7-14.51,2.7-4.31,6.07-7.46,11.68-6.29s6.65-5.19,10.76-6.51c-1-2.58.61-3.17,2.61-3.49,4.4,1.27,10.86-1.55,12.1,6.08-3.09,4.67,2,2.65,3.15,3.84.1.26.33.53.26.76-3,12.28.2,18.73,12.6,24.39,1.76.8,3.66-3.25,6.39-1.46.85,0,.23,1.85,1.63,1.11,3.25-1.83,3.5,2,5.25,2.94-1,5.43-2.47,10.26-1.09,16.49,1.89,8.5-8.31,16.86-19.85,14.26L139,79c-3.25-1.79-6.08-3.39-10.28-.78s-8.24.14-10.88-4c1.79-5.22,7.6-2.51,10.56-5.38,6.63-2.69,5.26-7.21,2.76-12-4.57-3.5-9.19-4.88-14-.46a4.62,4.62,0,0,1-1.76.77c-2,3.25.41,7.09-1.12,10.45a6.23,6.23,0,0,1-1.3,1.79c-12.88,1.27-22.17-7.87-20.36-20.73C93.1,45.34,90.69,44,90,41.59Z" transform="translate(142.4 74.11)"/>
    <path class="cls-38" d="M112.91-7c-4.44,6.89-8.82,13.84-13.39,20.64A6.28,6.28,0,0,1,93,15.84c-8.77-1.43-18,3.79-26.56-2.37-1.39-1-4.7,1.07-6.91.63-5.77-1.12-11-3.46-13.1-9.75,1.82-1.63,2.79-4.52,6-4.39,12-2.65,14.92-8.49,9.31-18.83-1.63-5-8.14-2.83-10.17-7.09.25-1,.33-2.85.73-2.91,8-1.52,13-7.48,18.87-12.27a8.38,8.38,0,0,1,10.66,0c6.28,4.88,13.36,9.53,17.89,15.86,3.4,4.8,7.55,8,11.68,11.64C112.61-11.57,112.5-9.18,112.91-7Z" transform="translate(142.4 74.11)"/>
    <path class="cls-39" d="M52.74,1.11c-3.38-1.36-2.88,4.77-6.33,3.25-.39-1.77,2.25-3.17-.35-5.49-5.66-5.06-5.7-11.56-1.63-17.34,1.06-1.49,5.28-1.48,2.94-5.27-.58-.94.18-1.43,2.47-.08,1.18.7,1.18.7,1.63-2.13,4.1,1.06,8.26,1.94,12.25,3.34.83.27-.43,1.75-1.26,2.42A67.78,67.78,0,0,1,52.74,1.11Z" transform="translate(142.4 74.11)"/>
    <path class="cls-40" d="M147.92-14.08a9.78,9.78,0,0,1-8.91,9c-4.51.55-9.91-4.2-9.58-8,.36-4.21,2-11.56,9.51-10.47C143.8-22.81,148.53-20.73,147.92-14.08Z" transform="translate(142.4 74.11)"/>
    <path class="cls-41" d="M118.78,10.82c-.88,1.15-1.74,2.33-2.61,3.5-3.91.17-7.83.13-8-5.21a4.31,4.31,0,0,1,4-4.58,3.53,3.53,0,0,1,.46,0C117.26,4.12,118.84,6.69,118.78,10.82Z" transform="translate(142.4 74.11)"/>
    <path class="cls-42" d="M112.91-7c-3.42-1.46-4-3.63-1.63-6.5C116.47-12.52,117.28-10.4,112.91-7Z" transform="translate(142.4 74.11)"/>
    <path class="cls-43" d="M114.53,56.73a1.17,1.17,0,0,1,1.14-.35c4.2,5.83,10.26,4.28,16,4.12a6.68,6.68,0,0,1-2.58,8.76c-2.49,4.48-8,2.21-11.27,5.13.75-4-3.47-3-4.88-4.8V68C116.32,64.55,112.08,60.14,114.53,56.73Z" transform="translate(142.4 74.11)"/>
    <path class="cls-44" d="M160.06,48.5c-2.08-1.27-5-.72-6.5-3.11-1.09-3.54,2.62-2,3.58-3.43,2.57.33,2.62-2.76,4.53-3.35C162.62,42.09,159.66,45.05,160.06,48.5Z" transform="translate(142.4 74.11)"/>
    <path class="cls-45" d="M139.15,79.25c.67,2.19,1.29,4.47-2,5a2.32,2.32,0,0,1-2.8-1.72,1.89,1.89,0,0,1-.06-.47c0-3.25,2.47-2.93,4.65-2.94Z" transform="translate(142.4 74.11)"/>
    <path class="cls-46" d="M-41.58-21.44l-9.61-4.69c6.25-5,7.43,3.4,11.39,4.31l-.31.34C-40.54-20.84-41-20.84-41.58-21.44Z" transform="translate(142.4 74.11)"/>
    <path class="cls-47" d="M214.1,43.54A4.78,4.78,0,0,1,209,46.43c-.24-2-1.3-4.45,1.29-5.62S213.56,41.57,214.1,43.54Z" transform="translate(142.4 74.11)"/>
    <path class="cls-48" d="M155.72-55.82c1.82-.31,1.48-5.28,2.95-3,6.5,10.1,9.59.86,14.39-2.05v6.51C166.29-48,162.55-48.36,155.72-55.82Z" transform="translate(142.4 74.11)"/>
    <path class="cls-3" d="M-69.22,17.7c9,5.33,19.63,7.46,27.72,14.45-.3,14.25-5.61,27.29-9.75,40.66C-62.63,69-73.11,63.51-83.86,58.4c7.24-2.34,4-10.59,8.22-14.63,8.53-1.63,4.47,5.54,6.22,9.75,3.53-5.49,8.59-5.85,15.65-4.88-5.29-4.87-8.64-9-6.13-15.48-5.66,4.05-10.87,8.82-17.27,2.43C-72.12,30.71-72.2,23.5-69.22,17.7Z" transform="translate(142.4 74.11)"/>
    <path class="cls-49" d="M-77.35,35.46c5,0,11.38,4.65,13.37-4.67.58-2.77,3.13-.54,4.78-.25,2.73.51,2.78,2.28,1.62,4.18-3,4.88-2,7.94,3.73,9.55,2.11.6,2.48,2.54,1.35,4.65-1,1.84-2.28,3.46-4.39,2.34-4.64-2.49-7.84-2-9.89,3.25A3.26,3.26,0,0,1-71,56.31a3.33,3.33,0,0,1-.64-.35c-2.59-1.27-2.52-3.25-1.2-5.38,2.34-3.77,1.2-6-3-6.94C-79.56,41.57-79.3,38.68-77.35,35.46Z" transform="translate(142.4 74.11)"/>
    <path class="cls-50" d="M157.12,42c-.18,2.2-2.83,1.82-3.58,3.43-4.47-1-5.28,1.92-5,8-2.51-4.58-2.43-7.56-6.39-8.32-7.82-1.51-11.24-7.29-10.25-15.24.57-4.65-4.88-1-5.41-4.88,3.87,1,6.86.16,7.51-4.14-.31,4.42,5.41,7.44,2.83,12.66-.41.8,2.62,4.72,3.67,4.57C146.73,37.08,151.36,41.81,157.12,42Z" transform="translate(142.4 74.11)"/>
    <path class="cls-51" d="M-41.58-21.44h1.52l6.68,4c-4.88.81-8.93,2.23-6,8.54C-42.65,2-53.06,11.32-46.73,24.33l-22.77-9.9c6.08-4.08,5.6-12,10.12-17.14a36.6,36.6,0,0,0,6.1-10.46C-51-18.61-47.67-21.82-41.58-21.44Z" transform="translate(142.4 74.11)"/>
    <path class="cls-52" d="M130.79,59.72c-7,6.06-11.28,5.1-15.18-3.38.27-3.14,3.69-3.4,5.09-5.53,2,5.46,10.89-2.87,11.3,5.7A3.06,3.06,0,0,1,130.79,59.72Z" transform="translate(142.4 74.11)"/>
    <path class="cls-53" d="M130.79,59.72c.17-1.16-.57-2.65,1.21-3.25,5.3,6.76,4.06,11.64-2.83,12.74C130.31,66.16,132,63.23,130.79,59.72Z" transform="translate(142.4 74.11)"/>
    <path class="cls-52" d="M114.53,56.73c-.91,3.67,4.08,8.13-1.62,11.2-1.42-4,.84-8.33-1.45-12.26-.49-.85.75-1.24,1.48-.73A8.76,8.76,0,0,1,114.53,56.73Z" transform="translate(142.4 74.11)"/>
    <path class="cls-54" d="M83.23-30.42c3.35.91,7.33,2.64,7.11,7.47-.2,4.3-3.63,6.84-7.81,6.74-4.5-.11-7.2-2.6-7.3-7.66S78.35-30.16,83.23-30.42Z" transform="translate(142.4 74.11)"/>
    <path class="cls-55" d="M52.74,1.11c-2.49-4.54.52-6.24,4-7.1,3-.74,4.51-2,2.9-3.48-3.89-3.65,3.43-6.93-.31-10l3.17-.62A11.51,11.51,0,0,1,66.09-6.53C63.78-1.29,59.54,2.75,52.74,1.11Z" transform="translate(142.4 74.11)"/>
  </g>
</svg>
