<?xml version="1.0" encoding="utf-8"?>
<!-- Generator: Adobe Illustrator 23.0.2, SVG Export Plug-In . SVG Version: 6.00 Build 0)  -->
<svg version="1.1" id="Layer_1" xmlns="http://www.w3.org/2000/svg" xmlns:xlink="http://www.w3.org/1999/xlink" x="0px" y="0px"
	 viewBox="0 0 238.2 251.2" style="enable-background:new 0 0 238.2 251.2;" xml:space="preserve">
<style type="text/css">
	.st0{fill:#5EC0CD;}
	.st1{fill:#584D6C;}
	.st2{fill:#F2C7B3;}
	.st3{fill:#A9BCDE;}
	.st4{fill:#F2CAB8;}
	.st5{fill:#4D4561;}
	.st6{fill:#F0C3AE;}
	.st7{fill:#F8F7F5;}
	.st8{fill:#E7C7B6;}
	.st9{fill:#F1F6F7;}
	.st10{fill:#5894AA;}
	.st11{fill:#5891A8;}
	.st12{fill:#5988A5;}
	.st13{fill:#FAEDE4;}
	.st14{fill:#8690B5;}
</style>
<title>covermB</title>
<g>
	<path class="st0" d="M141.2,107.1c6.6,7.1,11.6,15.4,17.6,22.9c3.5,4.4,6.8,9.1,10.2,13.6c4.8,6.4,5,11.8,0.5,16.1
		c-4,3.9-9.9,3.6-16.4-1.2c-0.3,7.7,1.3,14.7,2.5,21.7c1.5,8.5,3.7,16.8,4.9,25.4c0.6,4.7-1.2,7-5,8.4c-5.8,2.1-12.1,2.5-18.1,3
		c-16.9,1.3-33.9,1.2-50.7-1.7c-6.3-1.1-6.8-1.8-6.5-8.2c0.1-1.3,0.2-2.7,0.4-4c0.3-2.6,1.4-5.4,0.9-7.9c-0.6-3.6-4.4-1.7-6.7-2.6
		c-7.3-3-11.5-10.4-10.3-19.6c2.1-16.6,8.3-31.8,16.1-46.3c1.7-3.6,5.4-5.7,9.3-5.6c2.8-0.1,5.6-0.3,8.4-0.7
		c3.4,1.7,8.9,1.3,7.7,7.6c-1.7,8.8-2.9,17.6-5.3,26.2c-2.8,10.3-2.8,10.3,7.9,12.1c0.2,0,0.3,0,0.5,0.1c3.8,0.7,6.1-0.6,6.7-4.6
		c1.2-8.2,3.9-16,4.5-24.4c0.2-3.4-0.1-7.5,1.6-10.1c1.9-2.9,6.4-1.6,9.8-2.3c0.2,0,0.3-0.1,0.5-0.2c7-1.7,7-1.7,4.3-8.5
		c-1.1-1.8-2.9-3.3-2.1-5.7C137,110.2,139,108.4,141.2,107.1z M142.1,130.1l-0.3-1.3l-0.5,0.4L142.1,130.1c0,1.7-0.4,3.5,1.7,4.5
		C144.1,132.9,143.4,131.2,142.1,130.1L142.1,130.1z M120,177.9c-1.1-1.5,2.4-2.2,0.3-3.4c-2.5-1.6-11.6,2.9-11.7,5.8
		c-0.1,2,0,4.5,2.2,5.7c2.5,1.4,11.9-1.8,13.8-4.5l-2.9-0.7c0.4-1.6,2.8-1.2,2.9-3C123,176.4,121.5,178.7,120,177.9L120,177.9z
		 M85.7,156.9c-2.6,4.4-4.7,9-6.2,13.9c-0.8,2.7-1.8,5.4-1.4,8.3c0.2,2.1,1.8,2.6,3.5,2.9c1.8,0.4,2.3-0.8,2.4-2.3
		C84.5,172.5,87.1,165.4,85.7,156.9L85.7,156.9z M135,214.7c-8.7-2.4-17.4-1.1-26.1-1.5l0,1.5H135z M107.2,188.6
		c-7.4,1.9-14.9,3.4-22.4,4.6C92.8,194.1,100.1,191.7,107.2,188.6L107.2,188.6z M89.5,142.1c0.1-6.3,2.3-12.5,0.9-18.9
		C88.4,129.5,89.4,135.8,89.5,142.1z M140.6,212.6c4.8,1.2,9.9,0.1,13.9-2.9L140.6,212.6z M145.8,139.6c0-0.5,0.3-1.1,0.1-1.5
		c-0.3-0.6-0.6-2.1-1.4-1.2S144.4,139.1,145.8,139.6L145.8,139.6z M147.9,142.7l-1.1-1c-0.2,0.3-0.5,0.7-0.5,1s0.5,0.6,0.8,0.9
		L147.9,142.7z M140.5,126.6c0.1-0.1,0.3-0.1,0.3-0.2c0-0.2,0-0.3,0-0.5l-0.5,0.3L140.5,126.6z"/>
	<path class="st1" d="M95.1,56.1c-0.3-11.6,3.1-15.8,14.9-17.2c7-0.9,14.1-0.9,21.5-1.3c-1-2.6-3.7-0.9-5.2-2.8
		c6.6-2,12.4-0.7,18.2,2.1c6.7,3.2,7.8,8.7,6.6,15.3c-1.8,4.6-5.3,7.9-9,11l0,0c-1.1,0.1-2.5-0.3-2.9,1.4l0.1-0.2l-1.3,0.8
		c-11.5,4.4-22.8,3.3-34.1-0.9C100.2,62.5,95.8,61.2,95.1,56.1z"/>
	<path class="st2" d="M104,64.2c11.3,4.2,22.6,5.2,34.1,0.9c0.6,0,1.1-0.1,1.3-0.8l-0.1,0.2c1.1,0,2.1-0.5,2.8-1.4l0,0
		c1.5-0.4,2,0.5,2.3,1.8c1,3.1,2.4,6.1,2.7,9.5c0.1,0.7-0.2,1.9,1.2,1.4c0.5-0.2,0.6-1,0.9-1.6c2.5,1.1,1.3,6.5,6,5
		c0,1.5-0.9,3.1-2,3.1c-6.6,0-6.9,5.8-9.3,9.8c-2.7-4.3-5.2,0.6-7.9,0.1l-2.1-0.9l-1-1.1l-0.9-1c-2.3-1.4-4.4-4.1-7.5-2.6
		c-3.3,1.6-3.3,5-3.5,8.1c-0.2,2.8-0.2,5.6-0.2,8.4c-5.8-0.5-11.4-1.9-16.8-4c-3-4.1-6-8.2-7.6-13.2c-0.5-1.5-0.9-2.8-2.9-2.7
		c-4.4,0.4-6-2.7-6-6.2c0-3.7,2.1-6.2,6.4-5.8c0.7,2.1,0.2,4.6,2.1,6.8C99,73.3,100.5,68.1,104,64.2z"/>
	<path class="st3" d="M104.1,99c5.4,2.1,11.1,3.5,16.8,4c0.1,4.6,0.1,9.2,0.2,13.9c-0.1,1.4,0.6,2.7,1.8,3.3c1.9,0.9,2.1-1,2.8-2
		c1.7-2.4,4.1-2.4,6.7-2.1c1.3,0.1,2.7,1.7,4-0.1c2.7,6.8,2.7,6.8-4.3,8.5c-0.2,0-0.3,0.1-0.5,0.2c-3.3,0.7-7.9-0.5-9.8,2.3
		c-1.7,2.6-1.4,6.7-1.6,10.1c-0.5,8.3-3.3,16.2-4.5,24.4c-0.6,4-2.9,5.3-6.7,4.6c-0.2,0-0.3,0-0.5-0.1c-10.6-1.8-10.7-1.8-7.9-12.1
		c2.4-8.6,3.6-17.5,5.3-26.2c1.2-6.3-4.3-5.9-7.7-7.6c-0.9-2.7-2-5.3,0.9-7.6c1.8-1.5,0-3-0.5-4.5C97,102.8,98.9,99.7,104.1,99z
		 M103.2,112.5c4.2,1.9,8.6,3.4,13.3,1.5C112.1,113.2,107.7,112.9,103.2,112.5L103.2,112.5z"/>
	<path class="st4" d="M136.1,92.1c2.6,0.5,5.2-4.4,7.9-0.1c-0.1,0.3-0.2,0.7-0.4,0.9c-5.5,3.9-4.5,9-2.4,14.2
		c-2.2,1.3-4.2,3.2-7,3.3c-5.3-3.1-7.9-7.8-8-14.1l3.9,1.9l0.5,0.4l-0.4-0.5c0.6-1.8-1.6-3.4-0.6-5.4c2.1,0.5,2.1,2.6,3.6,3.4
		c0,0.1,0.1,0.2,0.2,0.4c0,0.1,0.2,0.1,0.3,0.1l-0.4-0.4c0.3-1.4-0.5-3,1-4c1.1,1.8,0.9,4.4,3.1,5.8
		C139.3,95.2,136.9,93.8,136.1,92.1z"/>
	<path class="st5" d="M104,64.2c-3.6,3.9-5,9.1-7.9,13.7c-1.9-2.2-1.4-4.7-2.1-6.8c-0.3-5-0.9-10.1,1.1-15
		C95.8,61.2,100.2,62.5,104,64.2z"/>
	<path class="st5" d="M149.2,74.1c-0.3,0.5-0.5,1.4-0.9,1.6c-1.4,0.5-1.1-0.7-1.2-1.4c-0.3-3.3-1.7-6.3-2.7-9.5
		c-0.4-1.2-0.8-2.1-2.3-1.8c3.7-3.1,7.2-6.4,9-11c0.5,6.7-0.3,13.4-1.4,20L149.2,74.1z"/>
	<path class="st6" d="M149.2,74.1l0.4-2c5.2-0.9,7.2,1.6,5.6,7C150.6,80.6,151.7,75.2,149.2,74.1z"/>
	<path class="st7" d="M130.1,98.1l-3.9-1.9c0.1,6.3,2.7,11,8,14.1c-0.8,2.5,1,4,2.1,5.7c-1.3,1.8-2.7,0.2-4,0.1
		c-2.5-0.2-4.9-0.3-6.7,2.1c-0.7,0.9-0.9,2.9-2.8,2c-1.2-0.7-1.9-2-1.8-3.4c-0.1-4.6-0.1-9.2-0.2-13.9c0.1-2.8,0-5.6,0.2-8.4
		c0.2-3.1,0.2-6.6,3.5-8.1c3.1-1.5,5.1,1.2,7.5,2.6l0.9,1l1,1.1c0,0.3,0,0.5,0,0.8c-1.5,1.1-0.7,2.7-1,4l0,0
		c-1.4-0.8-1.5-2.9-3.6-3.4C128.5,94.7,130.7,96.3,130.1,98.1L130.1,98.1z"/>
	<path class="st8" d="M120,177.9c1.6,0.8,3-1.6,4.6-0.2c-0.1,1.9-2.5,1.4-2.9,3l2.9,0.7c-1.9,2.7-11.3,5.8-13.8,4.5
		c-2.2-1.2-2.2-3.7-2.2-5.7c0.1-2.9,9.2-7.4,11.7-5.8C122.3,175.7,118.8,176.4,120,177.9z"/>
	<path class="st9" d="M85.7,156.9c1.4,8.5-1.2,15.6-1.7,22.8c-0.1,1.5-0.6,2.7-2.4,2.3c-1.6-0.3-3.3-0.8-3.5-2.9
		c-0.3-2.9,0.6-5.6,1.4-8.3C81,165.9,83.1,161.3,85.7,156.9z"/>
	<path class="st10" d="M135,214.6h-26.2l0-1.5C117.5,213.5,126.3,212.2,135,214.6z"/>
	<path class="st11" d="M107.2,188.6c-7.2,3.2-14.5,5.6-22.4,4.6C92.3,192,99.8,190.5,107.2,188.6z"/>
	<path class="st12" d="M89.5,142.1c-0.1-6.3-1.1-12.6,0.9-18.9C91.8,129.6,89.7,135.8,89.5,142.1z"/>
	<path class="st10" d="M140.6,212.6l13.9-2.9C150.6,212.7,145.5,213.8,140.6,212.6z"/>
	<path class="st12" d="M142.1,130.1c1.3,1.1,2,2.8,1.7,4.5C141.7,133.6,142.1,131.8,142.1,130.1L142.1,130.1z"/>
	<path class="st12" d="M145.8,139.6c-1.4-0.6-2.2-1.7-1.3-2.6s1.1,0.6,1.4,1.2C146.1,138.5,145.9,139.1,145.8,139.6z"/>
	<path class="st12" d="M147.9,142.7l-0.8,0.9c-0.3-0.3-0.7-0.6-0.8-0.9s0.3-0.7,0.5-1L147.9,142.7z"/>
	<path class="st12" d="M140.5,126.6l-0.2-0.4l0.5-0.3c0,0.2,0,0.3,0,0.5C140.8,126.5,140.7,126.5,140.5,126.6z"/>
	<path class="st12" d="M142.1,130.1l-0.8-1l0.5-0.4C142,129.2,142.1,129.6,142.1,130.1L142.1,130.1z"/>
	<path class="st5" d="M142.1,63.1c-0.7,0.9-1.8,1.4-2.9,1.4C139.6,62.8,141,63.2,142.1,63.1z"/>
	<path class="st5" d="M139.4,64.3c-0.1,0.7-0.7,0.8-1.3,0.8L139.4,64.3z"/>
	<path class="st13" d="M134.1,92.1c0-0.3,0-0.6,0-0.8l2,0.8c0.8,1.7,3.2,3.1,1.1,5.7C135,96.4,135.2,93.9,134.1,92.1z"/>
	<path class="st13" d="M133,90.1l-0.9-1L133,90.1z"/>
	<path class="st14" d="M103.2,112.5c4.5,0.4,9,0.8,13.3,1.5C111.7,115.9,107.4,114.3,103.2,112.5z"/>
	<path class="st7" d="M133.1,96.1l0.4,0.4c-0.1,0-0.2,0-0.3-0.1C133.2,96.3,133.1,96.2,133.1,96.1z"/>
	<path class="st7" d="M130.1,98.1l0.4,0.5L130.1,98.1L130.1,98.1z"/>
</g>
</svg>
