<?xml version="1.0" encoding="utf-8"?>
<!-- Generator: Adobe Illustrator 23.0.2, SVG Export Plug-In . SVG Version: 6.00 Build 0)  -->
<svg version="1.1" id="Layer_1" xmlns="http://www.w3.org/2000/svg" xmlns:xlink="http://www.w3.org/1999/xlink" x="0px" y="0px"
	 viewBox="0 0 239.2 251.2" style="enable-background:new 0 0 239.2 251.2;" xml:space="preserve">
<style type="text/css">
	.st0{fill:#FCBB54;}
	.st1{fill:#5C1924;}
	.st2{fill:#F8C99A;}
	.st3{fill:#FBCB9A;}
	.st4{fill:#F79449;}
	.st5{fill:#FED354;}
	.st6{fill:#F5BE8B;}
	.st7{fill:#F6BA83;}
	.st8{fill:#F7BF89;}
	.st9{fill:#F7CB9E;}
	.st10{fill:#FCEAD9;}
	.st11{fill:#F1B883;}
	.st12{fill:#67332F;}
	.st13{fill:#693533;}
	.st14{fill:#5F2529;}
</style>
<title>coverm</title>
<g>
	<path class="st0" d="M70.1,219.9c-7.8-4.1-15-9.2-21.3-15.4c-1.3-1.2-2-2.3-1.3-4.3c9.2-24,24.4-41.9,49.5-50.3
		c0.3,0.4,0.8,0.7,0.9,1.1c3.3,13.8,23.2,20.2,35.2,13.1c5.5-3,9.4-8.3,10.5-14.5c15.5,4.4,27.4,13.9,36.6,26.8
		c4.8,6.8,8.6,14.2,11.4,22.1c0.9,2.6,0.6,4.3-1.5,6.1c-5.7,4.8-11.1,10-18,13.3c-1.6-14.2-6-27.4-14.6-39.6
		c-0.2,0.5-0.3,1.1-0.3,1.7c0,15.1,0,30.2,0.1,45.3c-14,6.1-28.6,8.1-43.7,7.2c-9.8-0.4-19.4-2.4-28.6-6c0.6-16-0.6-31.9,0.4-48
		C77.2,191.3,71.2,204.7,70.1,219.9z"/>
	<path class="st1" d="M74.1,85.2C68.6,71.7,68,57.8,71,43.6c1.1-5.3,3.2-10.3,7.3-13.9c2.1-1.9,1.2-5,3.8-6.7
		c3.6-2.4,7.8-3.8,12.2-3.9c12.4-0.6,24.6,1.3,36.7,3.4c2.8,0.5,5.4,1.5,4.5-3.1c-0.3-1.2,0.5-2.4,1.7-2.8c1.3-0.3,2.2,0.7,2.8,1.7
		c1.2,1.8,2.3,3.6,3.5,5.6c1.5-1.2,3.1-2.4,4.7-3.5c1-0.6,2.3-2,3.5-0.6s0.3,2.5-0.5,3.6c-0.9,1.4-1.9,2.7-2.9,4.3
		c14.2,4.5,19.6,15,20,28.9c0.3,9.8-0.5,19.3-6.5,27.6c-1.5,0.5-1.8,4.4-4.5,1.7c-4.4-13-6.9-26.5-10.4-39.8
		c0.1-1.4-0.4-2.9-1.4-3.9c-6.5,4.7-12.8,9.4-20,12.4c-3.5,1.5-6.7,1.9-9.4-1.5c-1.6-2.9-0.7-6.5-2.7-9.3v-0.1
		c1.4-0.3,0.8-1.3,0.8-2.1l-1,0.4c-6.8,9.9-15.6,17.3-26.9,21.6c-2.2,0.8-3.2,2.1-2.9,4.4c-1.4,5.3-2.4,10.7-3,16.1
		c-0.2,0.9-0.4,1.8-0.7,2.7c-0.5,1.5-1.1,2.8-2.9,1C75.8,87.1,75,86.2,74.1,85.2z"/>
	<path class="st2" d="M80.3,84.3c0.6-5.4,1.6-10.8,3-16.1c7.7-1.1,13.8-5.4,19.5-10.1c4.5-3.8,9-8,10.6-14.2c2,2.8,1.1,6.4,2.7,9.3
		c-1.4,3.6,0.3,6.4,3.5,6.3c3.6-0.2,7-1.2,10.2-2.8c6.1-3,10.9-7.9,17.1-10.6c3.4,13.3,6,26.8,10.4,39.8l-0.2,0.3
		c-1,0.3-1.1,1-0.9,1.9l0,0c-2.7,1.6-3.2,4.2-2.9,7c-2.3,4.4-6.9,3.9-10.7,4.8c-5,1.1-9.9,0.1-14.6-1.9c-5.7-2.4-11.5-2.9-17.4-0.3
		c-6.7,3.1-13.5,3-20.4,1c-2.1-0.6-4.9-0.5-5.2-3.7C84.4,91.1,84,86.9,80.3,84.3z M87.6,86.2c7.5,6.9,18.2,5.3,21-2.7
		C102.6,89.3,95.8,89.2,87.6,86.2L87.6,86.2z M131.6,82.5c3,9,14,10.6,20.4,4.3C144.9,89.4,138.2,89.1,131.6,82.5L131.6,82.5z
		 M103.3,63.7c-2.7,0-5.4,0.8-7.6,2.4c-0.9,0.7-2.1,1.4-1.4,2.8c0.5,1.2,1.7,0.7,2.7,0.5c2.3-0.4,4.5-1,6.8-1.6
		c1.3-0.4,3.5-0.3,3.2-2.3C106.7,63.4,104.6,63.9,103.3,63.7L103.3,63.7z M135.5,63.2c-1.5-0.1-2.5-0.2-3.3,0.6
		c-0.5,0.4-0.6,1.1-0.2,1.6c0,0.1,0.1,0.1,0.1,0.1c3.3,2.3,7,3.8,10.9,4.5c0.6,0.1,1.2-0.3,1.3-0.9c0-0.3,0-0.6-0.2-0.8
		C142.3,64.8,138.7,63.9,135.5,63.2L135.5,63.2z"/>
	<path class="st3" d="M133.2,130c4-2,2.7,1.5,2.7,2.9c-0.1,3.7-0.6,7.4,0.3,11.1c-1.6,1.6-1,3.5-0.1,5.1c1.9,3.5,0.3,5.5-2.8,7
		c-8.7,4.5-17.1,4.2-25.4-1c-2.8-1.8-4.6-3.7-3.2-7.2c0.6-1.6,1.1-3.3-1.5-3.8c3.4-2.8,1.2-6.7,2.1-10c2,0.9,4,1.6,5.9,2.5
		C118.3,140,128.6,136.9,133.2,130z"/>
	<path class="st4" d="M70.1,219.9c1-15.2,7.1-28.6,15.3-41.3c-1,16,0.1,32-0.4,48C79.7,225,74.7,222.8,70.1,219.9z"/>
	<path class="st4" d="M157.2,225.3c-0.1-15.1-0.1-30.2-0.1-45.2c0.1-0.5,0.2-1.1,0.4-1.6c8.6,12.2,13,25.4,14.6,39.6
		C167.6,221.3,162.5,223.7,157.2,225.3z"/>
	<path class="st5" d="M103.2,144.1c2.6,0.4,2.1,2.1,1.5,3.8c-1.4,3.6,0.4,5.5,3.2,7.2c8.3,5.3,16.7,5.5,25.4,1c3-1.6,4.6-3.5,2.8-7
		c-0.8-1.6-1.5-3.4,0.1-5.1c3.3,0.8,5,3.9,7.5,5.8c-1.1,6.2-5,11.5-10.5,14.4c-12,7.1-31.9,0.7-35.2-13.1c-0.1-0.4-0.6-0.8-0.9-1.1
		C99.1,148,100.6,145.5,103.2,144.1z"/>
	<path class="st6" d="M74.1,85.2c0.9,0.9,1.7,1.9,2.6,2.8c1.7,1.8,2.3,0.5,2.9-1c3.8,2,2.7,6,3.8,9.1c-0.9,3,0.6,5.9,0.7,8.8
		c0.1,2.3-0.7,3.7-3.1,3c-5.8-1.6-9-5.8-10.8-11.3C68.7,92,69.5,87.9,74.1,85.2z"/>
	<path class="st7" d="M169,93.1l-0.2,2.9c-1.9,0.4-1.7,1.8-1.5,3.2l-1,1.9c-2.5,0.2-3.3,2.7-5.1,3.9l-0.4-0.2l0.4,0.2
		c0,0.3,0,0.7,0,1c-1.3,1.6-3.1,1.9-5,1.9l-2-2.9c-0.1-0.3,0-0.7,0.1-1c0.2-0.5,0.4-0.9,0.6-1.4c0.1-1.9,0.2-3.8,0.3-5.6
		c2.1,0,3.2-1.6,4.4-2.9C162.4,90.9,165.3,88.9,169,93.1z"/>
	<path class="st8" d="M133.2,130c-4.6,6.9-14.9,10-22,6.7c-1.9-0.9-3.9-1.7-5.9-2.5c0.4-1.3-1.6-4.8,2-3.2
		C116.1,134.8,124.6,133.4,133.2,130z"/>
	<path class="st9" d="M169,93.1c-3.7-4.3-6.6-2.2-9.5,1c-1.2,1.3-2.2,3-4.4,2.9c-0.1-0.6-0.2-1.3-0.3-1.9c0.4-2.4,1.7-4.6,1.3-7.1
		l0,0c1-0.3,1-1,0.9-1.9l0.2-0.3c2.8,2.7,3-1.3,4.5-1.7C165.7,85.9,170.3,87.1,169,93.1z"/>
	<path class="st10" d="M83.4,96.1c-1.1-3.1-0.1-7.1-3.8-9.1c0.2-0.9,0.5-1.8,0.7-2.7c3.8,2.7,4.2,6.8,4.7,10.9L83.4,96.1z"/>
	<path class="st10" d="M156.1,88.1c0.4,2.5-0.9,4.7-1.3,7.1l-1.6-0.1C152.9,92.3,153.4,89.7,156.1,88.1z"/>
	<path class="st9" d="M161.1,105.1c1.8-1.2,2.6-3.7,5.1-3.9c-0.6,2.5-2.6,4.5-5.1,5C161.1,105.8,161.1,105.5,161.1,105.1
		L161.1,105.1z"/>
	<path class="st9" d="M154.1,105.1l2,2.9c-0.3,0.6-1.1,0.9-1.8,0.5c-0.2-0.1-0.4-0.3-0.5-0.5C152.9,107,153.8,106.1,154.1,105.1z"/>
	<path class="st9" d="M167.2,99.3c-0.1-1.4-0.4-2.8,1.5-3.2C169.1,97.5,168.3,98.4,167.2,99.3z"/>
	<path class="st9" d="M154.8,102.7c-0.2,0.5-0.4,0.9-0.6,1.4C154.4,103.7,154.6,103.2,154.8,102.7z"/>
	<path class="st11" d="M146.9,46.1c-6.2,2.7-11,7.6-17.1,10.6c-3.2,1.6-6.7,2.6-10.2,2.8c-3.2,0.1-5-2.7-3.5-6.3
		c2.7,3.4,6,3,9.4,1.5c7.3-3.1,13.5-7.7,20-12.4C146.5,43.2,147,44.7,146.9,46.1z"/>
	<path class="st11" d="M113.3,43.8c-1.6,6.2-6.1,10.4-10.6,14.2c-5.6,4.7-11.8,9-19.4,10.1c-0.3-2.3,0.7-3.6,2.9-4.4
		c11.3-4.3,20.1-11.7,26.9-21.6C113.2,42.7,113.2,43.2,113.3,43.8L113.3,43.8z"/>
	<path class="st2" d="M113.3,43.8c-0.1-0.5-0.1-1.1-0.2-1.7l1-0.4C114.1,42.5,114.7,43.5,113.3,43.8z"/>
	<path class="st12" d="M87.6,86.2c8.2,3,15,3.1,21-2.7C105.8,91.5,95.1,93.1,87.6,86.2z"/>
	<path class="st13" d="M131.6,82.5c6.6,6.6,13.3,6.9,20.4,4.3C145.6,93.1,134.7,91.5,131.6,82.5z"/>
	<path class="st14" d="M103.4,63.6c1.2,0.3,3.3-0.2,3.6,1.7c0.3,2.1-2,1.9-3.2,2.3c-2.2,0.7-4.5,1.2-6.8,1.6
		c-0.9,0.2-2.1,0.7-2.7-0.5c-0.7-1.4,0.5-2.1,1.4-2.8C98,64.5,100.6,63.7,103.4,63.6z"/>
	<path class="st14" d="M135.6,63.2c3.1,0.7,6.7,1.6,8.6,5.2c0.4,0.5,0.2,1.2-0.2,1.5c-0.2,0.2-0.6,0.2-0.9,0.2
		c-3.9-0.7-7.6-2.2-10.9-4.5c-0.5-0.4-0.5-1.2-0.1-1.6c0,0,0.1-0.1,0.1-0.1C133.1,63,134.1,63.1,135.6,63.2z"/>
	<path class="st10" d="M157,86.2c0.1,0.8,0,1.6-0.9,1.9C156,87.2,156.1,86.5,157,86.2z"/>
	<path class="st9" d="M161.1,105.1l-0.4-0.2L161.1,105.1z"/>
</g>
</svg>
