<?xml version="1.0" encoding="utf-8"?>
<!-- Generator: Adobe Illustrator 23.0.2, SVG Export Plug-In . SVG Version: 6.00 Build 0)  -->
<svg version="1.1" id="Layer_1" xmlns="http://www.w3.org/2000/svg" xmlns:xlink="http://www.w3.org/1999/xlink" x="0px" y="0px"
	 viewBox="0 0 398.2 418.1" style="enable-background:new 0 0 398.2 418.1;" xml:space="preserve">
<style type="text/css">
	.st0{fill:#FEFEFE;}
	.st1{fill:#D2DBE7;}
	.st2{fill:#6679B7;}
	.st3{fill:#EC952B;}
	.st4{fill:#E6902C;}
	.st5{fill:#9A3945;}
	.st6{fill:#687AB8;}
	.st7{fill:#6477B6;}
	.st8{fill:#F4B87F;}
	.st9{fill:#E9983A;}
	.st10{fill:#A496A5;}
	.st11{fill:#EDE8EA;}
	.st12{fill:#9B434F;}
	.st13{fill:#B6C4DC;}
	.st14{fill:#F3B376;}
	.st15{fill:#EAAE7B;}
</style>
<title>keepdes</title>
<g>
	<path class="st0" d="M306.3,268.1c-0.4,6,1.8,9.4,8.4,8c-0.1,4.3,2.7,5.5,6.3,6.1c14.1,2.4,28,0.6,41.8-2c2.2-0.4,3.7-1,3.3-3.6
		c-1.5-9.5,0.6-19.9-3.7-28.5c-2.9-5.7-6.3-10.9-6.8-17.4c2-18.8-2.7-35.5-15.4-49.8c-1.7-2.4-4.3-2.6-6.9-2.5l-6.4-0.2l-3.5-4.2
		c3.8-0.5,7.8-0.5,11.5-1.7c3.9-1.3,8.2-3.4,8.6-8.1c0.5-5.1-4-7.2-7.9-8.4c-6-1.9-8.6-5.4-8-11.6c0.2-2.5-0.8-5-2.7-6.7
		c-5.3-5.3-20.6-5.5-29,0.4c-6.2,4.3-4,10.7-2.5,16.6l-0.2,5.4c-5.6,5.5-3,8.9,3,11.4c4.3,1.8,8.9,2.6,13.5,2.5
		c0.3,1.5,0.6,2.9,0.9,4.4c-2.2,0.3-4.3,0.7-6.4,1.3c-15.5,4.9-31.2,8.3-47.5,7.1c-8.5-0.6-16.8-2.5-25.3-1.2c-5.1-1.3-3-5-2.7-8.1
		c0.3-3.4-1.1-3.1-3.3-1.7c-0.3-0.3-0.6-0.6-0.9-0.9c-0.8-2.6,1.7-6.9-2.7-7.5s-4.8,3.4-5.5,6.7c-2.7,13.3-1.3,15.1,13.6,18.3
		c1.4,0.8,2.8,2.1,4.3,2.4c18.6,3.5,37,7.9,56,8.7c4.5,0.2,6.5,1.4,6.4,6.2c-0.3,8.8,1.9,17.4,3.2,26.1c0.5,3,1.1,5.4,4.1,6.5
		c-0.3,5.3-2.1,10.7,1.5,15.7C305.1,261.1,303.6,264.8,306.3,268.1L306.3,268.1z M55.1,166.7l-1.8-2.7c-4.8-4.9,3.1-10-0.7-14.8
		c-3,7-5.4,1.9-7-1.1c-2.3-4.3-6.7-6.8-9.9-4.7c-4.4,2.7-3.8,7.7-0.4,12.2c4.3,5.8,10.3,10.7,10.7,18.8c2.5,4.3,4.6,8.8,7.6,12.7
		c6.4,8.3,11.2,18.8,24.3,18.9c2.8,0,2.4,2.4,0.5,4c-7,0.9-13.2,4.2-19,7.5c-5,2.9-12.7,5.4-12.5,12.9c0.2,9.1,2.9,17.7,11.6,22.9
		c-2.1,6-4.3,11.9-6.4,17.9c-1.2,3.3-0.6,4.8,3.5,5.1c8,0.4,14.3-1.2,20.5-7.3c11.1-10.8,14.7-9.9,23.4,2.2c1.6,2.2,2.5,5,6,4.9
		c5.6-0.1,11.3,0,18,0c-4.6-10-8.6-18.7-12.6-27.4c3.1-13,4.5-26.6,13.5-37.5c1.6-2,1.9-5.1,2.7-7.6c2.6-0.6,5.6,0.5,7.7-1.9
		c9.7-2.1,21.3-0.6,28.6-7c10.7-9.3,19.1-20.9,24.5-33.9c4.7-1.9,7.5-5.7,9.5-10c1.5-3.4-0.5-5.9-3.3-7.6c-3.3-2-4.8,0.7-5.3,3.1
		c-1,5.1-4.7,2-7.4,1.9c1,3.8,2.6,6.5,2,9.7c-6.6,1.9-11.6,6.5-16.3,10.9c-10.6,10-22.3,11.9-35.6,7.4c4.3-9.6,6.2-19.4,3.2-29.7
		c-3.6-12.4-16.3-15.9-25.7-6.8c-2,1.9-3.8,4-5.3,6.3C97.7,156.3,89,160,76.7,157.8c-10.1-1.9-13.7,1.6-15.6,12
		C59.1,168.8,57.8,166.3,55.1,166.7L55.1,166.7z"/>
	<path class="st1" d="M303.8,241.9c-3-1.1-3.7-3.5-4.1-6.5c-1.3-8.7-3.5-17.3-3.2-26.1c0.2-4.8-1.8-6-6.4-6.2
		c-19-0.8-37.4-5.2-56-8.7c-1.5-0.3-2.9-1.6-4.3-2.4c1-2.1,2-4.3,1.4-6.7c8.5-1.2,16.9,0.6,25.3,1.2c16.3,1.2,32-2.2,47.5-7.1
		c2.1-0.5,4.3-1,6.4-1.3c0,3.6-0.4,9.4,4.8,7.2c3.8-1.6,9.4-2.2,11.6-7.1l6.4,0.2c-3.8,2.9-6.5,6.9-7.8,11.4
		c-5,16-5.9,32.5-7.6,49.3c4.7-1.3,4.9-4.6,5.4-7.9c2.3-14.2,3.1-28.7,8-42.4c1.5-4.3,2.9-8.6,8.9-7.9c12.7,14.3,17.4,31,15.4,49.8
		c-3-1.4-4.6,0.6-6.3,2.5c-4.6,1.2-8.1,4.8-9.4,9.4c-8,0.7-15.2,3.9-22.3,7.4l-5-1.8c2-3.6,3.7-7.1-3.2-6.4
		C307.6,242,305.7,242,303.8,241.9z"/>
	<path class="st2" d="M127.3,203.5c-0.9,2.6-1.1,5.7-2.7,7.6c-9,10.9-10.4,24.5-13.5,37.5c-1.6,0.4-3.1,1-4.7,1.3
		c-14.3,2.9-26.3-2.4-37.6-10.3c-4.5-5.8-1.9-10,2.6-14.4c4.6-4.6,10.8-7.5,13.8-13.7l-0.1,0.1c6.3-3.4,8.8-9.9,12.7-15.2
		c2.4-0.1,4.6,0.7,7.4,2.5c-2.1-9,1.4-13.4,9.7-14.3c2.4-0.4,4.8-1,7.2-1.7l-0.2,0.2c-0.1,1.5,0.2,2.7,1.6,3.4
		c0.4,1.1,0.9,2.3,1.3,3.4c-1.5,1.2-1.3,2.3,0.3,3.3C125,196.8,124.4,200.6,127.3,203.5z"/>
	<path class="st3" d="M349.3,233.2c1.7-1.9,3.4-3.8,6.3-2.5c0.4,6.5,3.9,11.7,6.8,17.4c4.2,8.5,2.1,18.9,3.7,28.5
		c0.4,2.6-1.2,3.2-3.3,3.6c-13.9,2.6-27.7,4.3-41.8,2c-3.6-0.6-6.4-1.8-6.3-6.1l-0.5-10.4c0.5-5.4,0.7-10.8,3.5-15.7
		c7.1-3.5,14.3-6.7,22.3-7.4c4.1,1.3,8.1,3.7,12.8,1.2L349.3,233.2z"/>
	<path class="st4" d="M61.1,169.8c1.9-10.4,5.4-13.9,15.6-12c12.3,2.2,20.9-1.5,27.3-11.9c1.5-2.3,3.3-4.4,5.3-6.3
		c9.4-9,22.1-5.6,25.7,6.8c3,10.4,1.1,20.2-3.2,29.7c-3,0.1-5.8-2.2-8.8-0.7l-2.9,0c0.2-4.8-2.3-10.5,6.6-11
		c4.9-0.3,7.3-12,3.9-18.1s-5.6,1-8.6,1.1c-2.4,0.1-4.6,1.7-7,2.2c-2.7,0.6-4.4,2.7-3.1,4.7c5.1,8.2-2.3,12.9-4.8,19
		c-6.5,1.6-13.6,2.1-19.4,5c-9.6,4.8-16.5,2.1-22.9-5.1C63.5,172,62.3,170.9,61.1,169.8z"/>
	<path class="st5" d="M68.8,239.6c11.3,8,23.3,13.2,37.6,10.3c1.6-0.3,3.1-0.9,4.7-1.3c4,8.7,8,17.4,12.6,27.4c-6.7,0-12.3-0.1-18,0
		c-3.5,0.1-4.4-2.8-6-4.9c-8.7-12.1-12.3-13-23.4-2.2c-6.3,6.1-12.5,7.7-20.5,7.3c-4.1-0.2-4.7-1.7-3.6-5.1
		c2.1-5.9,4.2-11.9,6.4-17.9L68.8,239.6z"/>
	<path class="st6" d="M61.1,169.8c1.2,1.2,2.4,2.3,3.5,3.5c6.4,7.3,13.3,10,22.9,5.1c5.9-2.9,12.9-3.4,19.4-5
		c2.2,6.7,6,8.9,12.1,4.1c2.4,1.1,2.8,3.2,2.9,5.5c-2.3,0.7-4.7,1.3-7.2,1.7c-8.3,0.9-11.8,5.2-9.7,14.3c-2.8-1.8-5-2.6-7.4-2.5
		c0.2-3,3-5.4,1.1-10.6C96,196.6,87.6,202.3,85,211.7l0.1-0.1c-1.9-1.6-5.1,1.9-6.6-1.6c1.9-1.6,2.3-4-0.5-4
		c-13.1-0.1-17.9-10.6-24.3-18.9c-3-3.9-5.1-8.5-7.7-12.7c2-3.8,9.4-1.4,9-7.8C57.8,166.3,59.1,168.8,61.1,169.8z"/>
	<path class="st6" d="M123,175.4c3.1-1.5,5.9,0.8,8.8,0.7c13.3,4.4,25,2.6,35.6-7.4c4.7-4.4,9.7-9,16.3-10.9l4.5,3
		c-5.5,13-13.9,24.6-24.6,33.9c-7.3,6.4-19,4.9-28.6,7c-2.7-0.5-6.5,1.2-6.5-3.9C128.6,189.8,124.9,182.8,123,175.4z"/>
	<path class="st7" d="M293.4,154.4c-1.6-5.9-3.7-12.3,2.5-16.6c8.4-5.9,23.7-5.7,29-0.4c1.9,1.7,2.9,4.2,2.7,6.7
		c-0.7,6.3,2,9.7,8,11.6c3.9,1.2,8.3,3.3,7.9,8.4c-0.4,4.7-4.7,6.9-8.6,8.1c-3.6,1.2-7.6,1.2-11.4,1.7c-3.9-3.4-3.9-8.5-5.5-12.9
		l0.3-2.6c4.1-5.1,3.4-8.5-2.4-9.7c-3.8-0.8-7.8-0.9-11-3.3c-4.5-3.4-6.3-2-6.6,3c-0.1,1.9-0.2,3.9-0.4,5.8L293.4,154.4z"/>
	<path class="st1" d="M78.5,210c1.5,3.5,4.7,0,6.6,1.6c-3,6.2-9.2,9.1-13.8,13.7c-4.4,4.4-7,8.6-2.6,14.4l-10.2,13.6
		c-8.7-5.2-11.3-13.8-11.6-22.9c-0.2-7.5,7.4-10,12.5-12.9C65.3,214.2,71.5,210.8,78.5,210z"/>
	<path class="st8" d="M55.1,166.6c0.3,6.5-7,4.1-9,7.8c-0.4-8.1-6.3-13-10.7-18.8c-3.4-4.5-4-9.5,0.4-12.2c3.3-2,7.6,0.4,9.9,4.7
		c1.6,3,4,8.1,7,1.1c3.8,4.8-4.2,9.9,0.7,14.8l1.8,2.7L55.1,166.6z"/>
	<path class="st9" d="M340.3,181c-6-0.7-7.3,3.6-8.9,7.9c-5,13.7-5.7,28.2-8,42.4c-0.5,3.3-0.7,6.6-5.4,7.9
		c1.6-16.8,2.6-33.3,7.6-49.3c1.3-4.6,4.1-8.6,7.8-11.4C336,178.3,338.5,178.5,340.3,181z"/>
	<path class="st10" d="M231.3,185.3c0.5,2.5-0.5,4.6-1.4,6.7c-15-3.1-16.3-5-13.6-18.2c0.7-3.3,1.1-7.3,5.5-6.7s1.9,4.9,2.7,7.5
		c-0.6,0.5-1,1.1-0.2,1.6c0.1,0.1,0.7-0.5,1.1-0.8c2.1-1.4,3.6-1.8,3.3,1.7C228.4,180.2,226.3,184,231.3,185.3z"/>
	<path class="st8" d="M317.9,161.1c1.6,4.4,1.6,9.5,5.5,12.9l3.5,4.2c-2.2,4.9-7.8,5.5-11.6,7.1c-5.2,2.2-4.7-3.6-4.8-7.2
		c-0.3-1.5-0.6-3-0.9-4.4c-0.1-1.8-0.3-3.6-0.4-5.4L317.9,161.1z"/>
	<path class="st11" d="M317.9,161.1l-8.7,7.2c-7.2,0.6-9.6-7.7-16.1-8.5l0.2-5.4h4.4c3.8,2.5,8.1,3.1,11.8,1
		c4.6-2.6,6.7-0.5,8.6,3.1L317.9,161.1z"/>
	<path class="st8" d="M188.2,160.7l-4.5-3c0.6-3.2-1-5.9-2-9.7c2.7,0.1,6.4,3.3,7.4-1.9c0.5-2.4,2.1-5.1,5.3-3.1
		c2.7,1.6,4.8,4.2,3.3,7.6C195.7,155,192.9,158.8,188.2,160.7z"/>
	<path class="st10" d="M317.7,250.1c-2.8,4.9-3,10.3-3.5,15.7c-2.5,1.5-6.1-1.2-8,2.3c-2.6-3.3-1.1-7-1-10.5
		c2.1-3.4,3.4-7.4,7.4-9.3L317.7,250.1z"/>
	<path class="st7" d="M293.1,159.8c6.5,0.8,8.9,9.1,16.1,8.5c0.1,1.8,0.3,3.6,0.4,5.4c-4.6,0.1-9.2-0.7-13.5-2.5
		C290.2,168.8,287.5,165.3,293.1,159.8z"/>
	<path class="st12" d="M312.7,248.2c-4,1.9-5.3,5.9-7.4,9.3c-3.5-4.9-1.8-10.4-1.5-15.7c1.9,0.1,3.8,0.1,5.7,0
		C316.4,241.1,314.6,244.6,312.7,248.2z"/>
	<path class="st13" d="M123,175.4c2,7.4,5.6,14.4,5.5,22.3c-0.1,5.1,3.8,3.4,6.5,3.9c-2.1,2.3-5.1,1.3-7.7,1.9
		c-2.8-3-2.3-6.7-2.3-10.3c-0.1-1.1-0.2-2.2-0.3-3.3c-0.4-1.1-0.9-2.3-1.3-3.4c-0.1-1.3-0.3-2.7-1.6-3.4l0.2-0.2
		c-0.1-2.3-0.5-4.4-2.9-5.5l0.9-2L123,175.4z"/>
	<path class="st12" d="M306.3,268.1c1.8-3.6,5.5-0.9,8-2.3l0.5,10.4C308,277.4,305.8,274.1,306.3,268.1z"/>
	<path class="st6" d="M55.1,166.7l-1.8-2.7L55.1,166.7z"/>
	<path class="st11" d="M349.3,233.2l3.4,10.6c-4.7,2.5-8.7,0.1-12.8-1.2C341.2,238.1,344.8,234.5,349.3,233.2z"/>
	<path class="st1" d="M85,211.6c2.5-9.3,11-15.1,13.9-25.9c1.8,5.2-0.9,7.7-1.1,10.6C93.8,201.7,91.3,208.3,85,211.6z"/>
	<path class="st6" d="M121.8,183.2c1.4,0.7,1.5,2.1,1.6,3.4C122,185.9,121.7,184.6,121.8,183.2z"/>
	<path class="st6" d="M124.7,190c0.1,1.1,0.2,2.2,0.3,3.3C123.4,192.3,123.2,191.2,124.7,190z"/>
	<path class="st14" d="M120,175.5l-0.9,2c-6.1,4.8-9.9,2.6-12.1-4.1c2.5-6.1,10-10.7,4.8-19c-1.3-2,0.4-4.1,3.1-4.7
		c2.4-0.6,4.7-2.1,7-2.2c3-0.1,5.3-7.2,8.6-1.1s1,17.8-3.9,18.1C117.7,165,120.2,170.7,120,175.5z"/>
	<path class="st15" d="M318.2,158.6c-1.9-3.6-3.9-5.7-8.6-3.1c-3.7,2.1-8.1,1.4-11.8-1c0.1-1.9,0.2-3.9,0.4-5.8c0.3-5,2.2-6.4,6.6-3
		c3.2,2.4,7.2,2.5,11,3.3C321.6,150.1,322.3,153.5,318.2,158.6z"/>
	<path class="st0" d="M225.4,175.5c-0.4,0.3-0.9,0.9-1.1,0.8c-0.9-0.6-0.4-1.1,0.2-1.6C224.8,174.9,225.1,175.2,225.4,175.5z"/>
</g>
</svg>
