<svg id="Layer_1" data-name="Layer 1" xmlns="http://www.w3.org/2000/svg" viewBox="0 0 295.27 251.04"><defs><style>.cls-1,.cls-2,.cls-3,.cls-4,.cls-6{fill:#fff;}.cls-1,.cls-2,.cls-4,.cls-6{stroke:#ff5e3a;stroke-miterlimit:10;}.cls-1{stroke-width:4px;}.cls-2{stroke-width:3px;}.cls-4{stroke-width:6px;}.cls-5{fill:#ff5e3a;}.cls-6{stroke-width:2px;}</style></defs><title>logo-corona</title><path class="cls-1" d="M145.62,118.9a19.9,19.9,0,0,0-8.62-2.5c-5.52-.31-9.53,1.5-11.18-.18-.79-.8-.53-1.85-.34-3,1.39-8.17-2.3-12,.21-13.5,2-1.2,4.14,1.09,11.16,1.65,5,.4,7.32-.48,9.29-.55" transform="translate(-122.79 -18.53)"/><path class="cls-1" d="M225.05,99.7a20.06,20.06,0,0,0,8.69,2.24c5.53.13,9.48-1.81,11.19-.18.81.77.58,1.83.42,3-1.13,8.21,2.68,11.87.22,13.5-1.91,1.26-4.17-1-11.21-1.3-5-.24-7.3.71-9.26.84" transform="translate(-122.79 -18.53)"/><path class="cls-1" d="M195.9,150.24a20.17,20.17,0,0,0-2.4,8.65c-.23,5.53,1.62,9.51,0,11.19-.78.79-1.84.55-3,.37-8.19-1.29-11.92,2.45-13.5,0-1.23-1.93,1-4.14,1.51-11.18.34-5-.57-7.31-.66-9.28" transform="translate(-122.79 -18.53)"/><path class="cls-1" d="M176.37,74.37a19.93,19.93,0,0,0,2.13-8.72c.06-5.53-1.92-9.45-.32-11.18.77-.82,1.83-.61,3-.46,8.22,1,11.84-2.83,13.49-.38,1.29,1.89-.91,4.17-1.16,11.22-.18,5,.8,7.29.95,9.25" transform="translate(-122.79 -18.53)"/><path class="cls-1" d="M164.84,145.12a20.16,20.16,0,0,0-7.75,4.52c-4,3.8-5.47,8-7.83,8-1.12,0-1.7-.89-2.39-1.8-5-6.64-10.24-6.56-9.64-9.45.48-2.25,3.64-2.25,8.89-6.95,3.71-3.34,4.69-5.64,6-7.12" transform="translate(-122.79 -18.53)"/><path class="cls-1" d="M208.35,74.74a20,20,0,0,0,8.21-3.61c4.44-3.31,6.35-7.27,8.7-7,1.11.1,1.58,1.08,2.16,2.06,4.18,7.16,9.43,7.69,8.5,10.49-.73,2.17-3.87,1.81-9.62,5.89-4.07,2.89-5.31,5.07-6.77,6.38" transform="translate(-122.79 -18.53)"/><path class="cls-1" d="M152.59,90.33a19.93,19.93,0,0,0-4.43-7.8c-3.75-4.07-7.89-5.56-7.91-7.92,0-1.12.91-1.69,1.84-2.36,6.68-4.89,6.67-10.18,9.55-9.54,2.24.5,2.2,3.67,6.85,9,3.29,3.75,5.59,4.76,7,6.08" transform="translate(-122.79 -18.53)"/><path class="cls-1" d="M222.9,133a20,20,0,0,0,4.68,7.65c3.88,3.95,8.06,5.31,8.15,7.67,0,1.12-.86,1.72-1.76,2.42-6.53,5.1-6.35,10.38-9.25,9.83-2.25-.42-2.31-3.59-7.13-8.74-3.41-3.64-5.73-4.57-7.23-5.85" transform="translate(-122.79 -18.53)"/><path class="cls-2" d="M143.22,95.81a45.38,45.38,0,1,1-2.58,18.12" transform="translate(-122.79 -18.53)"/><path class="cls-2" d="M140.64,113.93c-.06-.91-.08-1.84-.08-2.77a45.34,45.34,0,0,1,2.66-15.35" transform="translate(-122.79 -18.53)"/><path class="cls-3" d="M224,80a.19.19,0,0,0,0-.08,3,3,0,0,0-.61-2.54,2.52,2.52,0,0,0-1.94-1.9,2.62,2.62,0,0,0-3.67-.75l-.12.08a2.66,2.66,0,0,0-3.46-.49c-1.24.69-3,1.32-3.78,2.6a3.19,3.19,0,0,0,1.37,4.32A6,6,0,0,0,215,82a2.77,2.77,0,0,0,2,2.19,2.9,2.9,0,0,0,3.82.82c.86-.65,1.69-1.3,2.48-2A2.87,2.87,0,0,0,224,80Z" transform="translate(-122.79 -18.53)"/><path class="cls-3" d="M162.8,142.2c-.37-1.38-2.12-2.61-3.57-2l-.36.16a3,3,0,0,0-.53-.16,3.1,3.1,0,0,0-2.54-3.79c-1.16-1.55-3.94-1.91-4.88.15-.24.52-.94.89-1.33,1.34-.17.2-.32.41-.47.62a5.12,5.12,0,0,0-1.07,1.44,2.85,2.85,0,0,0-.22.7l-.09.06c-3.13,1.9-.52,6.49,2.67,5.13a2.59,2.59,0,0,0,2,1.61,2.73,2.73,0,0,0,2.85.85c2-.49,3.61-1.77,5.48-2.52A3,3,0,0,0,162.8,142.2Z" transform="translate(-122.79 -18.53)"/><path class="cls-3" d="M161.55,76.67A3.75,3.75,0,0,0,159.83,75c-.77-.42-.7-.28-1.16-.92a4.06,4.06,0,0,0-5.29-1.4A1.91,1.91,0,0,0,152.3,74,2.44,2.44,0,0,0,150.81,78a2.44,2.44,0,0,0-1.26.83,2.41,2.41,0,0,0,.19,3.18,18,18,0,0,0,1.45,1.16l.3.21a2.51,2.51,0,0,0,1.39,1,2.94,2.94,0,0,0,3.52-3.34l.11-.24a2.48,2.48,0,0,0,.85.14h.19a2.35,2.35,0,0,0,1.68-.7,2.52,2.52,0,0,0,1.45-.3A2.48,2.48,0,0,0,161.55,76.67Z" transform="translate(-122.79 -18.53)"/><path class="cls-3" d="M225.88,144.73c-.6-.95-1.11-2-1.65-2.94,0-.06,0-.11,0-.17s-.06-.38-.09-.57a2.26,2.26,0,0,0,0-1.57l-.06-.14a3.92,3.92,0,0,0-.57-1.57c-.21-.33-.41-.65-.59-1l-.09-.21c-.09-.22-.15-.44-.22-.66a2.44,2.44,0,0,0-3-1.69,2.6,2.6,0,0,0-1.15.74,2.21,2.21,0,0,0-1.49,2.19,13.22,13.22,0,0,0,.37,2.11,3.09,3.09,0,0,0-2.67.05,2.59,2.59,0,0,0-.9.9L212.4,140c-2.59-.33-3,3.32-1.22,4.51.31.21.63.42,1,.62a3.61,3.61,0,0,0,.45.42,15.34,15.34,0,0,0,2.19,1.68,2.27,2.27,0,0,0,1,.56l.32.16a1.84,1.84,0,0,0,.9.29l.3,0,.86.33a1.89,1.89,0,0,0,.94.09c.42.19.85.36,1.28.54a2.33,2.33,0,0,0,2.63-1C225,148.91,227.09,146.64,225.88,144.73Z" transform="translate(-122.79 -18.53)"/><path class="cls-4" d="M206.6,158.24c-3.88-1.88-9-4.69-17.82-5.18-11.43-.63-19.71,3.11-23.14-.36-1.62-1.65-1.08-3.82-.68-6.15,2.87-16.9-4.77-24.72.43-27.92,4-2.48,8.55,2.27,23.08,3.42,10.28.82,15.14-1,19.21-1.14" transform="translate(-122.79 -18.53)"/><path class="cls-4" d="M370.88,118.54c3.94,1.75,9.1,4.4,18,4.62,11.43.27,19.59-3.74,23.13-.37,1.68,1.59,1.2,3.78.88,6.12-2.34,17,5.54,24.55.44,27.92-3.95,2.61-8.61-2-23.17-2.69-10.3-.5-15.1,1.47-19.16,1.74" transform="translate(-122.79 -18.53)"/><path class="cls-4" d="M310.6,223.07c-1.83,3.9-4.58,9-5,17.88-.5,11.43,3.35,19.67-.08,23.14-1.63,1.64-3.81,1.13-6.14.76-16.93-2.67-24.66,5.06-27.92-.1-2.54-4,2.16-8.57,3.14-23.11.69-10.29-1.18-15.13-1.38-19.2" transform="translate(-122.79 -18.53)"/><path class="cls-4" d="M270.2,66.14c1.71-4,4.3-9.15,4.4-18,.13-11.44-4-19.55-.65-23.13,1.58-1.7,3.77-1.25,6.12-1,17,2.14,24.48-5.83,27.91-.78,2.65,3.92-1.89,8.64-2.41,23.2-.37,10.31,1.65,15.09,2,19.14" transform="translate(-122.79 -18.53)"/><path class="cls-4" d="M246.36,212.47c-4,1.52-9.57,3.26-16,9.35-8.33,7.85-11.32,16.43-16.2,16.53-2.31,0-3.52-1.85-4.93-3.74C198.93,220.89,188,221,189.26,215.06c1-4.63,7.53-4.63,18.37-14.37C215.31,193.8,217.34,189,220,186" transform="translate(-122.79 -18.53)"/><path class="cls-4" d="M336.34,66.9c4.18-1.05,9.88-2.15,17-7.46,9.17-6.85,13.12-15,18-14.57,2.3.22,3.28,2.23,4.47,4.27C384.42,64,395.29,65,393.36,70.84c-1.5,4.49-8,3.74-19.89,12.18-8.41,6-11,10.48-14,13.2" transform="translate(-122.79 -18.53)"/><path class="cls-4" d="M221,99.15c-1.48-4.05-3.16-9.6-9.18-16.13-7.76-8.41-16.31-11.5-16.35-16.38,0-2.31,1.89-3.49,3.79-4.89,13.84-10.12,13.8-21,19.77-19.72,4.62,1,4.55,7.58,14.17,18.53,6.8,7.74,11.55,9.83,14.57,12.56" transform="translate(-122.79 -18.53)"/><path class="cls-4" d="M366.44,187.39c1.6,4,3.45,9.5,9.68,15.84,8,8.16,16.66,11,16.85,15.85.09,2.31-1.77,3.56-3.63,5-13.51,10.55-13.14,21.47-19.14,20.34-4.65-.88-4.79-7.43-14.74-18.08-7-7.53-11.87-9.46-15-12.1" transform="translate(-122.79 -18.53)"/><path class="cls-4" d="M201.64,110.47A93.87,93.87,0,1,1,196.3,148" transform="translate(-122.79 -18.53)"/><path class="cls-4" d="M196.3,148c-.11-1.9-.17-3.81-.17-5.74a93.88,93.88,0,0,1,5.51-31.76" transform="translate(-122.79 -18.53)"/><path class="cls-3" d="M368.7,77.69c0-.06,0-.11,0-.17a6.34,6.34,0,0,0-1.28-5.26,5.15,5.15,0,0,0-4-3.92,5.41,5.41,0,0,0-7.59-1.57l-.26.17a5.51,5.51,0,0,0-7.14-1c-2.57,1.44-6.28,2.73-7.83,5.39-1.92,3.28-.24,7.14,2.83,8.94A12.37,12.37,0,0,0,350.11,82a5.74,5.74,0,0,0,4.21,4.53c1.69,2.27,5.46,3.54,7.91,1.7,1.77-1.34,3.48-2.7,5.11-4.2A5.91,5.91,0,0,0,368.7,77.69Z" transform="translate(-122.79 -18.53)"/><path class="cls-3" d="M242.13,206.44c-.75-2.87-4.38-5.4-7.38-4.19l-.74.32a6.36,6.36,0,0,0-1.1-.31c.94-3.47-1.67-7.56-5.25-7.86-2.41-3.19-8.16-3.94-10.1.32-.5,1.08-1.93,1.85-2.74,2.77a11.75,11.75,0,0,0-1,1.29,10.36,10.36,0,0,0-2.23,3,6.08,6.08,0,0,0-.44,1.45l-.2.12c-6.46,3.92-1.07,13.42,5.54,10.6a5.29,5.29,0,0,0,4.19,3.33,5.63,5.63,0,0,0,5.9,1.75c4.06-1,7.47-3.64,11.33-5.19C241,212.6,243,209.83,242.13,206.44Z" transform="translate(-122.79 -18.53)"/><path class="cls-3" d="M239.55,70.9A7.87,7.87,0,0,0,236,67.35c-1.61-.86-1.45-.56-2.41-1.89-2.76-3.79-6.68-4.75-10.93-2.9a4,4,0,0,0-2.24,2.73c-3.49.57-6.26,5.1-3.09,8.39a5,5,0,0,0-2.2,8.3,36.09,36.09,0,0,0,3,2.4l.63.44a5.26,5.26,0,0,0,2.87,2.09,5.38,5.38,0,0,0,3.07-.14c3.26-.41,5-4,4.21-6.77.07-.17.14-.34.22-.5a5.13,5.13,0,0,0,1.77.3h.4a4.77,4.77,0,0,0,3.46-1.44,5.17,5.17,0,0,0,3-.62C240.31,76.25,240.63,73.39,239.55,70.9Z" transform="translate(-122.79 -18.53)"/><path class="cls-3" d="M372.61,211.66c-1.25-2-2.3-4-3.43-6.09,0-.12,0-.22,0-.34-.05-.4-.12-.79-.19-1.19a4.6,4.6,0,0,0,.07-3.23c0-.1-.07-.2-.11-.3a8.23,8.23,0,0,0-1.18-3.25c-.43-.68-.85-1.34-1.22-2l-.19-.42c-.18-.46-.32-.92-.45-1.38a5.07,5.07,0,0,0-6.15-3.49,5.5,5.5,0,0,0-2.37,1.53A4.57,4.57,0,0,0,354.3,196a27.65,27.65,0,0,0,.75,4.36,6.37,6.37,0,0,0-5.51.11,5.37,5.37,0,0,0-1.87,1.86c-1-.16-2-.29-3-.42-5.35-.7-6.17,6.86-2.52,9.31.65.44,1.32.87,2,1.29a7.91,7.91,0,0,0,.95.87c1.57,1.2,2.77,2.56,4.53,3.48a4.52,4.52,0,0,0,2.07,1.15c.22.11.44.23.67.33a3.66,3.66,0,0,0,1.86.6c.21,0,.41.06.62.08l1.78.68a3.9,3.9,0,0,0,1.94.2l2.66,1.1c2,.8,4.24-.36,5.44-2.06C370.71,220.3,375.1,215.62,372.61,211.66Z" transform="translate(-122.79 -18.53)"/><path class="cls-2" d="M326.17,168.32c-7.23,11.91-34.79,12.76-41.3,1.38s8.09-35.12,21.84-35.58S333.47,156.48,326.17,168.32Z" transform="translate(-122.79 -18.53)"/><path class="cls-5" d="M303.05,161.34c-1.54,2.54-7.43,2.73-8.81.3s1.72-7.5,4.66-7.6S304.61,158.82,303.05,161.34Z" transform="translate(-122.79 -18.53)"/><path class="cls-5" d="M314.94,149.67c-1.55,2.54-7.43,2.72-8.82.29s1.73-7.5,4.66-7.59S316.5,147.14,314.94,149.67Z" transform="translate(-122.79 -18.53)"/><path class="cls-5" d="M317.45,170.66c-1.54,2.54-7.42,2.72-8.81.29s1.72-7.49,4.66-7.59S319,168.13,317.45,170.66Z" transform="translate(-122.79 -18.53)"/><path class="cls-6" d="M191.73,98.85c-2.83,4.67-13.63,5-16.18.54s3.17-13.75,8.56-13.93S194.59,94.22,191.73,98.85Z" transform="translate(-122.79 -18.53)"/><path class="cls-5" d="M188.21,97.94c-.6,1-2.9,1.07-3.45.12s.68-2.94,1.83-3A2.14,2.14,0,0,1,188.21,97.94Z" transform="translate(-122.79 -18.53)"/><path class="cls-5" d="M183.79,94.89c-.61,1-2.91,1.06-3.46.11s.68-2.93,1.83-3A2.15,2.15,0,0,1,183.79,94.89Z" transform="translate(-122.79 -18.53)"/></svg>