<?xml version="1.0" encoding="utf-8"?>
<!-- Generator: Adobe Illustrator 23.0.2, SVG Export Plug-In . SVG Version: 6.00 Build 0)  -->
<svg version="1.1" id="Layer_1" xmlns="http://www.w3.org/2000/svg" xmlns:xlink="http://www.w3.org/1999/xlink" x="0px" y="0px"
	 viewBox="0 0 239.2 251.2" style="enable-background:new 0 0 239.2 251.2;" xml:space="preserve">
<style type="text/css">
	.st0{fill:#A3D5E3;}
	.st1{fill:#37A7DD;}
	.st2{fill:#6A75B7;}
	.st3{fill:#EF798E;}
	.st4{fill:#D3657A;}
	.st5{fill:#F19AAA;}
	.st6{fill:#B190C0;}
	.st7{fill:#2E7EBB;}
	.st8{fill:#9798CB;}
	.st9{fill:#88689D;}
	.st10{fill:#DBECF3;}
	.st11{fill:#22304D;}
	.st12{fill:#F7DE68;}
	.st13{fill:#E49B7B;}
	.st14{fill:#41B2E5;}
	.st15{fill:#FEFEFE;}
</style>
<title>spreads</title>
<g>
	<path class="st0" d="M159.8,68c3.1-0.2,5.2,1.9,7.6,3.3c6.9,4.1,13.6,8.8,19.9,13.8c1.3,1,2.6,2.1,2.9,3.9c-1.1,0.3-2.4,0-3.2,1
		c-0.3-0.1-0.7,0-1,0.1l-1.1,0.9c-1.4,1.3-1.3,2.9-0.7,4.5c0.8,2.2,3,3.6,5.4,3.2c1.7-0.2,2.9-2.4,1.3-4.6l0.5-0.1
		c4.9,2.4,2.5,6.5,2,9.9c-0.3,2-1.5,4-1.6,6.2c-1.6,2.2-3.5,3.5-6.6,3c-2-0.3-4.3-0.7-6.1,1l-2.1,1.8c-5,2.2-3.5,8-6.2,11.5
		c-0.7,0.9,2,0.7,2.7,2.5c2.4,5.8,5.7,7.4,13.6,8c1.9,3.6,1.4,8,3.8,11.4c0.8,1.9-1.7,2.3-1.8,3.9c-0.2,1-1,1.7-1.3,2.9
		c-1,5.3,4.1,6.5,6,9.8c0.8,2.8-0.8,5.4-0.9,8.1c-3.3,0.6-3.2,3.5-3.9,5.8c-4.7,4.2-10,7.3-15.3,10.6c-0.6,0.6-1.6,0.5-2.1-0.1
		c0,0,0,0,0,0c0.6-2,0.6-4,0.1-6c-0.2-5.2-4.4-2.6-6.8-3.5s-1.5,1.3-2,2.2v0.1c-0.6,0.2-1.2-0.7-1.8,0.7c-1.4,3.4,0.7,5.8,2,8.5
		c-5.5,2-10.6-0.2-15.4-2.4c-4.4-1.9-9.1-3.2-13.9-3.8c2.1-4.1,0.7-8.1,0-12.2l3,1.2c2.4,2.8,4.2,6.8,8.9,5.8s8.3-3.6,9.7-8.7
		c1.2-4.6,2-9.3,2.3-14c0.9-9.2-2.4-17.3-6.9-25.1l-1.3-5.1l1.3-3l1.9,1.1l1,1l1,1l1,1l1,1l1,1l2,2c0.4,0.7,1.2,1.1,2,1
		c0.1,1.9,1.5,2,3,2l1,1c0.3,2,1.7,2.5,3.7,2.8c-0.9-1.9-2-2.7-3.6-2.9l-1-1c-0.5-1.2-1.7-2-3-2c-0.4-0.7-1.2-1.1-2-1
		c0.1-1-0.5-1.9-1.5-2c-0.2,0-0.3,0-0.5,0l-1-1l-1-1l-1-1l-1-1l-1-1c0-1.3-0.7-2.5-2-3.1c-0.6-2.3-1.1-4.7-3.2-6.3
		c-2.4-5.3-2-11-1.9-16.6c1.7-0.8,2.1-2.3,2-4l0.4-0.5l-0.5,0.5c-1.7,0.8-2.1,2.3-2,4c-1.5,1.3-1.8,2.9-2,4.8c-0.3,4,1.3,7.6,2,11.4
		c-6.5-2.5-7.1-1.9-9.8,3.5c-2.3,4.5-0.3,6.1,3.4,7.6c1.2,0.6,2.3,1.3,3.3,2.1c-1,4.7-2.5,9.4-0.3,14.1c0.5,1.1,0.2,2.3-0.8,3
		l-2-1.2c-1.3-3.4-2.5-6.8-3.8-10.2c-1.8-4.7-5-7.2-10.2-7.2c-0.6-2.6-0.4-6-4.8-4.5l-0.1-2.2c6.3-1.4,9.3-5,9.8-12.1
		c0.6-4.3-0.3-8.5-0.7-12.8c2.8-1.2,3.5-3.4,2.6-6.1c-1.1-3.3-4.3-4.1-7.2-5.1c-6.3-2.4-12.7-1.8-18.8,0.5c-2.9,1.1-6.3,1.8-6.7,6.6
		c-0.4,3.9-0.6,7.8-0.6,11.7c0.1,6,1.9,8.2,8.2,8.3c0.2,0.1,0.4,0.2,0.7,0.2l1,0.6l-0.1-0.1l0.2,2.3l-0.4,6.8
		c-4.5-1.1-3.1,3.2-4.5,4.9c-1.8,0.2-3.6,0.5-5.4,0.7c-5.7,0.4-10.2,2.4-12,8.4c-2.4,6.4-2,13.2-3.3,19.8c-1,5.5-1.4,11,0.2,16.5
		c0.2,2.8-0.2,5.6,0.9,8.3c3.3,7.8,9.7,9.1,17.2,8.5v1c-10,0.8-20,1.7-29.9-0.1l-0.8-0.7l2.9-3.3c2.9-4.6,2.4-10.9-1.6-11.9
		c-2.2-0.5-5,1-7.4-0.6c0,2.7-3.6,3-3.6,5.7l-2.5-0.3l0,0c0-6.7-0.4-13.5,1-20.1c1.6-2.4,2.7-5.2,3.2-8.1c1.1-0.7,0.9-1.8,0.9-2.8
		c3.5,0,3-2.1,2.7-4.9c-1.8,1.8-2.6,3.2-2.7,4.9c-0.3,0-0.6,0-0.9,0c-0.5-1.5-2.4-2.2-2.3-4c-0.9-3.4-4.3-3.6-6.6-5.2
		c-0.9-6.5-2-13.1-2.8-19.6c-0.6-3.5-0.5-7,0.4-10.4c2.1-0.2,4.5,0,5.3-2.8h-0.1c0.5-0.1,0.9-0.2,1.4-0.2c1.9-0.2,0.9-0.4,0-0.6
		c2.8-5.8-2.8-6.8-5.4-9.6c2.5-5.3,4.8-10.7,8.1-15.6c0.3,0.1,0.8,0,0.9,0.2c4,5.7,7.7,6.5,13.6,3c1-0.6,0.7-0.8,0.2-1.3
		c-1.6-1.5-0.1-3.5-0.7-5.2c0.6-2.1-1.7-2.9-2.1-4.6l12-8.3c0.7,0.8,1.7,1.3,2.1,2.6c1.3,4.5,5,5.9,9.1,6.5c4.4,0.8,8.8-1.3,11-5.2
		c1.8-2.9,1-6.4,0.8-9.7c4.3-2,8.2,1.6,12.6,0.9c3.3-0.5,7.1-1.2,10.5,0.8c-1.7,0.6-4.1-1.1-5.1,1.6c-2.3,1.8-0.6,4.1-0.6,6.1
		c-3.1,0.5-6.1,1.8-8.5,3.9c3.2-0.5,6.3-1.2,8.7-3.7c1.8-0.3,3.9,0.9,5.5-1c0.8,0,1.5-0.1,2-0.9c1.6-0.1,3.2-0.1,4.5-2h-4.5
		c0.2-1.8-2.3-2.2-2-4.1c3.7-0.1,7.4,0.3,11,1.2l-2.3,2.9c1.5,0.1,2.7,0.2,3.3-1.1c5.8-0.2,11.6,1.6,16.3,5c-2.2,1.7-5.5-0.5-7.5,2
		l-1,0.9c-3.1,1.3-2.4,4.7-3.9,6.9c2.7,1.5,3.5,5.6,7.2,5.5c2.6-0.1,5.8,0.3,6.9-3.3c1.9-2.1,0.8-4.6,0.7-6.9
		C162.1,71.1,159,70.3,159.8,68z M181.1,147.1l-0.5-0.4l0.4,0.5l1,1l1.1,0.8l0.3-0.4l-1.3-0.5C181.8,147.7,181.4,147.4,181.1,147.1z
		 M170.1,85.1l-1.4,0.4c0.1,0.1,0.3,0.4,0.3,0.4C169.4,85.7,169.7,85.4,170.1,85.1l1.4-0.4c-0.1-0.1-0.3-0.4-0.3-0.4
		C170.8,84.6,170.4,84.8,170.1,85.1z M178.1,145.1l0.5,0.4L178.1,145.1c-0.4-0.7-1.2-1.1-2-1l-1-1c-0.4-0.3-0.8-0.5-1.2-0.7
		c-0.1,0.1-0.2,0.2-0.3,0.4l1.4,0.4l1,1C176.5,144.8,177.3,145.2,178.1,145.1z M68.1,140.1c-0.3,0.4-0.5,0.8-0.7,1.2
		c0,0,0.2,0.2,0.4,0.3C67.9,141.1,68,140.6,68.1,140.1l1.1-0.9c1.5-1.8,3.2-3.4,3-6c1.3-1.1,2-2.8,1.9-4.6c0.3-2,2.1-1.1,3.2-1.7
		c2.8-1.4,3.5-3.8,1.9-6.7c-0.6-3.9-2.5-5.1-6.1-3c-2.6-0.8-3,1.4-3.8,2.9c-2.3,4.5,2.5,5.8,4,8.6c-0.6,1.4-1.3,2.8-1.1,4.4
		c-2.2,1.4-2.9,3.5-3,6L68.1,140.1z M108.1,76.1c-0.8-0.1-1.6,0.3-2,1l-1.4,0.4c0.1,0.1,0.2,0.3,0.3,0.4c0.4-0.2,0.8-0.5,1.1-0.7
		C107,77.3,107.7,76.9,108.1,76.1l0.5-0.4L108.1,76.1z M111.1,74.1c0.8,0.1,1.6-0.3,2-1l1.4-0.4c-0.1-0.1-0.3-0.4-0.3-0.4
		c-0.4,0.2-0.8,0.5-1.1,0.7C112.2,73,111.5,73.4,111.1,74.1l-0.5,0.4L111.1,74.1z M97.1,83.1l1.6-0.8l-0.4-0.6L97.1,83.1l-1,1
		c-1.3,0.4-2.1,1.7-2,3l-1.6,0.8l0.4,0.6l1.2-1.4c1.3-0.4,2.1-1.7,2-3L97.1,83.1z M162.1,88.1c1.1,0,2.3,0.2,3-1l1.4-0.5
		c-0.1-0.1-0.2-0.3-0.3-0.4c-0.4,0.2-0.8,0.5-1.2,0.7c-1.1,0-2.3-0.1-3,1c-0.8,0-1.6,0.1-2,1c-1.1,0-2.3-0.2-3,1l-0.4,0.5l0.5-0.4
		c1.1,0,2.3,0.2,3-1C160.9,89.2,161.7,88.8,162.1,88.1z M152.1,93.1l-1.6,0.8l0.4,0.6L152.1,93.1l0.4-0.5L152.1,93.1z M93.1,112.1
		l0.5,0.4L93.1,112.1l-0.4-2.2c-0.1,0.1-0.4,0.1-0.4,0.3C92,110.9,92.4,111.7,93.1,112.1z M176.6,161.1c0.6-0.2,1.6-0.2,1.7-0.5
		c0.9-3.4-0.1-6-3.8-6.7c-3.3-0.7-5.3,0.6-5.4,4.2c0.3,2.7,1.9,4.3,4.4,5.2C175.6,164,175.9,162.3,176.6,161.1L176.6,161.1z
		 M167.2,104.1c3.5-2.7,1.8-5.7-0.3-7.8c-2.4-2.4-5.5-2.8-7.8,0.6c-3.9,2.5-2,5.7-0.3,8.1C160.9,107.9,164.6,107.3,167.2,104.1
		L167.2,104.1z M80.9,106.6c2.1-0.7,3.5-1.8,3.4-4.2c-0.2-2.8-1.9-3.6-4.2-3.6c-1.5-0.1-2.7,1-2.9,2.4c0,0.3,0,0.6,0.1,0.9
		C77.6,104,78.2,106.4,80.9,106.6L80.9,106.6z M63,86.7c-3.6,5.1-2.8,10.3-0.5,15.6C61.5,97.1,61.7,91.8,63,86.7L63,86.7z M79,139.7
		c0.1-1.2-0.8-2.2-1.9-2.4c-1.2-0.3-2.4,0.3-2.7,1.5c-0.1,0.2-0.1,0.4-0.1,0.5c-0.2,1.2,0.5,2.3,1.7,2.5c0.1,0,0.1,0,0.2,0
		C77.7,142.2,78.6,141.3,79,139.7L79,139.7z M91.1,103.9L89.7,96C89.3,98.8,88.3,101.7,91.1,103.9z M94.4,114.8
		c0,0.1-0.2,0.3-0.1,0.4c0.1,0.5,0.4,0.5,0.5,0c0-0.1,0-0.3-0.1-0.4C94.7,114.8,94.5,114.8,94.4,114.8z M91.4,106.8
		c0,0.1-0.1,0.3-0.1,0.4c0.1,0.5,0.3,0.5,0.5,0c0-0.1,0-0.3-0.1-0.4C91.7,106.8,91.5,106.8,91.4,106.8L91.4,106.8z M90.9,93
		l-0.3-0.4c-0.1,0.1-0.3,0.3-0.3,0.3c0.1,0.2,0.3,0.3,0.4,0.5L90.9,93z"/>
	<path class="st1" d="M87.1,136c1.8-6,6.3-8,12-8.4c1.8-0.1,3.6-0.4,5.4-0.7c1.4,2,3.7,3.3,6.1,3.4c2.8,0.2,4.1,1.5,3.8,4.3
		c-1.1,0.9-2.3,1.6-3.6,2.2c-5.6,1.8-6.5,3.1-5.5,8.9c1.6,9.2,4,12.1,10.6,12.3c0.4,2,1.1,3.3,3.2,1.3c0.7-0.9,1.8-1.5,3-1.5
		c0.8,1.8,1.6,3.5,2.4,5.2c0.3,0.7,0.7,1,1.3,0.4c2.1-0.7,3.5-2.4,5.2-3.7c0.2,4.9,2.1,9.4,3.3,14c0.7,4.1,2.1,8.2,0,12.2
		c-6.2-0.4-12,1.9-18.2,1.9c-0.2-3.3,2.2-5.4,3.6-8c2.4-4.4,6.6-8.3,5.1-14.9c-2.1,4.6-3.6,8.8-5.8,12.5
		c-3.7,6.5-10.7,8.5-16.9,11.5c-7.4,0.6-13.9-0.7-17.2-8.5c-1.1-2.7-0.7-5.5-0.9-8.3c0.7-2.1,2.8,0.7,4-1.4
		c4.1-7.3,7.1-14.9,7.1-23.4C95,141.9,90.9,139,87.1,136z M100.1,173.2c-0.3,1.3-0.8,2.5-1.5,3.6c-3,4-0.6,4.7,2.7,4.2
		c6-0.8,11.6-2.5,15.7-7.4c1.3-1.3,2-3.1,2-4.9c-0.1-1.9,1-4.5-0.6-5.6c-1.4-1-3.3,0.7-4.9,1.6c-0.8,0.3-1.6,0.4-2.4,0.4
		c-7.7-0.5-6.5-7.4-8.5-12.3C102.3,159.9,102.1,166.7,100.1,173.2z"/>
	<path class="st0" d="M47.9,172.3c1.8-2.9,3.9-5.5,4.4-9l5.7-2.5c0,1.7-0.2,3.3-0.5,4.9c-0.5,4.6-1.4,9.3,1.6,13.4l0,0
		c-1.3,3.4,2.4,5.2,2.8,8.1c0.1,1,1.1-0.9,1.9-1.1c1.7,3,4.1,4.4,7.5,3.2l0.8,0.7c0.6,0.5,1.3,1.3,1.9,1.4c4.8,0.5,9.5,2.1,14.5,1.1
		c2.8-0.6,5.8-1.4,8.5,0.5c-7.1,1.3-12.8,6.3-19.9,7.5c-6.1,1-12.3,1.4-18.2-0.4c-7.7-2.4-13.3-6.8-13.9-15.6
		c-0.2-0.8-0.6-1.5-1.1-2.2l3.3-1.2c1-0.3,1.9,0,2.6-1.5C51.4,176.4,48.7,174.7,47.9,172.3z"/>
	<path class="st2" d="M108,58.4c0.2,3.3,1,6.8-0.8,9.7c-2.2,3.9-6.6,6-11,5.2c-4.1-0.6-7.8-2-9.1-6.5c-0.4-1.3-1.4-1.8-2.1-2.6
		c2.9-1.6-1.8-5.4,2-6.8c-1.8-2.8,0.1-2.4,2-2.9c1.7-0.5,3.6-2,1.8-5c2.5,2.3,4.5,3.5,6.5,0.3c0.3-0.4,0.5,0.8,0.8,1.3
		c-0.4,0.5-0.7,1.2-1.3,1.5c-2.7,1.2-4.1,4.1-3.1,5.9c1.6,2.3,4,3.8,6.8,4.1c2.4,0.2,4.9-1.9,4.6-5.3
		C106.1,56.8,107.4,57.3,108,58.4z"/>
	<path class="st3" d="M60.9,144.2c-0.1,1.8,1.8,2.5,2.3,4v2.8c-0.4,2.9-1.5,5.7-3.2,8.1c-0.3,0.1-0.6,0.2-0.9,0.3
		c-3.2-1.8-6.9-0.1-10-1.3c-7.5-2.8-8.8-9.1-8.2-16.2c3.5-3.4,7.3-5.5,12.2-2.7c-3.6-0.2-6.2,0.8-6.1,5.1c0.1,3.1,1,6.1,4.2,6.7
		c3.8,0.7,7.1-0.8,7.4-5.1C58.9,143.8,59.8,144.3,60.9,144.2z"/>
	<path class="st3" d="M177,115.9l2.1-1.8c1.2,0.1,3.3-0.1,2.7,1.8c-0.8,2.6,0.7,4.8,0.3,7.3c0,1.8-0.5,3.8,1.7,4.6
		c1.7,0.7,2.7-0.5,3.5-1.8c5.4,1,5.2-5,8.5-6.7c1.6,1.9,1.4,4.3,1.5,6.5c0.1,2.7-3.2,6.1,2.2,8c-1.9-0.6-2.9-1.7-4.4-1.7
		C181.1,136.3,172.8,127.5,177,115.9z"/>
	<path class="st4" d="M41,141.8c-0.7,7.1,0.7,13.4,8.2,16.2c3.1,1.1,6.8-0.5,10,1.3l-1.2,1.5l-5.7,2.5c-8.5,1.2-12.4-4.8-16-10.7
		c-0.4-0.7,0.6-3.5,1-5.3c0.4-1.5,2.2-2.7,0.3-4.3C38.5,142,40.2,143.1,41,141.8z"/>
	<path class="st4" d="M177,115.9c-4.2,11.5,4,20.4,18,16.2c-0.4,4.9-5.4,3.7-7.9,5.8c-7.8-0.6-11.1-2.2-13.6-8
		c-0.8-1.8-3.5-1.5-2.7-2.5C173.6,123.9,172,118.1,177,115.9z"/>
	<path class="st5" d="M195.8,119.3c-3.3,1.7-3.1,7.7-8.5,6.7l-1.1-1.1c0-1-0.9-1.8-1.9-1.7c-0.1,0-0.2,0-0.3,0h-2
		c0.4-2.4-1.1-4.7-0.3-7.3c0.6-1.9-1.5-1.6-2.7-1.8c1.8-1.7,4.1-1.3,6.1-1c3.1,0.5,5-0.8,6.6-3c0.2,3.4,0.5,6.6,4.4,7.8L195.8,119.3
		z"/>
	<path class="st6" d="M189.2,153.1c0.1-1.5,2.5-2,1.8-3.9c2.5-1,5.4,1.3,7.9-0.6c1.6,2.3,4.5,4.6,4.4,6.8c-0.1,2.5,0,6.7-4.2,7.6
		C194.8,160.7,190.4,158.5,189.2,153.1z"/>
	<path class="st5" d="M60.9,144.2c-1.1,0.1-2-0.3-2.2,1.6c-0.4,4.3-3.7,5.8-7.4,5.1c-3.3-0.6-4.2-3.6-4.2-6.7
		c-0.1-4.3,2.5-5.3,6.1-5.1l1.1-0.2C56.6,140.5,60,140.7,60.9,144.2z"/>
	<path class="st2" d="M75.1,77.1c0.6,1.7-0.9,3.6,0.7,5.2c0.5,0.5,0.8,0.7-0.2,1.3c-5.9,3.5-9.6,2.7-13.6-3
		c-0.1-0.2-0.6-0.2-0.9-0.2c1.7-3.1,1.7-7.7,6.9-7.6c-0.8,2-1.6,4.2,0.4,5.9c2.3,1.9,3.4-0.5,4.8-1.6C73.6,76.5,74.5,77,75.1,77.1z"
		/>
	<path class="st7" d="M102,189.2c6.2-3,13.2-5,16.9-11.5c2.1-3.8,3.6-7.9,5.8-12.5c1.4,6.6-2.8,10.5-5.1,14.9
		c-1.4,2.6-3.8,4.7-3.6,8c-4.5,1.4-9.1,2.4-13.7,3c0-0.3,0-0.5-0.2-0.8V189.2z"/>
	<path class="st8" d="M105.1,57.2c0.3,3.4-2.1,5.5-4.6,5.3c-2.7-0.4-5.2-1.9-6.8-4.1c-1-1.8,0.4-4.7,3.1-5.9c0.5-0.2,0.9-1,1.3-1.5
		C101.3,52.2,104.8,52.8,105.1,57.2z"/>
	<path class="st8" d="M189.2,179.8c0.7-2.4,0.5-5.2,3.9-5.8c2.9-0.6,5.7,0.5,6.4,3c0.8,2.6-0.6,5.4-3.2,6.2
		C192.5,184.6,191.1,181.9,189.2,179.8z"/>
	<path class="st6" d="M53.1,95.8c2.6,2.8,8.2,3.8,5.4,9.6l-1.4,0.8h0.1c-4.5,0.2-7.4-2-9.1-6C48.2,96.8,49.7,95.2,53.1,95.8z"/>
	<path class="st3" d="M44.9,124.7c-2.6-0.6-4.1-2-3.9-4.5c0.2-2.2,1.3-3.8,3.9-3.6c2.3,0.2,4.2,1.1,3.9,3.9
		C48.6,122.7,47,124.4,44.9,124.7z"/>
	<path class="st9" d="M189.2,153.1c1.2,5.4,5.5,7.6,9.8,9.9c-0.5,3-4.6-0.3-5.1,2.8c-1.9-3.3-7-4.4-6-9.8
		C188.2,154.8,189.1,154.2,189.2,153.1z"/>
	<path class="st5" d="M152,70c2-2.5,5.2-0.4,7.5-2h0.4c-0.8,2.3,2.3,3.1,2,5.2c-5.2,3.6-5.5,3.5-8.2-2.3
		C153.4,70.5,152.5,70.3,152,70z"/>
	<path class="st10" d="M102,190.2c0.2,0.2,0.2,0.5,0.2,0.8c-1.4,1.6-3.3,1.8-5.2,2.2c-2.7-1.9-5.7-1.1-8.5-0.5
		c-5,1-9.7-0.6-14.5-1.1c-0.7-0.1-1.3-0.9-1.9-1.4C82.1,191.9,92,191,102,190.2z"/>
	<path class="st4" d="M163.3,192.3c-1.3-2.7-3.3-5-2-8.5c0.5-1.4,1.2-0.5,1.8-0.7c0.4,6,1.4,6.8,8.1,7
		C169.3,193.4,166.3,192.9,163.3,192.3z"/>
	<path class="st8" d="M75.1,77.1c-0.6-0.1-1.5-0.5-1.8-0.3c-1.4,1.2-2.5,3.5-4.8,1.6c-2-1.7-1.3-3.8-0.4-5.9c1.6-2.1,3.3-0.5,5-0.1
		C73.4,74.2,75.7,74.9,75.1,77.1z"/>
	<path class="st2" d="M47.2,181.2l-3.3,1.2c-5.2-4.7-5.3-5.3-1.1-9h-0.1h1.4C43.2,176.7,47.4,178.1,47.2,181.2z"/>
	<path class="st8" d="M47.2,181.2c0.2-3.1-4-4.5-3.1-7.9c0.9-1.6,2.8,0.2,3.9-1c0.8,2.4,3.5,4.2,1.9,7.4
		C49.1,181.2,48.2,180.9,47.2,181.2z"/>
	<path class="st3" d="M171.2,190.1c-6.7-0.1-7.7-1-8.1-7v-0.2c0.9,0.2,2.3-0.1,2.6,0.9c1.8,6.1,4,2.1,6.2,0.3c0.6,2,0.5,4-0.1,6
		C171.6,190.1,171.4,190.1,171.2,190.1z"/>
	<path class="st9" d="M48.1,100.1c1.7,4,4.5,6.3,9.1,6c-0.8,2.8-3.2,2.6-5.3,2.8c-1.7-1.2-3.3-2.5-3.8-4.8L48.1,100.1L48.1,100.1z"
		/>
	<path class="st8" d="M187.1,90c0.8-1.1,2.1-0.8,3.2-1c1.9,1.4,3,2.9,1.2,5.1l-0.5,0.1C188,94.3,186.9,92.7,187.1,90z"/>
	<path class="st10" d="M143.1,62.9c-0.7,1.3-1.8,1.2-3.3,1.1l2.3-2.9C142.8,61.4,143.2,62.2,143.1,62.9z"/>
	<path class="st6" d="M48.1,100.1l-0.1,4C45.1,102.7,47.1,101.4,48.1,100.1z"/>
	<path class="st8" d="M42.7,173.3L42.7,173.3L42.7,173.3z"/>
	<path class="st1" d="M157.9,158.1c-0.3,4.7-1,9.4-2.3,14c-1.5,5.1-5,7.7-9.7,8.7s-6.5-3-8.9-5.8c-3.1-5.5-2-11.4-1-17.1
		c0.5-1.6,0.8-3.3,0.9-5.1c0.5-7.2,0.7-7.1-5.8-6.5c3.6-8.5,1.8-11.3-7.1-11.3c-1.5-2.9-4.2-6.1,1.8-7.1c5.1-0.1,8.4,2.5,10.2,7.2
		c1.3,3.4,2.5,6.8,3.8,10.2c-1.5,5.1-0.5,10.1-0.7,16.4c4.8-5.5,3.4-10.4,2.8-15.2c1-0.7,1.3-1.9,0.8-3c-2.2-4.8-0.6-9.4,0.3-14.1
		c2.3-0.4,4.9,1,6.8-1.4c0.4,1.7,0.9,3.4,1.3,5.1c-1.1,1.6-5.5,0.8-3.6,4.4c4.2,8.1,6.2,16.3,2.7,25.2c-0.4,1-0.5,2.5,0.9,3.1
		c1.6,0.6,2.1-0.8,3-1.8C155.8,162.3,155.1,159,157.9,158.1z"/>
	<path class="st11" d="M107.5,112.3c-6.2-0.1-8-2.3-8.2-8.3c0-3.9,0.2-7.8,0.6-11.7c0.5-4.8,3.9-5.5,6.7-6.6
		c6.1-2.3,12.5-2.9,18.8-0.5c2.8,1.1,6,1.8,7.2,5.1c0.9,2.6,0.2,4.9-2.6,6.1c-3.6-2.1-7.8-2.8-11.9-2c-3.5,0.8-9.5,0.4-8.3,7.3
		c0.3,1.6-0.6,2.7-2.8,2.4c-5.1-0.7-3.9,2-2.3,4.6C105.6,110,106.5,111.2,107.5,112.3z"/>
	<path class="st12" d="M125.9,128c-6,1-3.3,4.2-1.8,7.1l2.5,14.9l-4.6,7.9c-1.2,0-2.3,0.6-3,1.5c-2.1,2-2.7,0.7-3.2-1.3
		c0.5-7.9,0.9-15.7-1.5-23.4c0.4-2.9-1-4.2-3.8-4.3c-2.5-0.1-4.7-1.4-6.1-3.4c1.4-1.7,0-6,4.5-4.9c4.3,4.9,6.3,5.2,12.1,1.4
		C125.5,122,125.3,125.4,125.9,128z"/>
	<path class="st13" d="M107.5,112.3c-1-1.1-1.9-2.3-2.7-3.5c-1.6-2.7-2.7-5.4,2.3-4.7c2.1,0.3,3-0.7,2.8-2.4
		c-1.2-6.9,4.8-6.6,8.3-7.3c4.1-0.8,8.3-0.1,11.9,2c0.4,4.3,1.3,8.5,0.7,12.8c-2.5,1.3-4.6-1.6-7.2-0.5c-5.6,2.6-10.6,1.9-14.6-4.4
		c1.2,6.2,1.2,6.2,0.2,8.7l0.1,0.1c-0.2-0.5-0.2-1.1-1-0.6C107.9,112.5,107.7,112.4,107.5,112.3z"/>
	<path class="st14" d="M87.1,136c3.8,3,8,5.9,8,11.5c0.1,8.5-3,16-7.1,23.4c-1.2,2.2-3.4-0.7-4,1.4c-1.6-5.5-1.2-11-0.2-16.5
		C85,149.2,84.7,142.4,87.1,136z"/>
	<path class="st15" d="M109.1,113c1-2.5,1-2.5-0.2-8.7c4.1,6.4,9,7,14.6,4.4c2.5-1.2,4.7,1.8,7.2,0.5c-0.6,7.1-3.5,10.8-9.9,12.1
		c-5,0.2-8.4-2.8-11.6-6L109.1,113z"/>
	<path class="st13" d="M149.8,128c-1.9,2.4-4.5,1-6.8,1.4c-1-0.8-2.2-1.5-3.3-2.1c-3.6-1.5-5.6-3-3.4-7.6c2.7-5.4,3.3-6,9.8-3.5
		c0.4,0.6,1.2,0.8,1.9,0.5c2.1,1.6,2.6,4,3.2,6.3c0,0.7,0,1.3,0,2L149.8,128z"/>
	<path class="st14" d="M157.9,158.1c-2.8,0.9-2.1,4.1-3.9,5.8c-0.9,1-1.4,2.4-3,1.8c-1.4-0.6-1.2-2.1-0.9-3.1
		c3.5-8.9,1.5-17.1-2.7-25.2c-1.9-3.7,2.5-2.9,3.6-4.4C155.5,140.8,158.9,148.9,157.9,158.1z"/>
	<path class="st6" d="M61.6,179.4c-0.1-2.7,3.6-3,3.6-5.7c2.4,1.6,5.2,0,7.4,0.6c3.9,1,4.5,7.2,1.6,11.9c-4.3,1.4-7.8-1.3-11.7-2.1
		C61.6,182.6,62.9,180.8,61.6,179.4z"/>
	<path class="st2" d="M73.2,128.7c-1.5-2.8-6.3-4.1-4-8.6c0.8-1.5,1.2-3.7,3.8-2.9c0.6,5.1,1.7,5.7,6.1,3c1.6,3,0.9,5.3-1.9,6.7
		c-1.1,0.5-2.9-0.3-3.2,1.7C73.7,128.6,73.5,128.7,73.2,128.7z"/>
	<path class="st6" d="M159.1,96.8c2.4-3.4,5.4-2.9,7.8-0.6c2.1,2.1,3.8,5.1,0.3,7.8C160.3,103.9,159.4,103.1,159.1,96.8z"/>
	<path class="st13" d="M109.3,115.3c3.3,3.2,6.6,6.1,11.6,6l0.1,2.2c-5.9,3.8-7.8,3.5-12.1-1.4L109.3,115.3z"/>
	<path class="st3" d="M152,70c0.6,0.3,1.5,0.5,1.7,0.9c2.7,5.8,3,5.9,8.2,2.3c0.1,2.3,1.1,4.8-0.7,6.9c-9.3,0.1-11.5-1.9-10.1-9.2
		L152,70z"/>
	<path class="st4" d="M151,70.9c-1.3,7.3,0.9,9.3,10.1,9.2c-1.1,3.6-4.3,3.2-6.9,3.3c-3.6,0.1-4.5-4-7.2-5.5
		C148.5,75.6,147.9,72.2,151,70.9z"/>
	<path class="st8" d="M169.1,158.1c0.1-3.6,2.1-4.9,5.4-4.2c3.7,0.8,4.7,3.3,3.8,6.7c-0.1,0.3-1.1,0.4-1.7,0.5
		C173.4,161.8,172,158.1,169.1,158.1z"/>
	<path class="st3" d="M80.9,106.6c-2.7-0.2-3.3-2.6-3.7-4.5c-0.4-1.4,0.5-2.9,1.9-3.2c0.3-0.1,0.6-0.1,0.9-0.1
		c2.3,0,4.1,0.8,4.2,3.6C84.4,104.8,83.1,105.9,80.9,106.6z"/>
	<path class="st7" d="M136.1,158c-1,5.8-2.1,11.6,1,17.1l-2.9-1.3c-1.2-4.7-3.1-9.1-3.3-14l1.2-1.3
		C133.9,162.5,134.7,158.2,136.1,158z"/>
	<path class="st7" d="M141.9,146.5c0.6,4.8,2.1,9.7-2.8,15.2c0.2-6.3-0.8-11.3,0.7-16.4L141.9,146.5z"/>
	<path class="st9" d="M159.1,96.8c0.3,6.2,1.2,7,8.1,7.3c-2.6,3.2-6.3,3.8-8.4,0.8C157.1,102.5,155.1,99.4,159.1,96.8z"/>
	<path class="st2" d="M187.1,90c-0.2,2.8,1,4.3,3.9,4.2c1.5,2.1,0.3,4.4-1.3,4.6c-2.3,0.3-4.6-1-5.4-3.2c-0.5-1.6-0.6-3.2,0.7-4.5
		l1.1-0.9C186.4,90,186.7,89.9,187.1,90z"/>
	<path class="st5" d="M171.9,184.3c-2.2,1.7-4.4,5.8-6.2-0.3c-0.3-1-1.6-0.8-2.6-0.9c0.5-0.9-0.4-3.1,2-2.2S171.7,179,171.9,184.3z"
		/>
	<path class="st6" d="M131.1,60.1c-0.3,1.8,2.2,2.3,2,4.1l0,0c-0.7,0.3-0.7,0.6-0.2,1.1c-0.1,0.3,0,0.7,0.1,1
		c-0.4,0.8-1.2,0.9-2,0.9c-2.3-1.2-5.3-1.7-5.1-5.4C127,59,129.4,60.8,131.1,60.1L131.1,60.1z"/>
	<path class="st10" d="M58,160.8l1.2-1.5c0.3-0.1,0.6-0.2,0.9-0.3c-1.4,6.6-0.9,13.4-1,20.1c-3-4.2-2.1-8.9-1.6-13.4
		C57.8,164.1,58,162.5,58,160.8z"/>
	<path class="st9" d="M62.5,184c3.9,0.8,7.4,3.5,11.7,2.1l-2.9,3.2c-3.5,1.1-5.9-0.3-7.5-3.3C63.4,185.4,62.9,184.7,62.5,184z"/>
	<path class="st10" d="M148,116.7c-0.7,0.4-1.5,0.1-1.9-0.5c-0.7-3.8-2.4-7.4-2-11.4c0.2-1.8,0.5-3.5,2-4.8l0.1,0.1
		C146,105.7,145.6,111.4,148,116.7z"/>
	<path class="st8" d="M79.1,120.1c-4.4,2.7-5.4,2.2-6.1-3C76.6,115,78.5,116.3,79.1,120.1z"/>
	<path class="st10" d="M63,86.7c-1.3,5.1-1.5,10.4-0.5,15.6C60.2,97,59.4,91.8,63,86.7z"/>
	<path class="st10" d="M62.5,184c0.4,0.7,0.9,1.4,1.3,2.1c-0.8,0.2-1.8,2.1-1.9,1.1c-0.4-3-4.1-4.7-2.8-8.1l2.5,0.3
		C62.9,180.8,61.6,182.6,62.5,184z"/>
	<path class="st2" d="M169.1,158.1c2.9,0,4.3,3.8,7.5,3.1c-0.7,1.2-1,2.9-3.1,2.1C171,162.4,169.4,160.8,169.1,158.1z"/>
	<path class="st10" d="M79,139.7c-0.4,1.6-1.3,2.5-2.9,2.1c-1.2-0.1-2-1.2-1.9-2.3c0-0.1,0-0.1,0-0.2c0-1.2,1-2.2,2.3-2.1
		c0.2,0,0.4,0,0.5,0.1C78.2,137.5,79.1,138.5,79,139.7z"/>
	<path class="st9" d="M126,61.7c-0.3,3.6,2.8,4.1,5.1,5.4c-1.6,1.8-3.7,0.7-5.5,1l-0.2-0.2C125.4,65.8,123.7,63.5,126,61.7z"/>
	<path class="st10" d="M125.6,68c-2.4,2.5-5.5,3.1-8.7,3.7c2.4-2,5.4-3.4,8.5-3.9L125.6,68z"/>
	<path class="st10" d="M91.1,103.9c-2.8-2.2-1.8-5.1-1.3-7.9L91.1,103.9z"/>
	<path class="st10" d="M64.1,148.1c0.1-1.7,0.9-3.1,2.7-4.9C67.1,146.1,67.6,148.1,64.1,148.1L64.1,148.1z"/>
	<path class="st10" d="M69.1,139.1c0.1-2.5,0.8-4.6,3-6h0.1C72.3,135.7,70.6,137.4,69.1,139.1L69.1,139.1z"/>
	<path class="st10" d="M133.1,66.2c-0.2-0.3-0.2-0.7-0.1-1l0.1-1.1h4.4C136.2,66,134.6,66,133.1,66.2z"/>
	<path class="st10" d="M166.1,137.1c1.6,0.1,2.7,1,3.6,2.9C167.7,139.6,166.3,139.2,166.1,137.1L166.1,137.1z"/>
	<path class="st10" d="M148.1,96.2c0.1,1.7-0.3,3.2-2,4l0,0C146,98.4,146.4,96.9,148.1,96.2L148.1,96.2z"/>
	<path class="st10" d="M162.1,134.1c1.3,0,2.5,0.8,3,2l-0.1,0.1C163.5,136.2,162.2,136.1,162.1,134.1L162.1,134.1z"/>
	<path class="st10" d="M73.2,128.7c0.3,0,0.6-0.1,0.9-0.1c0.1,1.7-0.6,3.4-2,4.6H72C71.9,131.5,72.6,130.1,73.2,128.7z"/>
	<path class="st9" d="M57.1,106.2l1.4-0.8c0.9,0.2,1.9,0.4,0,0.6C58,106,57.5,106.1,57.1,106.2z"/>
	<path class="st10" d="M151.1,125c0-0.6,0-1.3,0-2c1.2,0.6,2,1.8,1.9,3.1l0,0L151.1,125z"/>
	<path class="st10" d="M94.1,87.1c-0.1-1.3,0.7-2.6,2-3l0,0C96.2,85.4,95.3,86.7,94.1,87.1z"/>
	<path class="st10" d="M93.1,112.1c-0.7-0.4-1-1.2-0.8-2c0-0.1,0.3-0.2,0.4-0.3L93.1,112.1z"/>
	<path class="st10" d="M160.1,133.1l-2-2l0,0c1-0.1,1.9,0.6,2,1.6C160.1,132.8,160.1,133,160.1,133.1L160.1,133.1z"/>
	<path class="st10" d="M63.2,151v-2.8c0.3,0,0.6,0,0.9-0.1l0,0C64.1,149.2,64.3,150.3,63.2,151z"/>
	<path class="st10" d="M152.1,93.1l-1.3,1.4l-0.4-0.6L152.1,93.1z"/>
	<path class="st10" d="M157.1,90.1c0.7-1.2,1.9-1,3-1l0,0C159.4,90.3,158.2,90.1,157.1,90.1z"/>
	<path class="st10" d="M162.1,88.1c0.7-1.2,1.9-1,3-1l0.1,0.1c-0.8,1.1-1.9,1-3,1L162.1,88.1z"/>
	<path class="st10" d="M94.1,87.1l-1.3,1.4l-0.4-0.6L94.1,87.1z"/>
	<path class="st10" d="M97.1,83.1l1.3-1.3l0.4,0.6L97.1,83.1z"/>
	<path class="st10" d="M94.4,114.8c0.1,0,0.3,0,0.3,0c0.1,0.1,0.1,0.3,0.1,0.4c-0.2,0.4-0.4,0.4-0.5,0
		C94.3,115.1,94.4,114.9,94.4,114.8z"/>
	<path class="st10" d="M113.1,73.1c0.4-0.2,0.8-0.5,1.1-0.7c0,0,0.2,0.3,0.3,0.4L113.1,73.1z"/>
	<path class="st10" d="M113.1,73.1c-0.4,0.7-1.2,1.1-2,1l0,0C111.5,73.4,112.3,73,113.1,73.1z"/>
	<path class="st10" d="M108.1,76.1c-0.4,0.7-1.2,1.1-2,1l0,0C106.5,76.4,107.3,76,108.1,76.1z"/>
	<path class="st10" d="M106.1,77.1c-0.4,0.3-0.8,0.5-1.1,0.7c-0.1-0.1-0.2-0.2-0.3-0.4L106.1,77.1z"/>
	<path class="st10" d="M182.1,148.1l1.4,0.4l-0.3,0.4L182.1,148.1z"/>
	<path class="st10" d="M160.1,133.1c0.8-0.1,1.6,0.3,2,1l0,0C161.3,134.2,160.5,133.8,160.1,133.1z"/>
	<path class="st10" d="M91.4,106.8c0.1,0,0.3,0,0.3,0c0.1,0.1,0.1,0.3,0.1,0.4c-0.2,0.4-0.4,0.4-0.5,0
		C91.3,107.1,91.4,106.9,91.4,106.8z"/>
	<path class="st10" d="M68.1,140.1l-0.4,1.4c-0.1-0.1-0.4-0.3-0.4-0.3C67.5,140.8,67.8,140.4,68.1,140.1L68.1,140.1z"/>
	<path class="st10" d="M175.1,143.1l-1.4-0.4c0.1-0.1,0.2-0.3,0.3-0.4C174.4,142.5,174.8,142.8,175.1,143.1L175.1,143.1z"/>
	<path class="st10" d="M176.1,144.1c0.8-0.1,1.6,0.3,2,1l0,0C177.3,145.2,176.5,144.8,176.1,144.1z"/>
	<path class="st10" d="M90.9,93l-0.1,0.4c-0.1-0.1-0.3-0.3-0.4-0.5c0,0,0.2-0.2,0.3-0.3L90.9,93z"/>
	<path class="st10" d="M162.1,88.1c-0.4,0.7-1.2,1.1-2,1l0,0C160.5,88.2,161.3,88.1,162.1,88.1z"/>
	<path class="st10" d="M165.1,87.1c0.4-0.3,0.8-0.5,1.2-0.7c0.1,0.1,0.2,0.2,0.3,0.4l-1.4,0.5L165.1,87.1z"/>
	<path class="st10" d="M170.1,85.1c-0.4,0.3-0.8,0.5-1.2,0.7c0,0-0.2-0.3-0.3-0.4L170.1,85.1z"/>
	<path class="st10" d="M170.1,85.1c0.4-0.3,0.8-0.5,1.1-0.7c0,0,0.2,0.3,0.3,0.4L170.1,85.1z"/>
	<path class="st15" d="M108.2,112.5c0.8-0.6,0.8,0.1,1,0.6L108.2,112.5z"/>
	<path class="st10" d="M157.1,130l1,1l-0.1,0.1L157.1,130L157.1,130z"/>
	<path class="st10" d="M93.1,112.1l0.5,0.5L93.1,112.1z"/>
	<path class="st10" d="M152.1,93.1l0.5-0.4L152.1,93.1z"/>
	<path class="st10" d="M166.1,137.1l-1-1l0,0L166.1,137.1z"/>
	<path class="st8" d="M186.1,90.1L185,91L186.1,90.1z"/>
	<path class="st10" d="M157.1,90.1l-0.5,0.4L157.1,90.1z"/>
	<path class="st10" d="M156.1,129.1l1,1l-0.1,0.1c-0.3-0.3-0.6-0.7-1-1L156.1,129.1z"/>
	<path class="st10" d="M68.1,140.1l1-1l0.1,0.1L68.1,140.1L68.1,140.1z"/>
	<path class="st10" d="M156.1,129.1c-0.3-0.3-0.7-0.7-1-1h0.1L156.1,129.1L156.1,129.1z"/>
	<path class="st10" d="M175.1,143.1l1,1l0,0L175.1,143.1z"/>
	<path class="st10" d="M108.1,76.1l0.5-0.4L108.1,76.1z"/>
	<path class="st10" d="M178.1,145.1l0.4,0.5L178.1,145.1z"/>
	<path class="st10" d="M154.1,127.1l1,1H155L154.1,127.1L154.1,127.1z"/>
	<path class="st10" d="M181.1,147l1,1l0,0L181.1,147L181.1,147z"/>
	<path class="st10" d="M181,147.2l-0.4-0.5c0.2,0.1,0.3,0.3,0.5,0.4L181,147.2z"/>
	<path class="st10" d="M111.1,74.1l-0.5,0.4L111.1,74.1z"/>
	<path class="st10" d="M96.1,84.1l1-1l0.1,0.1L96.1,84.1L96.1,84.1z"/>
	<path class="st10" d="M154.1,127.1l-1-1l0,0L154.1,127.1z"/>
	<path class="st10" d="M148.1,96.1l0.5-0.4L148.1,96.1L148.1,96.1z"/>
	<path class="st14" d="M111.1,165.1c0.8,0,1.6-0.1,2.4-0.4c1.6-0.9,3.5-2.7,4.9-1.6c1.6,1.1,0.5,3.7,0.6,5.6c0,1.8-0.7,3.6-2,4.9
		c-4.1,4.9-9.7,6.6-15.7,7.4c-3.3,0.4-5.7-0.2-2.7-4.2c0.6-1.1,1.1-2.4,1.5-3.6C104.4,171.4,106.8,167,111.1,165.1z"/>
	<path class="st14" d="M114.3,134.7c2.4,7.7,2,15.5,1.5,23.4c-6.6-0.2-9-3-10.6-12.3c-1-5.8-0.1-7.1,5.5-8.9
		C112,136.4,113.2,135.6,114.3,134.7z"/>
	<path class="st13" d="M136.1,158c-1.3,0.2-2.1,4.5-4,0.5l-1.2,1.3c-1.7,1.3-3.1,3-5.2,3.7l-1.4-0.4c-0.8-1.7-1.6-3.5-2.4-5.2
		l4.6-7.9c1.4-1.3,2.6-2.9,4.5-3.5c6.5-0.6,6.3-0.7,5.8,6.5C136.9,154.6,136.6,156.3,136.1,158z"/>
	<path class="st7" d="M111.1,165.1c-4.3,1.8-6.8,6.2-11.1,8.1c2-6.5,2.3-13.3,2.6-20.4C104.6,157.7,103.5,164.6,111.1,165.1z"/>
	<path class="st7" d="M124.4,163.1l1.4,0.4C125.1,164.1,124.6,163.9,124.4,163.1z"/>
	<path class="st4" d="M182.1,123.2h2c0.2,1.3,0.8,2,2.2,1.7l1.1,1.1c-0.8,1.3-1.8,2.5-3.5,1.8C181.6,126.9,182.1,124.9,182.1,123.2z
		"/>
	<path class="st3" d="M186.2,124.9c-1.4,0.2-2-0.4-2.2-1.7c1-0.2,1.9,0.4,2.1,1.4C186.2,124.7,186.2,124.8,186.2,124.9z"/>
	<path class="st14" d="M131.1,146.4c-1.9,0.6-3.1,2.3-4.5,3.5l-2.5-14.8C132.9,135.1,134.7,138,131.1,146.4z"/>
	<path class="st0" d="M133.1,64.1l-0.1,1.1C132.4,64.8,132.4,64.4,133.1,64.1z"/>
</g>
</svg>
