<?xml version="1.0" encoding="utf-8"?>
<!-- Generator: Adobe Illustrator 23.0.2, SVG Export Plug-In . SVG Version: 6.00 Build 0)  -->
<svg version="1.1" id="Layer_1" xmlns="http://www.w3.org/2000/svg" xmlns:xlink="http://www.w3.org/1999/xlink" x="0px" y="0px"
	 viewBox="0 0 238.2 251.2" style="enable-background:new 0 0 238.2 251.2;" xml:space="preserve">
<style type="text/css">
	.st0{fill:#CDCBE3;}
	.st1{fill:#583763;}
	.st2{fill:#76B7DE;}
	.st3{fill:#CBE3ED;}
	.st4{fill:#BBB3D5;}
	.st5{fill:#F0C0AD;}
	.st6{fill:#AEA4C9;}
	.st7{fill:#EFBDAA;}
	.st8{fill:#715C81;}
	.st9{fill:#53345C;}
	.st10{fill:#614067;}
	.st11{fill:#9D90B4;}
	.st12{fill:#E7B0A0;}
	.st13{fill:#E3F0F5;}
	.st14{fill:#FEFEFE;}
	.st15{fill:#EDB198;}
</style>
<title>wash</title>
<g>
	<path class="st0" d="M64.2,206.9c-16-2-31.3-19.5-31.9-35.5c-0.4-11.8,2.8-22.1,8.8-32.1c7.6-12.5,5.6-25.2-4.5-35.9
		c-6.7-7.2-12.9-14.7-14.8-24.9c-3.1-17.1-0.6-33.1,10-47.2c6.3-8.4,15.6-12.5,25.5-14.3c14.9-2.7,29,0.5,42.2,7.5
		c2.3,1.2,5.5,1.9,6,5.4c-7,2.6-13.7,5.2-19.6,10.2C72.3,51.4,68.7,66.2,69.6,82.8c-2.9,3.1-3.8,7.1-5.1,10.9
		c-5.7,2.5-5.9,8.3-7.8,13.1l-1.2,3.9c-3,5.8-1.3,11.8-0.3,17.4c-0.2-4.1,0.1-8.3,0.8-12.4c1.1,3.8,0.1,7.1,1.5,10
		c1,7.1,3.3,13.6,9.2,18.2c2.3,1.8,4.8,3.8,3.8-3c1.8,3.9,5.5,6.6,9.7,7c3.8,0.6,7.6,1.2,11.3,1.7c-7.5,3.1-12.1,8.5-14.8,16.2
		c-3.3,9.5-7.4,18.8-10.8,28.3C64.4,198.3,63.3,202.5,64.2,206.9z"/>
	<path class="st1" d="M69.5,82.8C68.7,66.2,72.3,51.4,85.8,40c5.9-4.9,12.7-7.6,19.6-10.2l1.9-0.2c1.5,0.4,3.1,0.1,4.4-0.6
		c11.5-0.9,23.1,1.1,33.6,5.8c8.4,5.1,14.1,12.1,18.4,21.3c3.3,7.3,4.9,15.2,4.6,23.2c0,1.5-0.1,3-0.1,4.5c-4.1-2-6.6-1.2-7,3.8
		c-0.1,1.1-0.9,2.1-1.8,3.9c-0.9-3.4-1.4-5.8-2.1-8.1c-0.8-2.5-2.3-4.7-5.3-4.4c-3.3,0.3-3.9-1.7-4.4-4.1c-0.6-2.8-0.8-5.7-3-9.2
		c-0.3,4.3-0.5,7.4-0.7,10.5c-0.1,1.7-0.2,3.4-2.6,3.5c-2.1,0.1-3-1-3.7-2.7s-1.1-3.3-1.7-4.9c-1,0.3-1.7,1.3-1.7,2.4
		c-0.5,4.6-3.3,5.5-7.5,5.8c-11.5,0.9-23,0.4-34.4,0.4c-12,0-12,0.1-14.3,11.9c0,0.1-0.5,0.2-1.1,0.4c-0.7-2-1.8-4-1.9-6
		C74.8,83.2,72.9,82.2,69.5,82.8z M102.2,79.6l0.1-0.5H88.6v0.5H102.2z"/>
	<path class="st0" d="M168.3,83.8c0-1.5,0.1-3,0.1-4.5c0.3-8-1.3-16-4.6-23.2c-4.3-9.1-10-16.1-18.4-21.3c12.6-5.1,25-5.6,37.4,1.1
		c8.5,4.4,14.6,12.6,16.4,22c1.1,5-0.9,9.5-2.9,13.9c-1.6,3.6-3.6,7.2-5.7,10.5c-10,15.1-7.2,29.5,1.7,43.9
		c4.4,7,8.6,14.2,10.2,22.6c2.5,13.2-2.5,22.4-13.1,27c-6.9,2.9-13.6,6.3-20,10c-3.4-0.1-2.7-3.4-4-5.1c-0.7-2.5,1.7-6.3-3-7
		c-3.7-10.2-7.1-20.7-19-24.7c5.5,0.2,7-4.1,8.6-8.3c0.6,7.7,1.2,8.2,8.6,6.4c3.6-0.9,7-2,9.9-4.5l1-0.8l0,0c4.9-3.4,6.9-8.5,8.1-14
		c1-4.7,4.8-9.1,1.1-14.2c-0.7-2.8-1.4-5.6-3.1-8l-5.3-12C171.1,90.3,171.2,86.4,168.3,83.8z"/>
	<path class="st2" d="M143.4,149c11.8,4,15.3,14.5,19,24.7c-4.2,1.1-3.8,3.9-2.7,7c-1.6,2.2-1,5.4-4,7.1c-5.5,3.1-6.5,8.4-5.6,14.1
		c0.4,2.1,0,3.5-1.7,4.7c-2.7,1-5,3-8,3.3c1.3-5.7-2.5-11.7-7-9.7c-5.6,2.5-9.6-5.7-14.5-0.9c-0.4-0.5-1.2-0.9-1.2-1.4
		c-0.1-2.7-1.6-3.3-3.9-3c-2.6,0.2-4.7,2-5.3,4.5c-0.4,1.2,0.3,3.1-1.5,3.3c-6.8,0.4-4.2,4.7-3.7,8.2c-2.6,0-4.7-1.5-6.9-2.7
		c-6-3.2-11.8-6.6-17.8-9.8c-4.8-2.6-9.1-1.4-10.9,2.8s0.2,8.2,5.1,10.3c1.6,0.7,3.6,0.8,4.9,2.3c-7.3,0.7-10.3-0.8-13.4-6.8
		c-0.9-4.4,0.2-8.6,1.7-12.6c3.4-9.5,7.5-18.8,10.8-28.3c2.6-7.7,7.3-13.1,14.8-16.2l8.1-1.8c1.6,7.8,6.5,12.8,13.5,15.9
		c0.5,0.7,1.4,1.1,2.3,1h0c1.9,1.6,3.6,4,6.2,1l0,0c2.6-0.4,5.2-1,6.1-4v0.1c1.5,0.1,2.6-0.5,3-2l0,0c3.1-1.5,4.7-4.1,5.9-7.1
		c1.5-1.3,1.8-3.1,2-4.9L143.4,149z"/>
	<path class="st3" d="M103.2,210.8c-0.5-3.5-3-7.8,3.7-8.2c1.8-0.1,1.1-2.1,1.5-3.3c0.5-2.5,2.7-4.4,5.3-4.5c2.3-0.2,3.9,0.3,3.9,3
		c0,0.5,0.8,0.9,1.2,1.4c5-4.8,8.9,3.4,14.5,0.9c4.5-2,8.4,4,7,9.7c-3,3.8-1.5,8.6,3.1,10c-0.5,1.6,0.8,3.9-1.6,4.8
		c-2.6,1-2.2-2.4-3.8-3c-1.3,0.8-0.6,2.1-0.7,3.1c-0.2,3.7-1.8,5.7-5.7,4.7c-1.8-0.5-3.5-1.2-2.7,1.9c0.2,1-0.4,2-1.3,2.2
		c0,0-0.1,0-0.1,0c-1.2,0.4-2.5-0.2-2.9-1.3c-1.3-2.6-2-2.1-3.6,0c-3.4,4.5-9.5,3.6-12.1-1.4c-0.7-1.4-0.7-3.6-3.3-2.3
		c-0.3,0.1-0.6,0.1-0.9,0.1c-0.9-5.4-7.6-5.3-9.3-9.9c1.7-0.1,3.1,0.9,4.7,1.4c4.6,1.4,8.3,4.9,13.4,4.9c0.7,1.1,1.9,0.9,2.9,0.9
		c1,1.3,2,1.3,3,0l0.8-1l-0.4-0.3l-0.3,1.3h-3c-0.1-1.9-1.3-2-2.8-2c-0.2-0.7-1.2-1.8,0-1.9c6.3-0.8-2-5.5,1.9-6.8
		c-3.3,0.2-4.3-4.6-8.2-3.4C105.9,212.2,104.3,211.9,103.2,210.8z M127.4,224.8c2.9-0.5,4.8-1.6,3.1-6.3
		C130.6,222,127.2,222.1,127.4,224.8c-0.9-0.3-1-1.9-2.3-1.4c-0.2,0.4-0.2,0.9,0,1.3C125.7,225.6,126.6,226,127.4,224.8z
		 M125.4,211.3c-1-2.5-3.5-1.3-5.3-1.5c-1.5-0.1-3.9-0.4-3.5,2.1s1.7-0.8,2.9-0.1c1,0.6,2.6,0.2,3.7,0.8
		C124.5,213.4,124.9,212.8,125.4,211.3L125.4,211.3z M109.4,209.3c0.5-7.8,6.2-2,8.8-4.9c-2.7-3.2-5.9-0.4-8.6-0.3
		C107.8,204.3,108.2,206.7,109.4,209.3L109.4,209.3z"/>
	<path class="st4" d="M148.4,206.6c1.7-1.1,2-2.5,1.7-4.7c-1-5.7,0.1-11,5.6-14.1c3-1.7,2.4-4.9,4-7.1c1.9,0.5,3.9,0.5,5.7,0
		c1.3,1.7,0.6,5,4,5.1c5.9,5.5,7,12.5,6,20c-1.2,1-1.2,2,0,3c0,0.7,0,1.4,0,2c-1.5,0.1-1.7,1.1-2,2.3c-1.6,6.1-5,10.8-11.5,12.4
		c-1.7,0.4-2.7,1.2-2.5,3h-8c-0.3-0.5-0.7-0.4-1,0l-1,0.1c-0.4-3.3,1.3-6.9-1.1-10C149.5,214.6,151.1,210.6,148.4,206.6z M155.4,210
		c-0.4,3.4,0.5,6.7,2.4,9.5c2.7,3.9,5.8,4,8.9,0.6c4.4-4.8,4.5-16.6,0-21.2c-2.4-2.4-5-2.9-7.8-0.2
		C155.7,201.8,155.2,205.5,155.4,210L155.4,210z"/>
	<path class="st5" d="M113.5,224.9c-5,0-8.8-3.5-13.4-4.9c-1.6-0.5-3-1.4-4.7-1.4c-5.7-2.4-11.7-4.1-17.8-5
		c-1.3-1.5-3.2-1.6-4.9-2.3c-4.9-2-6.9-6-5.1-10.3s6.1-5.4,10.9-2.8c6,3.2,11.9,6.6,17.8,9.8c2.2,1.2,4.2,2.7,6.9,2.7
		c1.1,1.1,2.7,1.5,4.1,0.9c3.8-1.3,4.9,3.6,8.2,3.4c-3.9,1.3,4.4,6-1.9,6.8c-1.3,0.2-0.3,1.3,0,1.9L113.5,224.9z"/>
	<path class="st6" d="M159.4,228.5c-0.2-1.9,0.8-2.6,2.5-3c6.5-1.6,9.8-6.3,11.5-12.4c0.3-1.2,0.6-2.2,2-2.3l0.1,17.8L159.4,228.5z"
		/>
	<path class="st5" d="M148.4,206.6c2.7,4,1.1,8.1,0,12.1c-1.4,0.8-3.1,1.2-4.8,1.2c-4.6-1.4-6.1-6.2-3.1-10
		C143.4,209.6,145.7,207.6,148.4,206.6z"/>
	<path class="st1" d="M159.4,228.5h16.1c2.3,1.4,1.9,2.6-0.5,2.7c-8.1,0.2-16.2,0.1-24.2,0.1c-1.9,0-3-0.7-1.4-2.7l1-0.1h1
		L159.4,228.5z"/>
	<path class="st0" d="M111.8,29c-1.3,0.8-2.9,1-4.4,0.6C108.7,28.4,110.3,28.7,111.8,29z"/>
	<path class="st6" d="M175.4,208.8c-1.3-1-1.3-2,0-3C175.4,206.8,175.4,207.8,175.4,208.8z"/>
	<path class="st7" d="M168.3,83.8c2.9,2.7,2.9,6.5,4,9.9c-1.7,3.5-3.1,7.1-6.9,9c-3.5,0.2-7.9-1.4-9,4.1c-3.8,0.3-4.4,4.2-6.9,6
		c-4.5,3.3-8.3,7.3-13.3,10.1c-4.8,2.9-10,5.1-15.5,6.5c-5,1.2-9.8-1.6-14.6,0.5c-10.5-3.2-19.4-10.4-24.7-20.1
		c-2.1-3.7-2.8-9.1-9.3-7.3c-0.7,0.2-1.8-0.8-2.6-1.2c-0.1-0.3-0.4-0.5-0.7-0.5l-1.2-1.1l0.1,0.1l-1.1-1l-2.1-4.9
		c1.3-3.8,2.3-7.8,5.1-10.9c3.4-0.6,5.3,0.3,5.6,4.1c0.2,2,1.3,4,1.9,6c0.7-0.2,1.1-0.3,1.1-0.4c2.2-11.8,2.2-11.9,14.2-12
		c11.5,0,23,0.4,34.4-0.4c4.2-0.3,7-1.2,7.5-5.8c-0.1-1.1,0.6-2.1,1.7-2.4c0.6,1.6,1.1,3.3,1.7,4.9s1.6,2.8,3.7,2.7
		c2.4-0.1,2.5-1.9,2.6-3.5c0.3-3.1,0.4-6.2,0.7-10.5c2.1,3.5,2.4,6.4,3,9.2c0.5,2.4,1.1,4.4,4.4,4.1c3-0.3,4.4,1.9,5.3,4.4
		c0.8,2.3,1.3,4.8,2.1,8.1c0.9-1.8,1.7-2.9,1.8-3.9C161.7,82.6,164.2,81.8,168.3,83.8z M69.4,89.8c0.5,0,1,0,1.5-0.1
		c1-0.2,1.8-1,1.8-2c0-0.3-0.2-0.6-0.4-0.7c-1.3-0.3-1.7,0.6-2.2,1.5C69.8,88.9,69.6,89.3,69.4,89.8c-0.9,0.9-1.6,1.8,0,3.3
		L69.4,89.8z M100.1,92.6c-1.6,0.7-2.7,2.2-2.8,4c-0.2,2.2,0,4.7,2.6,5.1c2.3,0.3,2.9-1.9,3.1-3.7C103.3,95.8,102.8,93.8,100.1,92.6
		L100.1,92.6z M143.4,97.2c-0.3-2-0.5-4.5-3-4.3c-1.5,0.2-3.1,2-3,4.3c0.1,2.1,0.5,4.4,3,4.4S143.2,99.3,143.4,97.2z M91.1,89.9
		c3.5-0.7,6.7-2.4,10.3-2.2c1,0,2.1-0.4,1.8-1.7s-1.5-1.2-2.4-1C97.2,85.7,93.7,86.8,91.1,89.9L91.1,89.9z M149.1,89.4
		c-2.7-2.8-6-3.8-9.6-4.4c-1-0.2-2.1,0-2.3,1.3c-0.1,0.6,0.3,1.2,0.9,1.3c0.1,0,0.1,0,0.2,0C142.1,87.4,145.5,89.1,149.1,89.4
		L149.1,89.4z M125.5,112.2c-1.5,3-2,5.3-4.7,5.5c-2.9,0.1-1.7-3.5-3.7-4.6c-1.8,3.7-0.1,6,3,6.4C124.4,120,125.8,117.2,125.5,112.2
		L125.5,112.2z M121.2,104.5c2,0.5,3.8,0.7,4.8-1.4c0.6-1.4,0.9-3-0.6-4.1c-1.7-1.3-3.6-1.8-5.7-0.5c1.1,2.1,4.2,0.1,4.4,2.9
		C124.4,103.4,122.2,103.3,121.2,104.5L121.2,104.5z M163.2,86.9c0.7,3.3,5.3,3.3,4.8,7C168.2,90.4,169.2,86.5,163.2,86.9
		L163.2,86.9z M73.1,91.2c-0.1,0.3-0.4,0.6-0.3,0.8s0.5,0.3,0.8,0.4c0.1-0.3,0.4-0.6,0.3-0.8S73.4,91.3,73.1,91.2L73.1,91.2z"/>
	<path class="st1" d="M64.4,93.8l2.1,4.9l1.1,1l-0.1-0.1l1.2,1.1c0.3,0,0.6,0.2,0.7,0.5c0,0.9,0,1.7,0,2.6L69,104l0.2,0.2l0.2-0.5
		c1.9,0.8,4.2-0.4,5.5,3.2c2.3,6.1,6,11.6,9.6,17.1c0.9,1.5,2.1,4.7,5.3,2.5c1.1-0.8,1.4,0.1,1.3,1.1c-0.2,3.3,1.7,4.4,4.5,5.4
		c2.8,1,5.3,2.6,7.5,4.5c4.3,3.7,3.6,6.3-1.9,8.1c-1.1,0.4-1.3,0.7-0.9,1.7l-0.8,0.6l-8.1,1.8c-3.8-0.6-7.6-1.1-11.3-1.7
		c-4.3-0.4-7.9-3.1-9.7-7c1,6.8-1.5,4.7-3.8,3c-6-4.6-8.2-11-9.2-18.2l0.4-0.2c0.9-6.4,1.9-12.7-1.2-18.8
		C58.5,102.1,58.7,96.2,64.4,93.8z"/>
	<path class="st8" d="M57.4,125.8c-1.4-2.9-0.4-6.2-1.5-10c-0.7,4.1-1,8.2-0.8,12.4c-1-5.7-2.7-11.6,0.3-17.4c2.3,1,2.1,3,2.1,5
		c0,3.3,0.2,6.6,0.3,9.9L57.4,125.8z"/>
	<path class="st9" d="M57.7,125.6c-0.1-3.3-0.3-6.6-0.3-9.9c0-2,0.1-4-2.1-5l1.2-3.9C59.6,112.9,58.6,119.3,57.7,125.6z"/>
	<path class="st9" d="M102.2,79.6H88.6v-0.5h13.6L102.2,79.6z"/>
	<path class="st1" d="M165.4,102.7c3.8-1.9,5.2-5.6,6.9-9l5.3,12c-2.1,4.1,0.9,7.5,1.7,11.2c0.1,0.3,0.1,0.6,0,1l-1.9,0
		c-2.2,1.8-1.1,4.3-1.2,6.4c-0.3,5.4-3.7,9.7-4.8,14.8v2.8l0,0l-1,0.8c-2.8,2.5-6.3,3.6-9.9,4.5c-7.4,1.8-8,1.4-8.6-6.4
		c-1.6,4.1-3.1,8.5-8.6,8.3l-4.9-1.1l0-0.4c-0.5-3.5-2.9-1.5-4.5-1.6l-0.3,0.1l-0.2-0.2c-0.6-1-1.5-1-2.5-0.9
		c-0.1,0.1-0.3,0.1-0.4-0.1c0,0,0-0.1-0.1-0.1l-1-3l0,0c2.2,0,4.3-0.8,2.1-3c-2.8-2.8,0.3-2.4,1.3-2.8c5.6-2.7,11.3-5.3,14.6-11.1
		c4.5-2.9,8.4-6.1,6.4-12.3l0.2-0.4c1.1,0.7,1.2,3.2,3.3,2.1c1.3-0.7,1.3-1.9,1.3-3.4c-0.1-4.3,2.6-6.5,6.8-7
		c0.3,0.3,0.7,0.5,1.1,0.7l0.2-0.4l-1.3-0.3V102.7z"/>
	<path class="st10" d="M177.4,117.8h1.9c0.1,3.4,0.2,6.7,0.3,10c-1.3,5.5-3.2,10.6-8.1,14V139C178.4,133.3,178.1,125.6,177.4,117.8z
		"/>
	<path class="st10" d="M165.4,180.7c-1.9,0.5-3.9,0.5-5.7,0c-1.1-3.1-1.5-6,2.7-7C167.1,174.4,164.7,178.2,165.4,180.7z"/>
	<path class="st11" d="M179.5,127.8c-0.1-3.4-0.2-6.7-0.3-10c0.1-0.3,0.1-0.6,0-1l1.4-3.2C184.3,118.7,180.5,123.1,179.5,127.8z"/>
	<path class="st8" d="M180.6,113.7l-1.4,3.1c-0.9-3.7-3.8-7-1.7-11.2C179.2,108.1,179.9,110.9,180.6,113.7z"/>
	<path class="st10" d="M170.4,142.6l1-0.8L170.4,142.6z"/>
	<path class="st7" d="M133.4,145.8l0.2,0.2l0.3-0.1l4.5,1.6l0,0.4c-0.2,1.8-0.6,3.6-2,4.9c-3.2,1-5.5,3.8-5.9,7.1l0,0
		c-1.4-0.3-2.7,0.6-3,2c0,0,0,0.1,0,0.1v-0.1c-2.2,1.1-4.9,1.4-6.1,4l0,0l-6.2-1h0.1c-0.5-1.1-1.4-1.1-2.3-1
		c-7.1-3.1-11.9-8.1-13.5-15.9l0.8-0.6c10-2.6,12-4.7,13-14.5c2.7,1,5.6,1.3,8.5,0.8c1.5-0.2,2.5-0.1,3.4,1.1c0,4.2,0.7,8.1,5.2,10
		c0.1,0.2,0.2,0.3,0.4,0.2c0,0,0.1,0,0.1-0.1C131.6,145.6,132.5,145.9,133.4,145.8z"/>
	<path class="st12" d="M130.5,159.9c0.4-3.3,2.7-6.1,5.9-7.1C135.2,155.8,133.6,158.5,130.5,159.9z"/>
	<path class="st12" d="M121.5,165.9c1.1-2.7,3.9-2.9,6.1-4C126.7,164.9,124.1,165.5,121.5,165.9z"/>
	<path class="st12" d="M115.3,164.9l6.2,1C118.9,169,117.2,166.5,115.3,164.9z"/>
	<path class="st12" d="M127.5,162c0.2-1.4,1.5-2.3,2.9-2.1c0,0,0.1,0,0.1,0C130.2,161.5,129,162,127.5,162z"/>
	<path class="st12" d="M113,163.9c1-0.1,1.9,0,2.3,1C114.5,165,113.6,164.6,113,163.9z"/>
	<path class="st13" d="M125.4,211.3c-0.5,1.6-0.9,2.1-2.2,1.4c-1.1-0.6-2.7-0.2-3.7-0.8c-1.2-0.7-2.4,2.5-2.9,0.1s1.9-2.2,3.5-2.1
		C121.9,210,124.4,208.8,125.4,211.3z"/>
	<path class="st13" d="M109.4,209.3c-1.1-2.6-1.6-5,0.3-5.1c2.7-0.1,5.8-2.9,8.6,0.3C115.6,207.3,109.8,201.5,109.4,209.3z"/>
	<path class="st13" d="M127.4,224.8c-0.2-2.6,3.1-2.7,3.2-6.3C132.2,223.2,130.3,224.3,127.4,224.8L127.4,224.8z"/>
	<path class="st13" d="M127.4,224.8c-0.9,1.2-1.7,0.8-2.4-0.1c-0.2-0.4-0.2-0.9,0-1.3C126.3,222.9,126.4,224.5,127.4,224.8
		L127.4,224.8z"/>
	<path class="st13" d="M113.5,224.9l0.1-1.1c1.5-0.1,2.7,0.1,2.8,2l0,0C115.3,225.8,114.2,226,113.5,224.9z"/>
	<path class="st13" d="M119.4,225.8c-1,1.3-2,1.3-3,0l0,0H119.4z"/>
	<path class="st13" d="M119.4,225.8l0.4-1.3l0.4,0.3L119.4,225.8z"/>
	<path class="st14" d="M155.3,210c-0.1-4.5,0.4-8.3,3.5-11.4c2.8-2.7,5.4-2.2,7.8,0.2c4.5,4.6,4.4,16.4,0,21.2
		c-3.1,3.5-6.3,3.3-8.9-0.6C155.8,216.7,154.9,213.4,155.3,210z"/>
	<path class="st6" d="M151.4,228.5h-1C150.7,228.1,151.1,228.1,151.4,228.5z"/>
	<path class="st9" d="M113.4,132.9c-1.1,9.8-3,12-13,14.5c-0.5-0.9-0.3-1.3,0.9-1.7c5.5-1.9,6.2-4.4,1.9-8.1c-2.2-2-4.8-3.5-7.5-4.5
		c-2.8-1-4.8-2.1-4.5-5.4c0.1-1-0.1-1.9-1.3-1.1c-3.2,2.2-4.4-1-5.3-2.5c-3.5-5.5-7.3-11.1-9.6-17.1c-1.3-3.6-3.6-2.4-5.5-3.2
		c0-0.9,0-1.7,0-2.6c0.9,0.4,1.9,1.4,2.6,1.2c6.5-1.8,7.2,3.6,9.3,7.3c5.3,9.7,14.2,16.9,24.7,20.2L113.4,132.9z M81.6,113
		c-0.1,0-0.3,0.1-0.4,0.1c0,0,0.1,0.2,0.1,0.4c0.2,0,0.3-0.1,0.4-0.1C81.7,113.4,81.6,113.2,81.6,113L81.6,113z"/>
	<path class="st12" d="M113.4,132.9l-7.2-2.9c4.8-2,9.6,0.7,14.6-0.5c5.4-1.4,10.7-3.6,15.5-6.5c5-2.8,8.8-6.8,13.3-10.1
		c2.5-1.8,3.1-5.7,6.9-6l-2.4,5.2l-0.2,0.4l-8.5,9.3l-1.1,0.9c-5,3.5-10.4,6.4-16.1,8.7c-1.7,0.6-3,1.4-2.9,3.4
		c-0.8-1.3-1.9-1.3-3.4-1.1C119,134.2,116.1,133.9,113.4,132.9z"/>
	<path class="st9" d="M154,112l2.4-5.2c1.1-5.5,5.4-3.9,9-4.1c0,0.4,0,0.7,0.1,1.1l0,0c-4.2,0.4-6.8,2.6-6.8,7c0,1.5,0,2.7-1.3,3.4
		C155.2,115.2,155.2,112.7,154,112z"/>
	<path class="st10" d="M100.1,92.6c2.7,1.1,3.3,3.2,3,5.4c-0.2,1.8-0.9,4-3.1,3.7c-2.7-0.4-2.8-2.9-2.6-5.1
		C97.4,94.8,98.5,93.3,100.1,92.6z"/>
	<path class="st10" d="M143.4,97.2c-0.2,2.1-0.5,4.4-3,4.4s-2.8-2.3-3-4.4c-0.1-2.2,1.5-4.1,3-4.3C142.9,92.7,143.2,95.2,143.4,97.2
		z"/>
	<path class="st10" d="M91.1,89.9c2.5-3.1,6-4.2,9.7-4.9c0.9-0.2,2.1-0.3,2.4,1s-0.8,1.8-1.8,1.7C97.8,87.5,94.6,89.2,91.1,89.9z"/>
	<path class="st10" d="M149.2,89.4c-3.6-0.3-7-2-10.8-1.8c-0.6,0-1.1-0.5-1.1-1.1c0-0.1,0-0.1,0-0.2c0.2-1.3,1.2-1.5,2.3-1.3
		C143.1,85.5,146.5,86.6,149.2,89.4z"/>
	<path class="st12" d="M125.5,112.2c0.3,5-1.2,7.9-5.4,7.3c-3.1-0.4-4.8-2.7-3-6.4c2,1.1,0.8,4.7,3.7,4.6
		C123.5,117.5,124,115.1,125.5,112.2z"/>
	<path class="st15" d="M121.2,104.5c1-1.1,3.1-1.1,3-3c-0.2-2.8-3.3-0.8-4.4-2.9c2-1.4,4-0.9,5.7,0.5c1.4,1.1,1.2,2.8,0.6,4.1
		C125.1,105.2,123.2,105,121.2,104.5z"/>
	<path class="st15" d="M163.2,86.9c6-0.3,5,3.6,4.8,7C168.5,90.1,163.9,90.2,163.2,86.9z"/>
	<path class="st15" d="M69.4,89.8c0.2-0.4,0.4-0.9,0.7-1.3c0.5-0.9,1-1.8,2.2-1.5c0.3,0.1,0.4,0.4,0.4,0.7c-0.1,1-0.8,1.8-1.8,2
		C70.4,89.8,69.9,89.8,69.4,89.8L69.4,89.8z"/>
	<path class="st15" d="M73.1,91.2c0.3,0.1,0.7,0.2,0.8,0.4s-0.2,0.5-0.3,0.8c-0.3-0.1-0.7-0.2-0.8-0.4S73,91.4,73.1,91.2z"/>
	<path class="st15" d="M69.4,89.8V93C67.8,91.6,68.5,90.7,69.4,89.8L69.4,89.8z"/>
	<path class="st9" d="M68.7,100.7l-1.2-1.1L68.7,100.7z"/>
	<path class="st9" d="M67.6,99.7l-1.1-1L67.6,99.7z"/>
	<polygon class="st9" points="69.4,103.8 69.2,104.2 69,104 	"/>
	<path class="st9" d="M125.2,134.8c-0.1-2.1,1.3-2.8,2.9-3.4c5.7-2.3,11.1-5.2,16.1-8.7l0.2,0.2c0,2.1,1.5,1.9,2.9,2l0,0
		c-3.3,5.8-9,8.4-14.6,11.1c-1,0.5-4,0-1.3,2.8c2.2,2.2,0.2,3-2.1,3l-0.5-0.2l0.4,0.3l1,3C125.9,142.9,125.2,139,125.2,134.8z"/>
	<path class="st9" d="M145.4,121.8l8.5-9.3c2,6.3-1.9,9.5-6.4,12.3l0,0c0-1.4,0.1-2.9-2-2.9L145.4,121.8z"/>
	<path class="st4" d="M177.4,117.8c0.7,7.8,1,15.5-6,21.2c1.1-5.1,4.5-9.4,4.8-14.8C176.3,122.1,175.2,119.6,177.4,117.8z"/>
	<path class="st9" d="M138.4,147.5l-4.5-1.6C135.6,146,138,144,138.4,147.5z"/>
	<path class="st9" d="M133.4,145.8c-0.9,0.1-1.9-0.2-2.5-0.9C131.9,144.8,132.8,144.8,133.4,145.8z"/>
	<path class="st9" d="M165.4,103.8l1.3,0.4l-0.2,0.4C166.1,104.3,165.7,104.1,165.4,103.8L165.4,103.8z"/>
	<path class="st1" d="M81.6,113c0,0.1,0.1,0.3,0.1,0.4c-0.1,0.1-0.3,0.1-0.4,0.1c0-0.1-0.1-0.3-0.1-0.4
		C81.3,113.1,81.4,113.1,81.6,113z"/>
	<path class="st9" d="M144.3,122.7l1.1-0.9l0.1,0.1l-1,1L144.3,122.7z"/>
	<path class="st1" d="M144.5,122.8l1-1c2.1,0,1.9,1.5,2,2.9C146,124.8,144.5,124.9,144.5,122.8z"/>
	<path class="st1" d="M129.4,141.8l-0.4-0.3L129.4,141.8L129.4,141.8z"/>
</g>
</svg>
